<?xml version="1.0" encoding="UTF-8" standalone="no"?>
<!DOCTYPE svg PUBLIC "-//W3C//DTD SVG 1.1//EN"
 "http://www.w3.org/Graphics/SVG/1.1/DTD/svg11.dtd">
<!-- Generated by graphviz version 2.36.0 (20140111.2315)
 -->
<!-- Title: G Pages: 1 -->
<svg width="870pt" height="1968pt"
 viewBox="0.00 0.00 870.00 1968.00" xmlns="http://www.w3.org/2000/svg" xmlns:xlink="http://www.w3.org/1999/xlink">
<g id="graph0" class="graph" transform="scale(1 1) rotate(0) translate(4 1964)">
<title>G</title>
<polygon fill="white" stroke="none" points="-4,4 -4,-1964 866,-1964 866,4 -4,4"/>
<g id="clust1" class="cluster"><title>cluster_Global</title>
<path fill="none" stroke="gray" d="M176,-98C176,-98 842,-98 842,-98 848,-98 854,-104 854,-110 854,-110 854,-1940 854,-1940 854,-1946 848,-1952 842,-1952 842,-1952 176,-1952 176,-1952 170,-1952 164,-1946 164,-1940 164,-1940 164,-110 164,-110 164,-104 170,-98 176,-98"/>
<text text-anchor="middle" x="509" y="-1939.2" font-family="Times,serif" font-size="11.00" fill="gray">Global</text>
</g>
<!-- \\Marker -->
<g id="node1" class="node"><title>\\Marker</title>
<polygon fill="none" stroke="black" points="747.5,-1492 690.5,-1492 690.5,-1456 747.5,-1456 747.5,-1492"/>
<text text-anchor="middle" x="719" y="-1471.2" font-family="Courier,monospace" font-size="11.00">Marker</text>
</g>
<!-- \\AppModel -->
<g id="node14" class="node"><title>\\AppModel</title>
<polygon fill="none" stroke="black" points="469.5,-412 398.5,-412 398.5,-376 469.5,-376 469.5,-412"/>
<text text-anchor="middle" x="434" y="-391.2" font-family="Courier,monospace" font-size="11.00">AppModel</text>
</g>
<!-- \\Marker&#45;&gt;\\AppModel -->
<g id="edge1" class="edge"><title>\\Marker&#45;&gt;\\AppModel</title>
<path fill="none" stroke="black" d="M690.463,-1476.77C661.271,-1478.01 616.124,-1474.79 592,-1447 442.172,-1274.4 661.331,-600.626 520,-421 510.183,-408.523 494.593,-401.709 479.43,-398.024"/>
<polygon fill="none" stroke="black" points="480.089,-394.586 469.592,-396.026 478.696,-401.446 480.089,-394.586"/>
</g>
<!-- \\Collada -->
<g id="node2" class="node"><title>\\Collada</title>
<polygon fill="none" stroke="black" points="751,-1438 687,-1438 687,-1402 751,-1402 751,-1438"/>
<text text-anchor="middle" x="719" y="-1417.2" font-family="Courier,monospace" font-size="11.00">Collada</text>
</g>
<!-- \\Collada&#45;&gt;\\AppModel -->
<g id="edge2" class="edge"><title>\\Collada&#45;&gt;\\AppModel</title>
<path fill="none" stroke="black" d="M686.952,-1422.87C657.776,-1423.69 615.223,-1419.65 592,-1393 449.701,-1229.71 654.26,-590.96 520,-421 510.158,-408.542 494.564,-401.732 479.404,-398.044"/>
<polygon fill="none" stroke="black" points="480.066,-394.607 469.569,-396.044 478.671,-401.467 480.066,-394.607"/>
</g>
<!-- \\Article -->
<g id="node3" class="node"><title>\\Article</title>
<polygon fill="none" stroke="black" points="751,-1384 687,-1384 687,-1348 751,-1348 751,-1384"/>
<text text-anchor="middle" x="719" y="-1363.2" font-family="Courier,monospace" font-size="11.00">Article</text>
</g>
<!-- \\Article&#45;&gt;\\AppModel -->
<g id="edge3" class="edge"><title>\\Article&#45;&gt;\\AppModel</title>
<path fill="none" stroke="black" d="M686.978,-1368.85C657.82,-1369.65 615.28,-1365.6 592,-1339 457.228,-1185.02 647.19,-581.295 520,-421 510.131,-408.563 494.532,-401.757 479.375,-398.067"/>
<polygon fill="none" stroke="black" points="480.041,-394.631 469.543,-396.064 478.643,-401.49 480.041,-394.631"/>
</g>
<!-- \\Rosbridge -->
<g id="node4" class="node"><title>\\Rosbridge</title>
<polygon fill="none" stroke="black" points="757.5,-1330 680.5,-1330 680.5,-1294 757.5,-1294 757.5,-1330"/>
<text text-anchor="middle" x="719" y="-1309.2" font-family="Courier,monospace" font-size="11.00">Rosbridge</text>
</g>
<!-- \\Rosbridge&#45;&gt;\\AppModel -->
<g id="edge4" class="edge"><title>\\Rosbridge&#45;&gt;\\AppModel</title>
<path fill="none" stroke="black" d="M680.444,-1314.91C651.781,-1314.89 613.646,-1309.61 592,-1285 464.753,-1140.33 640.123,-571.634 520,-421 510.101,-408.587 494.495,-401.786 479.342,-398.093"/>
<polygon fill="none" stroke="black" points="480.012,-394.658 469.514,-396.087 478.612,-401.516 480.012,-394.658"/>
</g>
<!-- \\Setting -->
<g id="node5" class="node"><title>\\Setting</title>
<polygon fill="none" stroke="black" points="751,-1276 687,-1276 687,-1240 751,-1240 751,-1276"/>
<text text-anchor="middle" x="719" y="-1255.2" font-family="Courier,monospace" font-size="11.00">Setting</text>
</g>
<!-- \\Setting&#45;&gt;\\AppModel -->
<g id="edge5" class="edge"><title>\\Setting&#45;&gt;\\AppModel</title>
<path fill="none" stroke="black" d="M686.762,-1260.81C657.657,-1261.53 615.344,-1257.39 592,-1231 472.276,-1095.64 633.058,-561.975 520,-421 510.24,-408.83 494.997,-402.058 480.099,-398.319"/>
<polygon fill="none" stroke="black" points="480.416,-394.809 469.911,-396.186 478.981,-401.661 480.416,-394.809"/>
</g>
<!-- \\Mjpeg -->
<g id="node6" class="node"><title>\\Mjpeg</title>
<polygon fill="none" stroke="black" points="746,-1222 692,-1222 692,-1186 746,-1186 746,-1222"/>
<text text-anchor="middle" x="719" y="-1201.2" font-family="Courier,monospace" font-size="11.00">Mjpeg</text>
</g>
<!-- \\Mjpeg&#45;&gt;\\AppModel -->
<g id="edge6" class="edge"><title>\\Mjpeg&#45;&gt;\\AppModel</title>
<path fill="none" stroke="black" d="M691.909,-1206.6C662.891,-1207.89 616.84,-1204.91 592,-1177 479.795,-1050.94 625.996,-552.32 520,-421 510.202,-408.861 494.951,-402.095 480.056,-398.353"/>
<polygon fill="none" stroke="black" points="480.379,-394.844 469.873,-396.216 478.941,-401.695 480.379,-394.844"/>
</g>
<!-- \\Slot -->
<g id="node7" class="node"><title>\\Slot</title>
<polygon fill="none" stroke="black" points="746,-1168 692,-1168 692,-1132 746,-1132 746,-1168"/>
<text text-anchor="middle" x="719" y="-1147.2" font-family="Courier,monospace" font-size="11.00">Slot</text>
</g>
<!-- \\Slot&#45;&gt;\\AppModel -->
<g id="edge7" class="edge"><title>\\Slot&#45;&gt;\\AppModel</title>
<path fill="none" stroke="black" d="M691.946,-1152.57C662.962,-1153.83 616.941,-1150.82 592,-1123 382.622,-889.486 717.875,-664.338 520,-421 510.158,-408.897 494.898,-402.138 480.008,-398.392"/>
<polygon fill="none" stroke="black" points="480.336,-394.885 469.83,-396.251 478.895,-401.735 480.336,-394.885"/>
</g>
<!-- \\Environment -->
<g id="node8" class="node"><title>\\Environment</title>
<polygon fill="none" stroke="black" points="764.5,-1114 673.5,-1114 673.5,-1078 764.5,-1078 764.5,-1114"/>
<text text-anchor="middle" x="719" y="-1093.2" font-family="Courier,monospace" font-size="11.00">Environment</text>
</g>
<!-- \\Environment&#45;&gt;\\AppModel -->
<g id="edge8" class="edge"><title>\\Environment&#45;&gt;\\AppModel</title>
<path fill="none" stroke="black" d="M673.433,-1098.61C645.937,-1097.64 612.182,-1091.32 592,-1069 397.644,-854.073 703.767,-645.049 520,-421 510.107,-408.939 494.836,-402.189 479.952,-398.438"/>
<polygon fill="none" stroke="black" points="480.287,-394.932 469.78,-396.292 478.842,-401.781 480.287,-394.932"/>
</g>
<!-- \\Tf -->
<g id="node9" class="node"><title>\\Tf</title>
<polygon fill="none" stroke="black" points="746,-1060 692,-1060 692,-1024 746,-1024 746,-1060"/>
<text text-anchor="middle" x="719" y="-1039.2" font-family="Courier,monospace" font-size="11.00">Tf</text>
</g>
<!-- \\Tf&#45;&gt;\\AppModel -->
<g id="edge9" class="edge"><title>\\Tf&#45;&gt;\\AppModel</title>
<path fill="none" stroke="black" d="M691.778,-1044.49C662.864,-1045.65 617.121,-1042.5 592,-1015 412.653,-818.647 689.671,-625.773 520,-421 510.047,-408.988 494.763,-402.249 479.885,-398.493"/>
<polygon fill="none" stroke="black" points="480.229,-394.988 469.721,-396.341 478.779,-401.836 480.229,-394.988"/>
</g>
<!-- \\Im -->
<g id="node10" class="node"><title>\\Im</title>
<polygon fill="none" stroke="black" points="746,-1006 692,-1006 692,-970 746,-970 746,-1006"/>
<text text-anchor="middle" x="719" y="-985.2" font-family="Courier,monospace" font-size="11.00">Im</text>
</g>
<!-- \\Im&#45;&gt;\\AppModel -->
<g id="edge10" class="edge"><title>\\Im&#45;&gt;\\AppModel</title>
<path fill="none" stroke="black" d="M691.838,-990.437C662.978,-991.547 617.284,-988.353 592,-961 427.646,-783.203 675.59,-606.515 520,-421 509.976,-409.048 494.676,-402.321 479.807,-398.558"/>
<polygon fill="none" stroke="black" points="480.16,-395.055 469.651,-396.399 478.704,-401.902 480.16,-395.055"/>
</g>
<!-- \\Page -->
<g id="node11" class="node"><title>\\Page</title>
<polygon fill="none" stroke="black" points="746,-952 692,-952 692,-916 746,-916 746,-952"/>
<text text-anchor="middle" x="719" y="-931.2" font-family="Courier,monospace" font-size="11.00">Page</text>
</g>
<!-- \\Page&#45;&gt;\\AppModel -->
<g id="edge11" class="edge"><title>\\Page&#45;&gt;\\AppModel</title>
<path fill="none" stroke="black" d="M691.911,-936.369C663.117,-937.418 617.482,-934.168 592,-907 442.618,-747.736 661.529,-587.282 520,-421 509.889,-409.121 494.571,-402.41 479.711,-398.639"/>
<polygon fill="none" stroke="black" points="480.077,-395.138 469.566,-396.471 478.614,-401.984 480.077,-395.138"/>
</g>
<!-- \\User -->
<g id="node12" class="node"><title>\\User</title>
<polygon fill="none" stroke="black" points="746,-898 692,-898 692,-862 746,-862 746,-898"/>
<text text-anchor="middle" x="719" y="-877.2" font-family="Courier,monospace" font-size="11.00">User</text>
</g>
<!-- \\User&#45;&gt;\\AppModel -->
<g id="edge12" class="edge"><title>\\User&#45;&gt;\\AppModel</title>
<path fill="none" stroke="black" d="M691.741,-882.293C663.014,-883.236 617.65,-879.856 592,-853 457.561,-712.238 647.496,-568.081 520,-421 509.865,-409.308 494.689,-402.629 479.952,-398.832"/>
<polygon fill="none" stroke="black" points="480.404,-395.349 469.888,-396.638 478.913,-402.188 480.404,-395.349"/>
</g>
<!-- \\Protocol -->
<g id="node13" class="node"><title>\\Protocol</title>
<polygon fill="none" stroke="black" points="754.5,-844 683.5,-844 683.5,-808 754.5,-808 754.5,-844"/>
<text text-anchor="middle" x="719" y="-823.2" font-family="Courier,monospace" font-size="11.00">Protocol</text>
</g>
<!-- \\Protocol&#45;&gt;\\AppModel -->
<g id="edge13" class="edge"><title>\\Protocol&#45;&gt;\\AppModel</title>
<path fill="none" stroke="black" d="M683.431,-828.291C654.945,-828.178 615.534,-823.078 592,-799 472.461,-676.695 633.503,-548.926 520,-421 509.73,-409.425 494.525,-402.773 479.803,-398.964"/>
<polygon fill="none" stroke="black" points="480.272,-395.483 469.754,-396.755 478.77,-402.32 480.272,-395.483"/>
</g>
<!-- \\Model -->
<g id="node66" class="node"><title>\\Model</title>
<ellipse fill="none" stroke="black" cx="224" cy="-72" rx="36.2938" ry="18"/>
<text text-anchor="middle" x="224" y="-68.3" font-family="Times,serif" font-size="14.00" fill="gray">\Model</text>
</g>
<!-- \\AppModel&#45;&gt;\\Model -->
<g id="edge14" class="edge"><title>\\AppModel&#45;&gt;\\Model</title>
<path fill="none" stroke="black" d="M420.262,-375.745C402.784,-350.279 370.928,-302.33 348,-259 310.579,-188.279 332.695,-150.457 276,-94 272.761,-90.7744 268.972,-87.989 264.949,-85.5914"/>
<polygon fill="none" stroke="black" points="266.384,-82.3937 255.889,-80.9417 263.188,-88.6215 266.384,-82.3937"/>
</g>
<!-- \\Log -->
<g id="node15" class="node"><title>\\Log</title>
<polygon fill="none" stroke="black" points="746,-790 692,-790 692,-754 746,-754 746,-790"/>
<text text-anchor="middle" x="719" y="-769.2" font-family="Courier,monospace" font-size="11.00">Log</text>
</g>
<!-- \\Log&#45;&gt;\\AppModel -->
<g id="edge15" class="edge"><title>\\Log&#45;&gt;\\AppModel</title>
<path fill="none" stroke="black" d="M691.746,-774.041C663.241,-774.725 618.28,-771.081 592,-745 487.298,-641.089 619.569,-529.839 520,-421 509.555,-409.583 494.312,-402.965 479.608,-399.139"/>
<polygon fill="none" stroke="black" points="480.101,-395.664 469.58,-396.912 478.583,-402.497 480.101,-395.664"/>
</g>
<!-- \\Urdf -->
<g id="node16" class="node"><title>\\Urdf</title>
<polygon fill="none" stroke="black" points="746,-736 692,-736 692,-700 746,-700 746,-736"/>
<text text-anchor="middle" x="719" y="-715.2" font-family="Courier,monospace" font-size="11.00">Urdf</text>
</g>
<!-- \\Urdf&#45;&gt;\\AppModel -->
<g id="edge16" class="edge"><title>\\Urdf&#45;&gt;\\AppModel</title>
<path fill="none" stroke="black" d="M691.949,-719.833C663.624,-720.331 618.821,-716.525 592,-691 502.035,-605.383 605.732,-510.856 520,-421 509.405,-409.895 494.271,-403.342 479.702,-399.481"/>
<polygon fill="none" stroke="black" points="480.296,-396.027 469.768,-397.215 478.739,-402.851 480.296,-396.027"/>
</g>
<!-- \\Type -->
<g id="node17" class="node"><title>\\Type</title>
<polygon fill="none" stroke="black" points="746,-682 692,-682 692,-646 746,-646 746,-682"/>
<text text-anchor="middle" x="719" y="-661.2" font-family="Courier,monospace" font-size="11.00">Type</text>
</g>
<!-- \\Type&#45;&gt;\\AppModel -->
<g id="edge17" class="edge"><title>\\Type&#45;&gt;\\AppModel</title>
<path fill="none" stroke="black" d="M691.982,-665.523C663.897,-665.718 619.505,-661.618 592,-637 516.598,-569.512 592.06,-492.045 520,-421 509.16,-410.313 494.11,-403.852 479.682,-399.948"/>
<polygon fill="none" stroke="black" points="480.389,-396.518 469.853,-397.633 478.784,-403.332 480.389,-396.518"/>
</g>
<!-- \\Stream -->
<g id="node18" class="node"><title>\\Stream</title>
<polygon fill="none" stroke="black" points="747.5,-628 690.5,-628 690.5,-592 747.5,-592 747.5,-628"/>
<text text-anchor="middle" x="719" y="-607.2" font-family="Courier,monospace" font-size="11.00">Stream</text>
</g>
<!-- \\Stream&#45;&gt;\\AppModel -->
<g id="edge18" class="edge"><title>\\Stream&#45;&gt;\\AppModel</title>
<path fill="none" stroke="black" d="M690.377,-610.983C662.591,-610.526 619.965,-605.699 592,-583 530.825,-533.345 578.709,-473.547 520,-421 508.859,-411.029 494.03,-404.738 479.879,-400.77"/>
<polygon fill="none" stroke="black" points="480.305,-397.27 469.757,-398.272 478.627,-404.067 480.305,-397.27"/>
</g>
<!-- \\Condition -->
<g id="node19" class="node"><title>\\Condition</title>
<polygon fill="none" stroke="black" points="757.5,-574 680.5,-574 680.5,-538 757.5,-538 757.5,-574"/>
<text text-anchor="middle" x="719" y="-553.2" font-family="Courier,monospace" font-size="11.00">Condition</text>
</g>
<!-- \\Condition&#45;&gt;\\AppModel -->
<g id="edge19" class="edge"><title>\\Condition&#45;&gt;\\AppModel</title>
<path fill="none" stroke="black" d="M680.359,-555.284C653.662,-553.121 618.089,-546.731 592,-529 544.288,-496.572 566.093,-455.691 520,-421 508.253,-412.159 493.527,-406.162 479.647,-402.115"/>
<polygon fill="none" stroke="black" points="480.306,-398.67 469.744,-399.501 478.519,-405.438 480.306,-398.67"/>
</g>
<!-- \\Resource -->
<g id="node20" class="node"><title>\\Resource</title>
<polygon fill="none" stroke="black" points="754.5,-520 683.5,-520 683.5,-484 754.5,-484 754.5,-520"/>
<text text-anchor="middle" x="719" y="-499.2" font-family="Courier,monospace" font-size="11.00">Resource</text>
</g>
<!-- \\Resource&#45;&gt;\\AppModel -->
<g id="edge20" class="edge"><title>\\Resource&#45;&gt;\\AppModel</title>
<path fill="none" stroke="black" d="M683.314,-498.648C657.27,-495.177 621.217,-488.304 592,-475 555.596,-458.423 555.562,-439.313 520,-421 507.385,-414.504 492.91,-409.199 479.522,-405.064"/>
<polygon fill="none" stroke="black" points="480.127,-401.594 469.545,-402.131 478.152,-408.31 480.127,-401.594"/>
</g>
<!-- \\Subscription -->
<g id="node21" class="node"><title>\\Subscription</title>
<polygon fill="none" stroke="black" points="768,-466 670,-466 670,-430 768,-430 768,-466"/>
<text text-anchor="middle" x="719" y="-445.2" font-family="Courier,monospace" font-size="11.00">Subscription</text>
</g>
<!-- \\Subscription&#45;&gt;\\AppModel -->
<g id="edge21" class="edge"><title>\\Subscription&#45;&gt;\\AppModel</title>
<path fill="none" stroke="black" d="M669.993,-438.84C616.77,-428.684 531.605,-412.434 479.736,-402.536"/>
<polygon fill="none" stroke="black" points="480.304,-399.082 469.825,-400.645 478.992,-405.957 480.304,-399.082"/>
</g>
<!-- \\Email -->
<g id="node22" class="node"><title>\\Email</title>
<polygon fill="none" stroke="black" points="746,-1816 692,-1816 692,-1780 746,-1780 746,-1816"/>
<text text-anchor="middle" x="719" y="-1795.2" font-family="Courier,monospace" font-size="11.00">Email</text>
</g>
<!-- \\Email&#45;&gt;\\AppModel -->
<g id="edge22" class="edge"><title>\\Email&#45;&gt;\\AppModel</title>
<path fill="none" stroke="black" d="M691.958,-1800.77C662.76,-1802.27 616.326,-1799.5 592,-1771 396.972,-1542.48 703.782,-658.655 520,-421 510.288,-408.441 494.719,-401.611 479.543,-397.935"/>
<polygon fill="none" stroke="black" points="480.188,-394.495 469.693,-395.947 478.803,-401.356 480.188,-394.495"/>
</g>
<!-- \\Teleop -->
<g id="node23" class="node"><title>\\Teleop</title>
<polygon fill="none" stroke="black" points="747.5,-1762 690.5,-1762 690.5,-1726 747.5,-1726 747.5,-1762"/>
<text text-anchor="middle" x="719" y="-1741.2" font-family="Courier,monospace" font-size="11.00">Teleop</text>
</g>
<!-- \\Teleop&#45;&gt;\\AppModel -->
<g id="edge23" class="edge"><title>\\Teleop&#45;&gt;\\AppModel</title>
<path fill="none" stroke="black" d="M690.385,-1746.84C661.126,-1748.14 615.921,-1744.97 592,-1717 404.508,-1497.8 696.705,-648.981 520,-421 510.274,-408.451 494.702,-401.624 479.528,-397.947"/>
<polygon fill="none" stroke="black" points="480.175,-394.507 469.68,-395.957 478.788,-401.368 480.175,-394.507"/>
</g>
<!-- \\Appointment -->
<g id="node24" class="node"><title>\\Appointment</title>
<polygon fill="none" stroke="black" points="764.5,-1708 673.5,-1708 673.5,-1672 764.5,-1672 764.5,-1708"/>
<text text-anchor="middle" x="719" y="-1687.2" font-family="Courier,monospace" font-size="11.00">Appointment</text>
</g>
<!-- \\Appointment&#45;&gt;\\AppModel -->
<g id="edge24" class="edge"><title>\\Appointment&#45;&gt;\\AppModel</title>
<path fill="none" stroke="black" d="M673.339,-1692.97C645.623,-1692.18 611.659,-1685.93 592,-1663 412.043,-1453.13 689.628,-639.308 520,-421 510.259,-408.463 494.684,-401.638 479.512,-397.96"/>
<polygon fill="none" stroke="black" points="480.16,-394.52 469.665,-395.969 478.773,-401.381 480.16,-394.52"/>
</g>
<!-- \\Iface -->
<g id="node25" class="node"><title>\\Iface</title>
<polygon fill="none" stroke="black" points="746,-1654 692,-1654 692,-1618 746,-1618 746,-1654"/>
<text text-anchor="middle" x="719" y="-1633.2" font-family="Courier,monospace" font-size="11.00">Iface</text>
</g>
<!-- \\Iface&#45;&gt;\\AppModel -->
<g id="edge25" class="edge"><title>\\Iface&#45;&gt;\\AppModel</title>
<path fill="none" stroke="black" d="M691.995,-1638.74C662.832,-1640.2 616.429,-1637.41 592,-1609 419.577,-1408.45 682.552,-629.635 520,-421 510.242,-408.476 494.664,-401.653 479.494,-397.973"/>
<polygon fill="none" stroke="black" points="480.145,-394.534 469.649,-395.981 478.756,-401.395 480.145,-394.534"/>
</g>
<!-- \\Study -->
<g id="node26" class="node"><title>\\Study</title>
<polygon fill="none" stroke="black" points="746,-1600 692,-1600 692,-1564 746,-1564 746,-1600"/>
<text text-anchor="middle" x="719" y="-1579.2" font-family="Courier,monospace" font-size="11.00">Study</text>
</g>
<!-- \\Study&#45;&gt;\\AppModel -->
<g id="edge26" class="edge"><title>\\Study&#45;&gt;\\AppModel</title>
<path fill="none" stroke="black" d="M691.748,-1584.74C662.583,-1586.16 616.397,-1583.29 592,-1555 427.11,-1363.76 675.478,-619.964 520,-421 510.224,-408.49 494.643,-401.67 479.475,-397.988"/>
<polygon fill="none" stroke="black" points="480.128,-394.55 469.632,-395.994 478.738,-401.41 480.128,-394.55"/>
</g>
<!-- \\Role -->
<g id="node27" class="node"><title>\\Role</title>
<polygon fill="none" stroke="black" points="746,-1546 692,-1546 692,-1510 746,-1510 746,-1546"/>
<text text-anchor="middle" x="719" y="-1525.2" font-family="Courier,monospace" font-size="11.00">Role</text>
</g>
<!-- \\Role&#45;&gt;\\AppModel -->
<g id="edge27" class="edge"><title>\\Role&#45;&gt;\\AppModel</title>
<path fill="none" stroke="black" d="M691.764,-1530.72C662.614,-1532.14 616.442,-1529.26 592,-1501 434.641,-1319.08 668.404,-610.294 520,-421 510.204,-408.505 494.619,-401.688 479.453,-398.005"/>
<polygon fill="none" stroke="black" points="480.109,-394.567 469.613,-396.009 478.718,-401.427 480.109,-394.567"/>
</g>
<!-- \\AppHelper -->
<g id="node28" class="node"><title>\\AppHelper</title>
<polygon fill="none" stroke="black" points="761,-196 677,-196 677,-160 761,-160 761,-196"/>
<text text-anchor="start" x="685" y="-181.2" font-family="Courier,monospace" font-size="11.00">«abstract»</text>
<text text-anchor="start" x="688.5" y="-169.2" font-family="Courier,monospace" font-size="11.00">AppHelper</text>
</g>
<!-- \\Helper -->
<g id="node67" class="node"><title>\\Helper</title>
<ellipse fill="none" stroke="black" cx="434" cy="-72" rx="37.0935" ry="18"/>
<text text-anchor="middle" x="434" y="-68.3" font-family="Times,serif" font-size="14.00" fill="gray">\Helper</text>
</g>
<!-- \\AppHelper&#45;&gt;\\Helper -->
<g id="edge28" class="edge"><title>\\AppHelper&#45;&gt;\\Helper</title>
<path fill="none" stroke="black" d="M676.754,-173.993C651.378,-170.373 618.713,-163.588 592,-151 555.08,-133.602 556.545,-112.172 520,-94 507.492,-87.7803 493.047,-83.1944 479.654,-79.8696"/>
<polygon fill="none" stroke="black" points="480.198,-76.4033 469.668,-77.5668 478.625,-83.2243 480.198,-76.4033"/>
</g>
<!-- \\RmsHelper -->
<g id="node29" class="node"><title>\\RmsHelper</title>
<polygon fill="none" stroke="black" points="757.5,-142 680.5,-142 680.5,-106 757.5,-106 757.5,-142"/>
<text text-anchor="middle" x="719" y="-121.2" font-family="Courier,monospace" font-size="11.00">RmsHelper</text>
</g>
<!-- \\RmsHelper&#45;&gt;\\Helper -->
<g id="edge29" class="edge"><title>\\RmsHelper&#45;&gt;\\Helper</title>
<path fill="none" stroke="black" d="M680.42,-117.095C628.331,-107.524 534.371,-90.2589 479.05,-80.094"/>
<polygon fill="none" stroke="black" points="479.657,-76.647 469.189,-78.2821 478.392,-83.5318 479.657,-76.647"/>
</g>
<!-- \\EmailConfig -->
<g id="node30" class="node"><title>\\EmailConfig</title>
<polygon fill="none" stroke="black" points="764.5,-412 673.5,-412 673.5,-376 764.5,-376 764.5,-412"/>
<text text-anchor="middle" x="719" y="-391.2" font-family="Courier,monospace" font-size="11.00">EmailConfig</text>
</g>
<!-- \\DATABASE_CONFIG -->
<g id="node31" class="node"><title>\\DATABASE_CONFIG</title>
<polygon fill="none" stroke="black" points="778,-358 660,-358 660,-322 778,-322 778,-358"/>
<text text-anchor="middle" x="719" y="-337.2" font-family="Courier,monospace" font-size="11.00">DATABASE_CONFIG</text>
</g>
<!-- \\BasicInterfaceController -->
<g id="node32" class="node"><title>\\BasicInterfaceController</title>
<polygon fill="none" stroke="black" points="808.5,-1924 629.5,-1924 629.5,-1888 808.5,-1888 808.5,-1924"/>
<text text-anchor="middle" x="719" y="-1903.2" font-family="Courier,monospace" font-size="11.00">BasicInterfaceController</text>
</g>
<!-- \\InterfaceController -->
<g id="node49" class="node"><title>\\InterfaceController</title>
<polygon fill="none" stroke="black" points="506.5,-1168 361.5,-1168 361.5,-1132 506.5,-1132 506.5,-1168"/>
<text text-anchor="start" x="400" y="-1153.2" font-family="Courier,monospace" font-size="11.00">«abstract»</text>
<text text-anchor="start" x="369.5" y="-1141.2" font-family="Courier,monospace" font-size="11.00">InterfaceController</text>
</g>
<!-- \\BasicInterfaceController&#45;&gt;\\InterfaceController -->
<g id="edge30" class="edge"><title>\\BasicInterfaceController&#45;&gt;\\InterfaceController</title>
<path fill="none" stroke="black" d="M629.416,-1901.73C615.206,-1897.22 601.932,-1890.08 592,-1879 382.622,-1645.49 717.875,-1420.34 520,-1177 518.492,-1175.15 516.857,-1173.42 515.115,-1171.8"/>
<polygon fill="none" stroke="black" points="516.923,-1168.78 506.862,-1165.46 512.658,-1174.33 516.923,-1168.78"/>
</g>
<!-- \\StreamsController -->
<g id="node33" class="node"><title>\\StreamsController</title>
<polygon fill="none" stroke="black" points="499.5,-1816 368.5,-1816 368.5,-1780 499.5,-1780 499.5,-1816"/>
<text text-anchor="middle" x="434" y="-1795.2" font-family="Courier,monospace" font-size="11.00">StreamsController</text>
</g>
<!-- \\AppController -->
<g id="node52" class="node"><title>\\AppController</title>
<polygon fill="none" stroke="black" points="276,-1195 172,-1195 172,-1159 276,-1159 276,-1195"/>
<text text-anchor="start" x="190" y="-1180.2" font-family="Courier,monospace" font-size="11.00">«abstract»</text>
<text text-anchor="start" x="180" y="-1168.2" font-family="Courier,monospace" font-size="11.00">AppController</text>
</g>
<!-- \\StreamsController&#45;&gt;\\AppController -->
<g id="edge31" class="edge"><title>\\StreamsController&#45;&gt;\\AppController</title>
<path fill="none" stroke="black" d="M368.208,-1785.7C360.618,-1782 353.599,-1777.21 348,-1771 270.78,-1685.35 235.664,-1311.54 227.126,-1205.27"/>
<polygon fill="none" stroke="black" points="230.593,-1204.71 226.319,-1195.02 223.615,-1205.26 230.593,-1204.71"/>
</g>
<!-- \\GlobalController -->
<g id="node34" class="node"><title>\\GlobalController</title>
<polygon fill="none" stroke="black" points="496.5,-1762 371.5,-1762 371.5,-1726 496.5,-1726 496.5,-1762"/>
<text text-anchor="middle" x="434" y="-1741.2" font-family="Courier,monospace" font-size="11.00">GlobalController</text>
</g>
<!-- \\GlobalController&#45;&gt;\\AppController -->
<g id="edge32" class="edge"><title>\\GlobalController&#45;&gt;\\AppController</title>
<path fill="none" stroke="black" d="M371.307,-1732.97C362.566,-1729.12 354.394,-1723.95 348,-1717 277.343,-1640.17 238.064,-1305.26 227.761,-1205.28"/>
<polygon fill="none" stroke="black" points="231.215,-1204.65 226.725,-1195.05 224.251,-1205.35 231.215,-1204.65"/>
</g>
<!-- \\LogsController -->
<g id="node35" class="node"><title>\\LogsController</title>
<polygon fill="none" stroke="black" points="489.5,-1708 378.5,-1708 378.5,-1672 489.5,-1672 489.5,-1708"/>
<text text-anchor="middle" x="434" y="-1687.2" font-family="Courier,monospace" font-size="11.00">LogsController</text>
</g>
<!-- \\LogsController&#45;&gt;\\AppController -->
<g id="edge33" class="edge"><title>\\LogsController&#45;&gt;\\AppController</title>
<path fill="none" stroke="black" d="M378.434,-1681.59C367.122,-1677.58 356.175,-1671.68 348,-1663 283.848,-1594.9 240.699,-1298.43 228.52,-1205.18"/>
<polygon fill="none" stroke="black" points="231.968,-1204.56 227.219,-1195.09 225.026,-1205.45 231.968,-1204.56"/>
</g>
<!-- \\AppointmentsController -->
<g id="node36" class="node"><title>\\AppointmentsController</title>
<polygon fill="none" stroke="black" points="516.5,-1654 351.5,-1654 351.5,-1618 516.5,-1618 516.5,-1654"/>
<text text-anchor="middle" x="434" y="-1633.2" font-family="Courier,monospace" font-size="11.00">AppointmentsController</text>
</g>
<!-- \\AppointmentsController&#45;&gt;\\AppController -->
<g id="edge34" class="edge"><title>\\AppointmentsController&#45;&gt;\\AppController</title>
<path fill="none" stroke="black" d="M358.791,-1617.82C354.878,-1615.26 351.235,-1612.33 348,-1609 235.429,-1492.98 224.517,-1281.58 224.439,-1205.35"/>
<polygon fill="none" stroke="black" points="227.94,-1205.13 224.495,-1195.11 220.94,-1205.09 227.94,-1205.13"/>
</g>
<!-- \\StudiesController -->
<g id="node37" class="node"><title>\\StudiesController</title>
<polygon fill="none" stroke="black" points="499.5,-1600 368.5,-1600 368.5,-1564 499.5,-1564 499.5,-1600"/>
<text text-anchor="middle" x="434" y="-1579.2" font-family="Courier,monospace" font-size="11.00">StudiesController</text>
</g>
<!-- \\StudiesController&#45;&gt;\\AppController -->
<g id="edge35" class="edge"><title>\\StudiesController&#45;&gt;\\AppController</title>
<path fill="none" stroke="black" d="M368.406,-1568.9C360.878,-1565.33 353.823,-1560.78 348,-1555 248.294,-1455.99 229.383,-1275.36 225.818,-1205.58"/>
<polygon fill="none" stroke="black" points="229.305,-1205.19 225.368,-1195.36 222.312,-1205.5 229.305,-1205.19"/>
</g>
<!-- \\MjpegsController -->
<g id="node38" class="node"><title>\\MjpegsController</title>
<polygon fill="none" stroke="black" points="496.5,-1546 371.5,-1546 371.5,-1510 496.5,-1510 496.5,-1546"/>
<text text-anchor="middle" x="434" y="-1525.2" font-family="Courier,monospace" font-size="11.00">MjpegsController</text>
</g>
<!-- \\MjpegsController&#45;&gt;\\AppController -->
<g id="edge36" class="edge"><title>\\MjpegsController&#45;&gt;\\AppController</title>
<path fill="none" stroke="black" d="M371.252,-1515.8C362.727,-1512.1 354.636,-1507.28 348,-1501 260.803,-1418.49 234.811,-1267.79 227.586,-1205.3"/>
<polygon fill="none" stroke="black" points="231.031,-1204.61 226.479,-1195.04 224.072,-1205.36 231.031,-1204.61"/>
</g>
<!-- \\ExperimentController -->
<g id="node39" class="node"><title>\\ExperimentController</title>
<polygon fill="none" stroke="black" points="510,-1492 358,-1492 358,-1456 510,-1456 510,-1492"/>
<text text-anchor="middle" x="434" y="-1471.2" font-family="Courier,monospace" font-size="11.00">ExperimentController</text>
</g>
<!-- \\ExperimentController&#45;&gt;\\AppController -->
<g id="edge37" class="edge"><title>\\ExperimentController&#45;&gt;\\AppController</title>
<path fill="none" stroke="black" d="M360.576,-1455.95C356.073,-1453.35 351.823,-1450.39 348,-1447 273.209,-1380.68 241.128,-1259.75 229.982,-1205.12"/>
<polygon fill="none" stroke="black" points="233.379,-1204.26 228.026,-1195.11 226.509,-1205.6 233.379,-1204.26"/>
</g>
<!-- \\SubscriptionsController -->
<g id="node40" class="node"><title>\\SubscriptionsController</title>
<polygon fill="none" stroke="black" points="520,-1438 348,-1438 348,-1402 520,-1402 520,-1438"/>
<text text-anchor="middle" x="434" y="-1417.2" font-family="Courier,monospace" font-size="11.00">SubscriptionsController</text>
</g>
<!-- \\SubscriptionsController&#45;&gt;\\AppController -->
<g id="edge38" class="edge"><title>\\SubscriptionsController&#45;&gt;\\AppController</title>
<path fill="none" stroke="black" d="M361.75,-1402C356.862,-1399.39 352.213,-1396.41 348,-1393 285.314,-1342.27 248.606,-1250.51 233.351,-1204.65"/>
<polygon fill="none" stroke="black" points="236.661,-1203.51 230.256,-1195.07 230,-1205.66 236.661,-1203.51"/>
</g>
<!-- \\EmailsController -->
<g id="node41" class="node"><title>\\EmailsController</title>
<polygon fill="none" stroke="black" points="496.5,-1384 371.5,-1384 371.5,-1348 496.5,-1348 496.5,-1384"/>
<text text-anchor="middle" x="434" y="-1363.2" font-family="Courier,monospace" font-size="11.00">EmailsController</text>
</g>
<!-- \\EmailsController&#45;&gt;\\AppController -->
<g id="edge39" class="edge"><title>\\EmailsController&#45;&gt;\\AppController</title>
<path fill="none" stroke="black" d="M371.395,-1351.46C363.137,-1348.1 355.085,-1344 348,-1339 297.278,-1303.21 258.217,-1240.18 238.72,-1204.2"/>
<polygon fill="none" stroke="black" points="241.745,-1202.44 233.967,-1195.24 235.561,-1205.72 241.745,-1202.44"/>
</g>
<!-- \\ResourcesController -->
<g id="node42" class="node"><title>\\ResourcesController</title>
<polygon fill="none" stroke="black" points="506.5,-1330 361.5,-1330 361.5,-1294 506.5,-1294 506.5,-1330"/>
<text text-anchor="middle" x="434" y="-1309.2" font-family="Courier,monospace" font-size="11.00">ResourcesController</text>
</g>
<!-- \\ResourcesController&#45;&gt;\\AppController -->
<g id="edge40" class="edge"><title>\\ResourcesController&#45;&gt;\\AppController</title>
<path fill="none" stroke="black" d="M366.429,-1293.83C360.045,-1291.21 353.797,-1288.27 348,-1285 308.925,-1262.93 271.256,-1227 248.126,-1202.7"/>
<polygon fill="none" stroke="black" points="250.536,-1200.15 241.144,-1195.25 245.429,-1204.94 250.536,-1200.15"/>
</g>
<!-- \\MarkersController -->
<g id="node43" class="node"><title>\\MarkersController</title>
<polygon fill="none" stroke="black" points="499.5,-1276 368.5,-1276 368.5,-1240 499.5,-1240 499.5,-1276"/>
<text text-anchor="middle" x="434" y="-1255.2" font-family="Courier,monospace" font-size="11.00">MarkersController</text>
</g>
<!-- \\MarkersController&#45;&gt;\\AppController -->
<g id="edge41" class="edge"><title>\\MarkersController&#45;&gt;\\AppController</title>
<path fill="none" stroke="black" d="M373.278,-1239.91C364.744,-1237.07 356.113,-1234.06 348,-1231 322.796,-1221.5 295.298,-1209.57 272.705,-1199.35"/>
<polygon fill="none" stroke="black" points="273.895,-1196.05 263.344,-1195.09 270.993,-1202.42 273.895,-1196.05"/>
</g>
<!-- \\UsersController -->
<g id="node44" class="node"><title>\\UsersController</title>
<polygon fill="none" stroke="black" points="493,-1222 375,-1222 375,-1186 493,-1186 493,-1222"/>
<text text-anchor="middle" x="434" y="-1201.2" font-family="Courier,monospace" font-size="11.00">UsersController</text>
</g>
<!-- \\UsersController&#45;&gt;\\AppController -->
<g id="edge42" class="edge"><title>\\UsersController&#45;&gt;\\AppController</title>
<path fill="none" stroke="black" d="M374.784,-1196.44C347.168,-1192.86 314.171,-1188.58 286.185,-1184.94"/>
<polygon fill="none" stroke="black" points="286.488,-1181.45 276.121,-1183.64 285.587,-1188.39 286.488,-1181.45"/>
</g>
<!-- \\InteractiveWorldInterfaceController -->
<g id="node45" class="node"><title>\\InteractiveWorldInterfaceController</title>
<polygon fill="none" stroke="black" points="845.5,-1870 592.5,-1870 592.5,-1834 845.5,-1834 845.5,-1870"/>
<text text-anchor="middle" x="719" y="-1849.2" font-family="Courier,monospace" font-size="11.00">InteractiveWorldInterfaceController</text>
</g>
<!-- \\InteractiveWorldInterfaceController&#45;&gt;\\InterfaceController -->
<g id="edge43" class="edge"><title>\\InteractiveWorldInterfaceController&#45;&gt;\\InterfaceController</title>
<path fill="none" stroke="black" d="M601.838,-1833.93C598.302,-1831.28 595.001,-1828.32 592,-1825 397.644,-1610.07 703.767,-1401.05 520,-1177 518.484,-1175.15 516.842,-1173.43 515.094,-1171.82"/>
<polygon fill="none" stroke="black" points="516.89,-1168.79 506.82,-1165.5 512.638,-1174.35 516.89,-1168.79"/>
</g>
<!-- \\WidgetController -->
<g id="node46" class="node"><title>\\WidgetController</title>
<polygon fill="none" stroke="black" points="496.5,-1114 371.5,-1114 371.5,-1078 496.5,-1078 496.5,-1114"/>
<text text-anchor="middle" x="434" y="-1093.2" font-family="Courier,monospace" font-size="11.00">WidgetController</text>
</g>
<!-- \\WidgetController&#45;&gt;\\AppController -->
<g id="edge44" class="edge"><title>\\WidgetController&#45;&gt;\\AppController</title>
<path fill="none" stroke="black" d="M373.278,-1114.09C364.744,-1116.93 356.113,-1119.94 348,-1123 322.796,-1132.5 295.298,-1144.43 272.705,-1154.65"/>
<polygon fill="none" stroke="black" points="270.993,-1151.58 263.344,-1158.91 273.895,-1157.95 270.993,-1151.58"/>
</g>
<!-- \\SettingsController -->
<g id="node47" class="node"><title>\\SettingsController</title>
<polygon fill="none" stroke="black" points="503,-1060 365,-1060 365,-1024 503,-1024 503,-1060"/>
<text text-anchor="middle" x="434" y="-1039.2" font-family="Courier,monospace" font-size="11.00">SettingsController</text>
</g>
<!-- \\SettingsController&#45;&gt;\\AppController -->
<g id="edge45" class="edge"><title>\\SettingsController&#45;&gt;\\AppController</title>
<path fill="none" stroke="black" d="M366.429,-1060.17C360.045,-1062.79 353.797,-1065.73 348,-1069 308.925,-1091.07 271.256,-1127 248.126,-1151.3"/>
<polygon fill="none" stroke="black" points="245.429,-1149.06 241.144,-1158.75 250.536,-1153.85 245.429,-1149.06"/>
</g>
<!-- \\SlotsController -->
<g id="node48" class="node"><title>\\SlotsController</title>
<polygon fill="none" stroke="black" points="493,-1006 375,-1006 375,-970 493,-970 493,-1006"/>
<text text-anchor="middle" x="434" y="-985.2" font-family="Courier,monospace" font-size="11.00">SlotsController</text>
</g>
<!-- \\SlotsController&#45;&gt;\\AppController -->
<g id="edge46" class="edge"><title>\\SlotsController&#45;&gt;\\AppController</title>
<path fill="none" stroke="black" d="M374.945,-1001.14C365.458,-1004.74 356.097,-1009.29 348,-1015 297.278,-1050.79 258.217,-1113.82 238.72,-1149.8"/>
<polygon fill="none" stroke="black" points="235.561,-1148.28 233.967,-1158.76 241.745,-1151.56 235.561,-1148.28"/>
</g>
<!-- \\InterfaceController&#45;&gt;\\AppController -->
<g id="edge47" class="edge"><title>\\InterfaceController&#45;&gt;\\AppController</title>
<path fill="none" stroke="black" d="M361.418,-1159.29C336.953,-1162.47 309.828,-1165.99 286.252,-1169.05"/>
<polygon fill="none" stroke="black" points="285.505,-1165.62 276.039,-1170.37 286.406,-1172.56 285.505,-1165.62"/>
</g>
<!-- \\RosbridgesController -->
<g id="node50" class="node"><title>\\RosbridgesController</title>
<polygon fill="none" stroke="black" points="510,-952 358,-952 358,-916 510,-916 510,-952"/>
<text text-anchor="middle" x="434" y="-931.2" font-family="Courier,monospace" font-size="11.00">RosbridgesController</text>
</g>
<!-- \\RosbridgesController&#45;&gt;\\AppController -->
<g id="edge48" class="edge"><title>\\RosbridgesController&#45;&gt;\\AppController</title>
<path fill="none" stroke="black" d="M361.75,-952.002C356.862,-954.609 352.213,-957.591 348,-961 285.314,-1011.73 248.606,-1103.49 233.351,-1149.35"/>
<polygon fill="none" stroke="black" points="230,-1148.34 230.256,-1158.93 236.661,-1150.49 230,-1148.34"/>
</g>
<!-- \\TfsController -->
<g id="node51" class="node"><title>\\TfsController</title>
<polygon fill="none" stroke="black" points="486,-898 382,-898 382,-862 486,-862 486,-898"/>
<text text-anchor="middle" x="434" y="-877.2" font-family="Courier,monospace" font-size="11.00">TfsController</text>
</g>
<!-- \\TfsController&#45;&gt;\\AppController -->
<g id="edge49" class="edge"><title>\\TfsController&#45;&gt;\\AppController</title>
<path fill="none" stroke="black" d="M381.742,-888.789C369.634,-892.779 357.5,-898.576 348,-907 273.209,-973.322 241.128,-1094.25 229.982,-1148.88"/>
<polygon fill="none" stroke="black" points="226.509,-1148.4 228.026,-1158.89 233.379,-1149.74 226.509,-1148.4"/>
</g>
<!-- \\Controller -->
<g id="node68" class="node"><title>\\Controller</title>
<ellipse fill="none" stroke="black" cx="50" cy="-1177" rx="49.2915" ry="18"/>
<text text-anchor="middle" x="50" y="-1173.3" font-family="Times,serif" font-size="14.00" fill="gray">\Controller</text>
</g>
<!-- \\AppController&#45;&gt;\\Controller -->
<g id="edge50" class="edge"><title>\\AppController&#45;&gt;\\Controller</title>
<path fill="none" stroke="black" d="M171.86,-1177C152.291,-1177 129.824,-1177 109.611,-1177"/>
<polygon fill="none" stroke="black" points="109.583,-1173.5 99.5834,-1177 109.583,-1180.5 109.583,-1173.5"/>
</g>
<!-- \\TeleopsController -->
<g id="node53" class="node"><title>\\TeleopsController</title>
<polygon fill="none" stroke="black" points="499.5,-844 368.5,-844 368.5,-808 499.5,-808 499.5,-844"/>
<text text-anchor="middle" x="434" y="-823.2" font-family="Courier,monospace" font-size="11.00">TeleopsController</text>
</g>
<!-- \\TeleopsController&#45;&gt;\\AppController -->
<g id="edge51" class="edge"><title>\\TeleopsController&#45;&gt;\\AppController</title>
<path fill="none" stroke="black" d="M368.238,-839.569C360.828,-843.067 353.848,-847.466 348,-853 260.803,-935.508 234.811,-1086.21 227.586,-1148.7"/>
<polygon fill="none" stroke="black" points="224.072,-1148.64 226.479,-1158.96 231.031,-1149.39 224.072,-1148.64"/>
</g>
<!-- \\RosController -->
<g id="node54" class="node"><title>\\RosController</title>
<polygon fill="none" stroke="black" points="486,-790 382,-790 382,-754 486,-754 486,-790"/>
<text text-anchor="middle" x="434" y="-769.2" font-family="Courier,monospace" font-size="11.00">RosController</text>
</g>
<!-- \\RosController&#45;&gt;\\AppController -->
<g id="edge52" class="edge"><title>\\RosController&#45;&gt;\\AppController</title>
<path fill="none" stroke="black" d="M381.947,-779.776C369.553,-783.778 357.229,-789.836 348,-799 248.294,-898.008 229.383,-1078.64 225.818,-1148.42"/>
<polygon fill="none" stroke="black" points="222.312,-1148.5 225.368,-1158.64 229.305,-1148.81 222.312,-1148.5"/>
</g>
<!-- \\ImsController -->
<g id="node55" class="node"><title>\\ImsController</title>
<polygon fill="none" stroke="black" points="486,-736 382,-736 382,-700 486,-700 486,-736"/>
<text text-anchor="middle" x="434" y="-715.2" font-family="Courier,monospace" font-size="11.00">ImsController</text>
</g>
<!-- \\ImsController&#45;&gt;\\AppController -->
<g id="edge53" class="edge"><title>\\ImsController&#45;&gt;\\AppController</title>
<path fill="none" stroke="black" d="M381.714,-725.546C369.322,-729.55 357.057,-735.665 348,-745 235.429,-861.021 224.517,-1072.42 224.439,-1148.65"/>
<polygon fill="none" stroke="black" points="220.94,-1148.91 224.495,-1158.89 227.94,-1148.87 220.94,-1148.91"/>
</g>
<!-- \\ArticlesController -->
<g id="node56" class="node"><title>\\ArticlesController</title>
<polygon fill="none" stroke="black" points="503,-682 365,-682 365,-646 503,-646 503,-682"/>
<text text-anchor="middle" x="434" y="-661.2" font-family="Courier,monospace" font-size="11.00">ArticlesController</text>
</g>
<!-- \\ArticlesController&#45;&gt;\\AppController -->
<g id="edge54" class="edge"><title>\\ArticlesController&#45;&gt;\\AppController</title>
<path fill="none" stroke="black" d="M364.693,-678.454C358.502,-681.805 352.778,-685.928 348,-691 283.848,-759.1 240.699,-1055.57 228.52,-1148.82"/>
<polygon fill="none" stroke="black" points="225.026,-1148.55 227.219,-1158.91 231.968,-1149.44 225.026,-1148.55"/>
</g>
<!-- \\EnvironmentsController -->
<g id="node57" class="node"><title>\\EnvironmentsController</title>
<polygon fill="none" stroke="black" points="516.5,-628 351.5,-628 351.5,-592 516.5,-592 516.5,-628"/>
<text text-anchor="middle" x="434" y="-607.2" font-family="Courier,monospace" font-size="11.00">EnvironmentsController</text>
</g>
<!-- \\EnvironmentsController&#45;&gt;\\AppController -->
<g id="edge55" class="edge"><title>\\EnvironmentsController&#45;&gt;\\AppController</title>
<path fill="none" stroke="black" d="M358.195,-628.243C354.481,-630.792 351.04,-633.695 348,-637 277.343,-713.826 238.064,-1048.74 227.761,-1148.72"/>
<polygon fill="none" stroke="black" points="224.251,-1148.65 226.725,-1158.95 231.215,-1149.35 224.251,-1148.65"/>
</g>
<!-- \\PagesController -->
<g id="node58" class="node"><title>\\PagesController</title>
<polygon fill="none" stroke="black" points="493,-574 375,-574 375,-538 493,-538 493,-574"/>
<text text-anchor="middle" x="434" y="-553.2" font-family="Courier,monospace" font-size="11.00">PagesController</text>
</g>
<!-- \\PagesController&#45;&gt;\\AppController -->
<g id="edge56" class="edge"><title>\\PagesController&#45;&gt;\\AppController</title>
<path fill="none" stroke="black" d="M374.648,-565.471C364.627,-569.446 355.154,-575.065 348,-583 270.78,-668.646 235.664,-1042.46 227.126,-1148.73"/>
<polygon fill="none" stroke="black" points="223.615,-1148.74 226.319,-1158.98 230.593,-1149.29 223.615,-1148.74"/>
</g>
<!-- \\ConditionsController -->
<g id="node59" class="node"><title>\\ConditionsController</title>
<polygon fill="none" stroke="black" points="510,-520 358,-520 358,-484 510,-484 510,-520"/>
<text text-anchor="middle" x="434" y="-499.2" font-family="Courier,monospace" font-size="11.00">ConditionsController</text>
</g>
<!-- \\ConditionsController&#45;&gt;\\AppController -->
<g id="edge57" class="edge"><title>\\ConditionsController&#45;&gt;\\AppController</title>
<path fill="none" stroke="black" d="M358.052,-520.114C354.374,-522.695 350.979,-525.64 348,-529 264.186,-623.526 233.476,-1036.51 226.594,-1148.76"/>
<polygon fill="none" stroke="black" points="223.088,-1148.75 225.984,-1158.95 230.075,-1149.17 223.088,-1148.75"/>
</g>
<!-- \\UrdfsController -->
<g id="node60" class="node"><title>\\UrdfsController</title>
<polygon fill="none" stroke="black" points="493,-466 375,-466 375,-430 493,-430 493,-466"/>
<text text-anchor="middle" x="434" y="-445.2" font-family="Courier,monospace" font-size="11.00">UrdfsController</text>
</g>
<!-- \\UrdfsController&#45;&gt;\\AppController -->
<g id="edge58" class="edge"><title>\\UrdfsController&#45;&gt;\\AppController</title>
<path fill="none" stroke="black" d="M374.887,-457.125C364.721,-461.123 355.133,-466.84 348,-475 257.583,-578.436 231.477,-1030.66 226.144,-1148.72"/>
<polygon fill="none" stroke="black" points="222.645,-1148.64 225.705,-1158.78 229.638,-1148.94 222.645,-1148.64"/>
</g>
<!-- \\IfacesController -->
<g id="node61" class="node"><title>\\IfacesController</title>
<polygon fill="none" stroke="black" points="496.5,-1924 371.5,-1924 371.5,-1888 496.5,-1888 496.5,-1924"/>
<text text-anchor="middle" x="434" y="-1903.2" font-family="Courier,monospace" font-size="11.00">IfacesController</text>
</g>
<!-- \\IfacesController&#45;&gt;\\AppController -->
<g id="edge59" class="edge"><title>\\IfacesController&#45;&gt;\\AppController</title>
<path fill="none" stroke="black" d="M371.427,-1895.44C362.561,-1891.54 354.318,-1886.23 348,-1879 257.583,-1775.56 231.477,-1323.34 226.144,-1205.28"/>
<polygon fill="none" stroke="black" points="229.638,-1205.06 225.705,-1195.22 222.645,-1205.36 229.638,-1205.06"/>
</g>
<!-- \\ContentController -->
<g id="node62" class="node"><title>\\ContentController</title>
<polygon fill="none" stroke="black" points="499.5,-1870 368.5,-1870 368.5,-1834 499.5,-1834 499.5,-1870"/>
<text text-anchor="middle" x="434" y="-1849.2" font-family="Courier,monospace" font-size="11.00">ContentController</text>
</g>
<!-- \\ContentController&#45;&gt;\\AppController -->
<g id="edge60" class="edge"><title>\\ContentController&#45;&gt;\\AppController</title>
<path fill="none" stroke="black" d="M368.112,-1839.78C360.536,-1836.07 353.547,-1831.26 348,-1825 264.186,-1730.47 233.476,-1317.49 226.594,-1205.24"/>
<polygon fill="none" stroke="black" points="230.075,-1204.83 225.984,-1195.05 223.088,-1205.25 230.075,-1204.83"/>
</g>
<!-- \\AppShell -->
<g id="node63" class="node"><title>\\AppShell</title>
<polygon fill="none" stroke="black" points="469.5,-250 398.5,-250 398.5,-214 469.5,-214 469.5,-250"/>
<text text-anchor="middle" x="434" y="-229.2" font-family="Courier,monospace" font-size="11.00">AppShell</text>
</g>
<!-- \\Shell -->
<g id="node69" class="node"><title>\\Shell</title>
<ellipse fill="none" stroke="black" cx="224" cy="-18" rx="31.3957" ry="18"/>
<text text-anchor="middle" x="224" y="-14.3" font-family="Times,serif" font-size="14.00" fill="gray">\Shell</text>
</g>
<!-- \\AppShell&#45;&gt;\\Shell -->
<g id="edge61" class="edge"><title>\\AppShell&#45;&gt;\\Shell</title>
<path fill="none" stroke="black" d="M421.274,-213.781C397.439,-177.843 340.129,-96.8205 276,-45 270.66,-40.6848 264.524,-36.745 258.401,-33.2889"/>
<polygon fill="none" stroke="black" points="260.008,-30.1794 249.534,-28.584 256.727,-36.3629 260.008,-30.1794"/>
</g>
<!-- \\ReminderShell -->
<g id="node64" class="node"><title>\\ReminderShell</title>
<polygon fill="none" stroke="black" points="771,-304 667,-304 667,-268 771,-268 771,-304"/>
<text text-anchor="middle" x="719" y="-283.2" font-family="Courier,monospace" font-size="11.00">ReminderShell</text>
</g>
<!-- \\ReminderShell&#45;&gt;\\AppShell -->
<g id="edge62" class="edge"><title>\\ReminderShell&#45;&gt;\\AppShell</title>
<path fill="none" stroke="black" d="M666.751,-276.221C613.403,-266.042 530.681,-250.257 479.843,-240.557"/>
<polygon fill="none" stroke="black" points="480.289,-237.079 469.81,-238.642 478.977,-243.955 480.289,-237.079"/>
</g>
<!-- \\UpdateShell -->
<g id="node65" class="node"><title>\\UpdateShell</title>
<polygon fill="none" stroke="black" points="764.5,-250 673.5,-250 673.5,-214 764.5,-214 764.5,-250"/>
<text text-anchor="middle" x="719" y="-229.2" font-family="Courier,monospace" font-size="11.00">UpdateShell</text>
</g>
<!-- \\UpdateShell&#45;&gt;\\AppShell -->
<g id="edge63" class="edge"><title>\\UpdateShell&#45;&gt;\\AppShell</title>
<path fill="none" stroke="black" d="M673.47,-232C620.644,-232 533.074,-232 480.03,-232"/>
<polygon fill="none" stroke="black" points="479.902,-228.5 469.902,-232 479.902,-235.5 479.902,-228.5"/>
</g>
</g>
</svg>
