<?xml version="1.0" encoding="UTF-8" standalone="no"?>
<!DOCTYPE svg PUBLIC "-//W3C//DTD SVG 1.1//EN"
 "http://www.w3.org/Graphics/SVG/1.1/DTD/svg11.dtd">
<!-- Generated by graphviz version 2.36.0 (20140111.2315)
 -->
<!-- Title: G Pages: 1 -->
<svg width="722pt" height="2022pt"
 viewBox="0.00 0.00 722.00 2022.00" xmlns="http://www.w3.org/2000/svg" xmlns:xlink="http://www.w3.org/1999/xlink">
<g id="graph0" class="graph" transform="scale(1 1) rotate(0) translate(4 2018)">
<title>G</title>
<polygon fill="white" stroke="none" points="-4,4 -4,-2018 718,-2018 718,4 -4,4"/>
<g id="clust1" class="cluster"><title>cluster_Global</title>
<path fill="none" stroke="gray" d="M176,-98C176,-98 694,-98 694,-98 700,-98 706,-104 706,-110 706,-110 706,-1994 706,-1994 706,-2000 700,-2006 694,-2006 694,-2006 176,-2006 176,-2006 170,-2006 164,-2000 164,-1994 164,-1994 164,-110 164,-110 164,-104 170,-98 176,-98"/>
<text text-anchor="middle" x="435" y="-1993.2" font-family="Times,serif" font-size="11.00" fill="gray">Global</text>
</g>
<!-- \\ReminderShell -->
<g id="node1" class="node"><title>\\ReminderShell</title>
<polygon fill="none" stroke="black" points="650.5,-1816 567.5,-1816 567.5,-1780 650.5,-1780 650.5,-1816"/>
<text text-anchor="middle" x="609" y="-1795.2" font-family="Times,serif" font-size="11.00">ReminderShell</text>
</g>
<!-- \\AppShell -->
<g id="node2" class="node"><title>\\AppShell</title>
<polygon fill="none" stroke="black" points="415,-466 357,-466 357,-430 415,-430 415,-466"/>
<text text-anchor="middle" x="386" y="-445.2" font-family="Times,serif" font-size="11.00">AppShell</text>
</g>
<!-- \\ReminderShell&#45;&gt;\\AppShell -->
<g id="edge1" class="edge"><title>\\ReminderShell&#45;&gt;\\AppShell</title>
<path fill="none" stroke="black" d="M567.177,-1795.53C549.911,-1792.27 531.232,-1785.34 520,-1771 342.172,-1543.89 612.008,-712.279 448,-475 442.38,-466.869 433.726,-461.158 424.687,-457.158"/>
<polygon fill="none" stroke="black" points="425.83,-453.848 415.239,-453.579 423.35,-460.394 425.83,-453.848"/>
</g>
<!-- \\Shell -->
<g id="node67" class="node"><title>\\Shell</title>
<ellipse fill="none" stroke="black" cx="212" cy="-72" rx="31.3957" ry="18"/>
<text text-anchor="middle" x="212" y="-68.3" font-family="Times,serif" font-size="14.00" fill="gray">\Shell</text>
</g>
<!-- \\AppShell&#45;&gt;\\Shell -->
<g id="edge2" class="edge"><title>\\AppShell&#45;&gt;\\Shell</title>
<path fill="none" stroke="black" d="M356.918,-441.622C345.14,-437.579 332.284,-431.131 324,-421 229.802,-305.794 340.508,-213.633 252,-94 250.422,-91.8674 248.572,-89.9124 246.55,-88.1256"/>
<polygon fill="none" stroke="black" points="248.274,-85.0534 238.114,-82.0475 244.182,-90.7329 248.274,-85.0534"/>
</g>
<!-- \\UpdateShell -->
<g id="node3" class="node"><title>\\UpdateShell</title>
<polygon fill="none" stroke="black" points="644.5,-1762 573.5,-1762 573.5,-1726 644.5,-1726 644.5,-1762"/>
<text text-anchor="middle" x="609" y="-1741.2" font-family="Times,serif" font-size="11.00">UpdateShell</text>
</g>
<!-- \\UpdateShell&#45;&gt;\\AppShell -->
<g id="edge3" class="edge"><title>\\UpdateShell&#45;&gt;\\AppShell</title>
<path fill="none" stroke="black" d="M573.473,-1742.57C554.63,-1739.84 532.63,-1733.09 520,-1717 349.297,-1499.53 605.469,-702.234 448,-475 442.37,-466.875 433.713,-461.167 424.674,-457.167"/>
<polygon fill="none" stroke="black" points="425.818,-453.858 415.227,-453.587 423.338,-460.403 425.818,-453.858"/>
</g>
<!-- \\TfsController -->
<g id="node4" class="node"><title>\\TfsController</title>
<polygon fill="none" stroke="black" points="424.5,-1870 347.5,-1870 347.5,-1834 424.5,-1834 424.5,-1870"/>
<text text-anchor="middle" x="386" y="-1849.2" font-family="Times,serif" font-size="11.00">TfsController</text>
</g>
<!-- \\AppController -->
<g id="node15" class="node"><title>\\AppController</title>
<polygon fill="none" stroke="black" points="252,-1249 172,-1249 172,-1213 252,-1213 252,-1249"/>
<text text-anchor="start" x="189" y="-1234.2" font-family="Times,serif" font-size="11.00">«abstract»</text>
<text text-anchor="start" x="180" y="-1222.2" font-family="Times,serif" font-size="11.00">AppController</text>
</g>
<!-- \\TfsController&#45;&gt;\\AppController -->
<g id="edge4" class="edge"><title>\\TfsController&#45;&gt;\\AppController</title>
<path fill="none" stroke="black" d="M347.251,-1842C338.474,-1838.03 329.965,-1832.54 324,-1825 252.795,-1735.02 222.229,-1365.07 214.843,-1259.34"/>
<polygon fill="none" stroke="black" points="218.319,-1258.87 214.145,-1249.13 211.335,-1259.35 218.319,-1258.87"/>
</g>
<!-- \\WidgetController -->
<g id="node5" class="node"><title>\\WidgetController</title>
<polygon fill="none" stroke="black" points="433,-1816 339,-1816 339,-1780 433,-1780 433,-1816"/>
<text text-anchor="middle" x="386" y="-1795.2" font-family="Times,serif" font-size="11.00">WidgetController</text>
</g>
<!-- \\WidgetController&#45;&gt;\\AppController -->
<g id="edge5" class="edge"><title>\\WidgetController&#45;&gt;\\AppController</title>
<path fill="none" stroke="black" d="M338.932,-1783.56C333.278,-1780.18 328.07,-1776.05 324,-1771 258.87,-1690.2 224.429,-1358.76 215.422,-1259.33"/>
<polygon fill="none" stroke="black" points="218.889,-1258.8 214.516,-1249.15 211.917,-1259.42 218.889,-1258.8"/>
</g>
<!-- \\AppointmentsController -->
<g id="node6" class="node"><title>\\AppointmentsController</title>
<polygon fill="none" stroke="black" points="447.5,-1762 324.5,-1762 324.5,-1726 447.5,-1726 447.5,-1762"/>
<text text-anchor="middle" x="386" y="-1741.2" font-family="Times,serif" font-size="11.00">AppointmentsController</text>
</g>
<!-- \\AppointmentsController&#45;&gt;\\AppController -->
<g id="edge6" class="edge"><title>\\AppointmentsController&#45;&gt;\\AppController</title>
<path fill="none" stroke="black" d="M333.722,-1726C330.111,-1723.38 326.799,-1720.4 324,-1717 264.896,-1645.29 226.843,-1351.9 216.114,-1259.21"/>
<polygon fill="none" stroke="black" points="219.579,-1258.71 214.968,-1249.17 212.625,-1259.5 219.579,-1258.71"/>
</g>
<!-- \\InteractiveWorldInterfaceController -->
<g id="node7" class="node"><title>\\InteractiveWorldInterfaceController</title>
<polygon fill="none" stroke="black" points="698,-1870 520,-1870 520,-1834 698,-1834 698,-1870"/>
<text text-anchor="middle" x="609" y="-1849.2" font-family="Times,serif" font-size="11.00">InteractiveWorldInterfaceController</text>
</g>
<!-- \\InterfaceController -->
<g id="node29" class="node"><title>\\InterfaceController</title>
<polygon fill="none" stroke="black" points="437,-628 335,-628 335,-592 437,-592 437,-628"/>
<text text-anchor="start" x="363" y="-613.2" font-family="Times,serif" font-size="11.00">«abstract»</text>
<text text-anchor="start" x="343" y="-601.2" font-family="Times,serif" font-size="11.00">InterfaceController</text>
</g>
<!-- \\InteractiveWorldInterfaceController&#45;&gt;\\InterfaceController -->
<g id="edge7" class="edge"><title>\\InteractiveWorldInterfaceController&#45;&gt;\\InterfaceController</title>
<path fill="none" stroke="black" d="M529.136,-1833.98C525.753,-1831.37 522.669,-1828.39 520,-1825 356.42,-1617.17 598.931,-854.19 448,-637 447,-635.562 445.906,-634.199 444.731,-632.908"/>
<polygon fill="none" stroke="black" points="447.04,-630.277 437.231,-626.272 442.401,-635.52 447.04,-630.277"/>
</g>
<!-- \\RosbridgesController -->
<g id="node8" class="node"><title>\\RosbridgesController</title>
<polygon fill="none" stroke="black" points="441.5,-1708 330.5,-1708 330.5,-1672 441.5,-1672 441.5,-1708"/>
<text text-anchor="middle" x="386" y="-1687.2" font-family="Times,serif" font-size="11.00">RosbridgesController</text>
</g>
<!-- \\RosbridgesController&#45;&gt;\\AppController -->
<g id="edge8" class="edge"><title>\\RosbridgesController&#45;&gt;\\AppController</title>
<path fill="none" stroke="black" d="M333.821,-1671.91C330.189,-1669.31 326.845,-1666.36 324,-1663 220.48,-1540.79 211.778,-1334.07 212.255,-1259.17"/>
<polygon fill="none" stroke="black" points="215.755,-1259.14 212.381,-1249.1 208.756,-1259.05 215.755,-1259.14"/>
</g>
<!-- \\ConditionsController -->
<g id="node9" class="node"><title>\\ConditionsController</title>
<polygon fill="none" stroke="black" points="440.5,-1654 331.5,-1654 331.5,-1618 440.5,-1618 440.5,-1654"/>
<text text-anchor="middle" x="386" y="-1633.2" font-family="Times,serif" font-size="11.00">ConditionsController</text>
</g>
<!-- \\ConditionsController&#45;&gt;\\AppController -->
<g id="edge9" class="edge"><title>\\ConditionsController&#45;&gt;\\AppController</title>
<path fill="none" stroke="black" d="M333.945,-1617.81C330.286,-1615.23 326.901,-1612.31 324,-1609 232.403,-1504.54 216.28,-1327.86 213.527,-1259.34"/>
<polygon fill="none" stroke="black" points="217.024,-1259.18 213.191,-1249.3 210.028,-1259.41 217.024,-1259.18"/>
</g>
<!-- \\ExperimentController -->
<g id="node10" class="node"><title>\\ExperimentController</title>
<polygon fill="none" stroke="black" points="442.5,-1600 329.5,-1600 329.5,-1564 442.5,-1564 442.5,-1600"/>
<text text-anchor="middle" x="386" y="-1579.2" font-family="Times,serif" font-size="11.00">ExperimentController</text>
</g>
<!-- \\ExperimentController&#45;&gt;\\AppController -->
<g id="edge10" class="edge"><title>\\ExperimentController&#45;&gt;\\AppController</title>
<path fill="none" stroke="black" d="M334.396,-1563.87C330.591,-1561.27 327.052,-1558.33 324,-1555 244.204,-1467.97 221.414,-1321.01 215.205,-1259.46"/>
<polygon fill="none" stroke="black" points="218.673,-1258.95 214.257,-1249.32 211.703,-1259.61 218.673,-1258.95"/>
</g>
<!-- \\EnvironmentsController -->
<g id="node11" class="node"><title>\\EnvironmentsController</title>
<polygon fill="none" stroke="black" points="447,-1546 325,-1546 325,-1510 447,-1510 447,-1546"/>
<text text-anchor="middle" x="386" y="-1525.2" font-family="Times,serif" font-size="11.00">EnvironmentsController</text>
</g>
<!-- \\EnvironmentsController&#45;&gt;\\AppController -->
<g id="edge11" class="edge"><title>\\EnvironmentsController&#45;&gt;\\AppController</title>
<path fill="none" stroke="black" d="M334.905,-1509.86C330.943,-1507.26 327.232,-1504.32 324,-1501 255.718,-1430.87 227.288,-1312.89 217.441,-1259.17"/>
<polygon fill="none" stroke="black" points="220.888,-1258.56 215.714,-1249.32 213.993,-1259.77 220.888,-1258.56"/>
</g>
<!-- \\PagesController -->
<g id="node12" class="node"><title>\\PagesController</title>
<polygon fill="none" stroke="black" points="430,-1492 342,-1492 342,-1456 430,-1456 430,-1492"/>
<text text-anchor="middle" x="386" y="-1471.2" font-family="Times,serif" font-size="11.00">PagesController</text>
</g>
<!-- \\PagesController&#45;&gt;\\AppController -->
<g id="edge12" class="edge"><title>\\PagesController&#45;&gt;\\AppController</title>
<path fill="none" stroke="black" d="M341.998,-1459.47C335.493,-1456.05 329.222,-1451.93 324,-1447 267.103,-1393.31 234.372,-1303.98 220.666,-1258.88"/>
<polygon fill="none" stroke="black" points="223.992,-1257.78 217.807,-1249.18 217.278,-1259.76 223.992,-1257.78"/>
</g>
<!-- \\GlobalController -->
<g id="node13" class="node"><title>\\GlobalController</title>
<polygon fill="none" stroke="black" points="432,-1438 340,-1438 340,-1402 432,-1402 432,-1438"/>
<text text-anchor="middle" x="386" y="-1417.2" font-family="Times,serif" font-size="11.00">GlobalController</text>
</g>
<!-- \\GlobalController&#45;&gt;\\AppController -->
<g id="edge13" class="edge"><title>\\GlobalController&#45;&gt;\\AppController</title>
<path fill="none" stroke="black" d="M339.981,-1403.56C334.305,-1400.51 328.81,-1397 324,-1393 278.342,-1355.06 243.441,-1293.78 225.788,-1258.47"/>
<polygon fill="none" stroke="black" points="228.81,-1256.68 221.271,-1249.24 222.522,-1259.76 228.81,-1256.68"/>
</g>
<!-- \\ContentController -->
<g id="node14" class="node"><title>\\ContentController</title>
<polygon fill="none" stroke="black" points="434,-1384 338,-1384 338,-1348 434,-1348 434,-1384"/>
<text text-anchor="middle" x="386" y="-1363.2" font-family="Times,serif" font-size="11.00">ContentController</text>
</g>
<!-- \\ContentController&#45;&gt;\\AppController -->
<g id="edge14" class="edge"><title>\\ContentController&#45;&gt;\\AppController</title>
<path fill="none" stroke="black" d="M339.393,-1347.99C334.049,-1345.25 328.798,-1342.24 324,-1339 289.172,-1315.47 255.488,-1280.4 234.538,-1256.66"/>
<polygon fill="none" stroke="black" points="237.143,-1254.33 227.938,-1249.08 231.863,-1258.92 237.143,-1254.33"/>
</g>
<!-- \\Controller -->
<g id="node68" class="node"><title>\\Controller</title>
<ellipse fill="none" stroke="black" cx="50" cy="-1231" rx="49.2915" ry="18"/>
<text text-anchor="middle" x="50" y="-1227.3" font-family="Times,serif" font-size="14.00" fill="gray">\Controller</text>
</g>
<!-- \\AppController&#45;&gt;\\Controller -->
<g id="edge15" class="edge"><title>\\AppController&#45;&gt;\\Controller</title>
<path fill="none" stroke="black" d="M171.86,-1231C153.096,-1231 130.234,-1231 109.464,-1231"/>
<polygon fill="none" stroke="black" points="109.463,-1227.5 99.4633,-1231 109.463,-1234.5 109.463,-1227.5"/>
</g>
<!-- \\BasicInterfaceController -->
<g id="node16" class="node"><title>\\BasicInterfaceController</title>
<polygon fill="none" stroke="black" points="673,-1978 545,-1978 545,-1942 673,-1942 673,-1978"/>
<text text-anchor="middle" x="609" y="-1957.2" font-family="Times,serif" font-size="11.00">BasicInterfaceController</text>
</g>
<!-- \\BasicInterfaceController&#45;&gt;\\InterfaceController -->
<g id="edge16" class="edge"><title>\\BasicInterfaceController&#45;&gt;\\InterfaceController</title>
<path fill="none" stroke="black" d="M544.833,-1951C535.229,-1946.94 526.404,-1941.18 520,-1933 342.172,-1705.89 612.008,-874.279 448,-637 447.004,-635.559 445.913,-634.194 444.741,-632.901"/>
<polygon fill="none" stroke="black" points="447.055,-630.276 437.252,-626.257 442.41,-635.512 447.055,-630.276"/>
</g>
<!-- \\EmailsController -->
<g id="node17" class="node"><title>\\EmailsController</title>
<polygon fill="none" stroke="black" points="432,-1330 340,-1330 340,-1294 432,-1294 432,-1330"/>
<text text-anchor="middle" x="386" y="-1309.2" font-family="Times,serif" font-size="11.00">EmailsController</text>
</g>
<!-- \\EmailsController&#45;&gt;\\AppController -->
<g id="edge17" class="edge"><title>\\EmailsController&#45;&gt;\\AppController</title>
<path fill="none" stroke="black" d="M343.565,-1293.9C337.001,-1290.96 330.302,-1287.93 324,-1285 302.355,-1274.95 278.536,-1263.42 258.531,-1253.61"/>
<polygon fill="none" stroke="black" points="259.855,-1250.36 249.337,-1249.09 256.766,-1256.64 259.855,-1250.36"/>
</g>
<!-- \\RosController -->
<g id="node18" class="node"><title>\\RosController</title>
<polygon fill="none" stroke="black" points="425.5,-1276 346.5,-1276 346.5,-1240 425.5,-1240 425.5,-1276"/>
<text text-anchor="middle" x="386" y="-1255.2" font-family="Times,serif" font-size="11.00">RosController</text>
</g>
<!-- \\RosController&#45;&gt;\\AppController -->
<g id="edge18" class="edge"><title>\\RosController&#45;&gt;\\AppController</title>
<path fill="none" stroke="black" d="M346.4,-1251.94C321.457,-1248.03 288.779,-1242.9 262.009,-1238.69"/>
<polygon fill="none" stroke="black" points="262.488,-1235.23 252.066,-1237.13 261.403,-1242.14 262.488,-1235.23"/>
</g>
<!-- \\ResourcesController -->
<g id="node19" class="node"><title>\\ResourcesController</title>
<polygon fill="none" stroke="black" points="440,-1222 332,-1222 332,-1186 440,-1186 440,-1222"/>
<text text-anchor="middle" x="386" y="-1201.2" font-family="Times,serif" font-size="11.00">ResourcesController</text>
</g>
<!-- \\ResourcesController&#45;&gt;\\AppController -->
<g id="edge19" class="edge"><title>\\ResourcesController&#45;&gt;\\AppController</title>
<path fill="none" stroke="black" d="M331.991,-1212.32C309.751,-1215.81 284.041,-1219.85 262.222,-1223.27"/>
<polygon fill="none" stroke="black" points="261.514,-1219.84 252.178,-1224.85 262.6,-1226.76 261.514,-1219.84"/>
</g>
<!-- \\StudiesController -->
<g id="node20" class="node"><title>\\StudiesController</title>
<polygon fill="none" stroke="black" points="433,-1168 339,-1168 339,-1132 433,-1132 433,-1168"/>
<text text-anchor="middle" x="386" y="-1147.2" font-family="Times,serif" font-size="11.00">StudiesController</text>
</g>
<!-- \\StudiesController&#45;&gt;\\AppController -->
<g id="edge20" class="edge"><title>\\StudiesController&#45;&gt;\\AppController</title>
<path fill="none" stroke="black" d="M343.565,-1168.1C337.001,-1171.04 330.302,-1174.07 324,-1177 302.355,-1187.05 278.536,-1198.58 258.531,-1208.39"/>
<polygon fill="none" stroke="black" points="256.766,-1205.36 249.337,-1212.91 259.855,-1211.64 256.766,-1205.36"/>
</g>
<!-- \\TeleopsController -->
<g id="node21" class="node"><title>\\TeleopsController</title>
<polygon fill="none" stroke="black" points="434.5,-1114 337.5,-1114 337.5,-1078 434.5,-1078 434.5,-1114"/>
<text text-anchor="middle" x="386" y="-1093.2" font-family="Times,serif" font-size="11.00">TeleopsController</text>
</g>
<!-- \\TeleopsController&#45;&gt;\\AppController -->
<g id="edge21" class="edge"><title>\\TeleopsController&#45;&gt;\\AppController</title>
<path fill="none" stroke="black" d="M339.393,-1114.01C334.049,-1116.75 328.798,-1119.76 324,-1123 289.172,-1146.53 255.488,-1181.6 234.538,-1205.34"/>
<polygon fill="none" stroke="black" points="231.863,-1203.08 227.938,-1212.92 237.143,-1207.67 231.863,-1203.08"/>
</g>
<!-- \\UsersController -->
<g id="node22" class="node"><title>\\UsersController</title>
<polygon fill="none" stroke="black" points="430,-1060 342,-1060 342,-1024 430,-1024 430,-1060"/>
<text text-anchor="middle" x="386" y="-1039.2" font-family="Times,serif" font-size="11.00">UsersController</text>
</g>
<!-- \\UsersController&#45;&gt;\\AppController -->
<g id="edge22" class="edge"><title>\\UsersController&#45;&gt;\\AppController</title>
<path fill="none" stroke="black" d="M341.88,-1057.44C335.534,-1060.72 329.344,-1064.56 324,-1069 278.342,-1106.94 243.441,-1168.22 225.788,-1203.53"/>
<polygon fill="none" stroke="black" points="222.522,-1202.24 221.271,-1212.76 228.81,-1205.32 222.522,-1202.24"/>
</g>
<!-- \\UrdfsController -->
<g id="node23" class="node"><title>\\UrdfsController</title>
<polygon fill="none" stroke="black" points="429.5,-1006 342.5,-1006 342.5,-970 429.5,-970 429.5,-1006"/>
<text text-anchor="middle" x="386" y="-985.2" font-family="Times,serif" font-size="11.00">UrdfsController</text>
</g>
<!-- \\UrdfsController&#45;&gt;\\AppController -->
<g id="edge23" class="edge"><title>\\UrdfsController&#45;&gt;\\AppController</title>
<path fill="none" stroke="black" d="M342.313,-1002.36C335.696,-1005.81 329.307,-1009.99 324,-1015 267.103,-1068.69 234.372,-1158.02 220.666,-1203.12"/>
<polygon fill="none" stroke="black" points="217.278,-1202.24 217.807,-1212.82 223.992,-1204.22 217.278,-1202.24"/>
</g>
<!-- \\LogsController -->
<g id="node24" class="node"><title>\\LogsController</title>
<polygon fill="none" stroke="black" points="427.5,-952 344.5,-952 344.5,-916 427.5,-916 427.5,-952"/>
<text text-anchor="middle" x="386" y="-931.2" font-family="Times,serif" font-size="11.00">LogsController</text>
</g>
<!-- \\LogsController&#45;&gt;\\AppController -->
<g id="edge24" class="edge"><title>\\LogsController&#45;&gt;\\AppController</title>
<path fill="none" stroke="black" d="M344.461,-946.692C336.983,-950.408 329.736,-955.109 324,-961 255.718,-1031.13 227.288,-1149.11 217.441,-1202.83"/>
<polygon fill="none" stroke="black" points="213.993,-1202.23 215.714,-1212.68 220.888,-1203.44 213.993,-1202.23"/>
</g>
<!-- \\ImsController -->
<g id="node25" class="node"><title>\\ImsController</title>
<polygon fill="none" stroke="black" points="425,-898 347,-898 347,-862 425,-862 425,-898"/>
<text text-anchor="middle" x="386" y="-877.2" font-family="Times,serif" font-size="11.00">ImsController</text>
</g>
<!-- \\ImsController&#45;&gt;\\AppController -->
<g id="edge25" class="edge"><title>\\ImsController&#45;&gt;\\AppController</title>
<path fill="none" stroke="black" d="M346.709,-891.202C338.359,-895.104 330.183,-900.256 324,-907 244.204,-994.028 221.414,-1140.99 215.205,-1202.54"/>
<polygon fill="none" stroke="black" points="211.703,-1202.39 214.257,-1212.68 218.673,-1203.05 211.703,-1202.39"/>
</g>
<!-- \\SlotsController -->
<g id="node26" class="node"><title>\\SlotsController</title>
<polygon fill="none" stroke="black" points="427.5,-844 344.5,-844 344.5,-808 427.5,-808 427.5,-844"/>
<text text-anchor="middle" x="386" y="-823.2" font-family="Times,serif" font-size="11.00">SlotsController</text>
</g>
<!-- \\SlotsController&#45;&gt;\\AppController -->
<g id="edge26" class="edge"><title>\\SlotsController&#45;&gt;\\AppController</title>
<path fill="none" stroke="black" d="M344.281,-838.077C336.728,-841.852 329.497,-846.73 324,-853 232.403,-957.465 216.28,-1134.14 213.527,-1202.66"/>
<polygon fill="none" stroke="black" points="210.028,-1202.59 213.191,-1212.7 217.024,-1202.82 210.028,-1202.59"/>
</g>
<!-- \\SubscriptionsController -->
<g id="node27" class="node"><title>\\SubscriptionsController</title>
<polygon fill="none" stroke="black" points="446.5,-790 325.5,-790 325.5,-754 446.5,-754 446.5,-790"/>
<text text-anchor="middle" x="386" y="-769.2" font-family="Times,serif" font-size="11.00">SubscriptionsController</text>
</g>
<!-- \\SubscriptionsController&#45;&gt;\\AppController -->
<g id="edge27" class="edge"><title>\\SubscriptionsController&#45;&gt;\\AppController</title>
<path fill="none" stroke="black" d="M333.821,-790.087C330.189,-792.686 326.845,-795.642 324,-799 220.48,-921.208 211.778,-1127.93 212.255,-1202.83"/>
<polygon fill="none" stroke="black" points="208.756,-1202.95 212.381,-1212.9 215.755,-1202.86 208.756,-1202.95"/>
</g>
<!-- \\StreamsController -->
<g id="node28" class="node"><title>\\StreamsController</title>
<polygon fill="none" stroke="black" points="435,-736 337,-736 337,-700 435,-700 435,-736"/>
<text text-anchor="middle" x="386" y="-715.2" font-family="Times,serif" font-size="11.00">StreamsController</text>
</g>
<!-- \\StreamsController&#45;&gt;\\AppController -->
<g id="edge28" class="edge"><title>\\StreamsController&#45;&gt;\\AppController</title>
<path fill="none" stroke="black" d="M336.928,-733.822C332.072,-736.929 327.609,-740.621 324,-745 264.896,-816.712 226.843,-1110.1 216.114,-1202.79"/>
<polygon fill="none" stroke="black" points="212.625,-1202.5 214.968,-1212.83 219.579,-1203.29 212.625,-1202.5"/>
</g>
<!-- \\InterfaceController&#45;&gt;\\AppController -->
<g id="edge29" class="edge"><title>\\InterfaceController&#45;&gt;\\AppController</title>
<path fill="none" stroke="black" d="M334.715,-627.062C330.688,-629.896 327.018,-633.186 324,-637 252.795,-726.985 222.229,-1096.93 214.843,-1202.66"/>
<polygon fill="none" stroke="black" points="211.335,-1202.65 214.145,-1212.87 218.319,-1203.13 211.335,-1202.65"/>
</g>
<!-- \\MjpegsController -->
<g id="node30" class="node"><title>\\MjpegsController</title>
<polygon fill="none" stroke="black" points="433.5,-682 338.5,-682 338.5,-646 433.5,-646 433.5,-682"/>
<text text-anchor="middle" x="386" y="-661.2" font-family="Times,serif" font-size="11.00">MjpegsController</text>
</g>
<!-- \\MjpegsController&#45;&gt;\\AppController -->
<g id="edge30" class="edge"><title>\\MjpegsController&#45;&gt;\\AppController</title>
<path fill="none" stroke="black" d="M338.328,-678.808C332.908,-682.115 327.925,-686.131 324,-691 258.87,-771.803 224.429,-1103.24 215.422,-1202.67"/>
<polygon fill="none" stroke="black" points="211.917,-1202.58 214.516,-1212.85 218.889,-1203.2 211.917,-1202.58"/>
</g>
<!-- \\CarlDemoInterfaceController -->
<g id="node31" class="node"><title>\\CarlDemoInterfaceController</title>
<polygon fill="none" stroke="black" points="683.5,-1924 534.5,-1924 534.5,-1888 683.5,-1888 683.5,-1924"/>
<text text-anchor="middle" x="609" y="-1903.2" font-family="Times,serif" font-size="11.00">CarlDemoInterfaceController</text>
</g>
<!-- \\CarlDemoInterfaceController&#45;&gt;\\InterfaceController -->
<g id="edge31" class="edge"><title>\\CarlDemoInterfaceController&#45;&gt;\\InterfaceController</title>
<path fill="none" stroke="black" d="M534.204,-1891.51C528.809,-1888.14 523.947,-1884.03 520,-1879 349.297,-1661.53 605.469,-864.234 448,-637 447.002,-635.56 445.91,-634.196 444.736,-632.904"/>
<polygon fill="none" stroke="black" points="447.048,-630.276 437.242,-626.264 442.406,-635.516 447.048,-630.276"/>
</g>
<!-- \\ArticlesController -->
<g id="node32" class="node"><title>\\ArticlesController</title>
<polygon fill="none" stroke="black" points="435,-574 337,-574 337,-538 435,-538 435,-574"/>
<text text-anchor="middle" x="386" y="-553.2" font-family="Times,serif" font-size="11.00">ArticlesController</text>
</g>
<!-- \\ArticlesController&#45;&gt;\\AppController -->
<g id="edge32" class="edge"><title>\\ArticlesController&#45;&gt;\\AppController</title>
<path fill="none" stroke="black" d="M336.985,-571.439C332.055,-574.619 327.559,-578.432 324,-583 246.692,-682.226 220.223,-1090.94 214.357,-1202.66"/>
<polygon fill="none" stroke="black" points="210.853,-1202.65 213.838,-1212.81 217.844,-1203.01 210.853,-1202.65"/>
</g>
<!-- \\SettingsController -->
<g id="node33" class="node"><title>\\SettingsController</title>
<polygon fill="none" stroke="black" points="434.5,-520 337.5,-520 337.5,-484 434.5,-484 434.5,-520"/>
<text text-anchor="middle" x="386" y="-499.2" font-family="Times,serif" font-size="11.00">SettingsController</text>
</g>
<!-- \\SettingsController&#45;&gt;\\AppController -->
<g id="edge33" class="edge"><title>\\SettingsController&#45;&gt;\\AppController</title>
<path fill="none" stroke="black" d="M337.224,-517.204C332.187,-520.429 327.6,-524.318 324,-529 240.577,-637.503 218.383,-1085.12 213.945,-1202.64"/>
<polygon fill="none" stroke="black" points="210.436,-1202.84 213.57,-1212.96 217.431,-1203.09 210.436,-1202.84"/>
</g>
<!-- \\IfacesController -->
<g id="node34" class="node"><title>\\IfacesController</title>
<polygon fill="none" stroke="black" points="430.5,-1978 341.5,-1978 341.5,-1942 430.5,-1942 430.5,-1978"/>
<text text-anchor="middle" x="386" y="-1957.2" font-family="Times,serif" font-size="11.00">IfacesController</text>
</g>
<!-- \\IfacesController&#45;&gt;\\AppController -->
<g id="edge34" class="edge"><title>\\IfacesController&#45;&gt;\\AppController</title>
<path fill="none" stroke="black" d="M341.463,-1947.3C334.779,-1943.65 328.588,-1938.97 324,-1933 240.577,-1824.5 218.383,-1376.88 213.945,-1259.36"/>
<polygon fill="none" stroke="black" points="217.431,-1258.91 213.57,-1249.04 210.436,-1259.16 217.431,-1258.91"/>
</g>
<!-- \\MarkersController -->
<g id="node35" class="node"><title>\\MarkersController</title>
<polygon fill="none" stroke="black" points="435.5,-1924 336.5,-1924 336.5,-1888 435.5,-1888 435.5,-1924"/>
<text text-anchor="middle" x="386" y="-1903.2" font-family="Times,serif" font-size="11.00">MarkersController</text>
</g>
<!-- \\MarkersController&#45;&gt;\\AppController -->
<g id="edge35" class="edge"><title>\\MarkersController&#45;&gt;\\AppController</title>
<path fill="none" stroke="black" d="M336.396,-1890.18C331.696,-1887.08 327.417,-1883.39 324,-1879 246.692,-1779.77 220.223,-1371.06 214.357,-1259.34"/>
<polygon fill="none" stroke="black" points="217.844,-1258.99 213.838,-1249.19 210.853,-1259.35 217.844,-1258.99"/>
</g>
<!-- \\EmailConfig -->
<g id="node36" class="node"><title>\\EmailConfig</title>
<polygon fill="none" stroke="black" points="645.5,-1708 572.5,-1708 572.5,-1672 645.5,-1672 645.5,-1708"/>
<text text-anchor="middle" x="609" y="-1687.2" font-family="Times,serif" font-size="11.00">EmailConfig</text>
</g>
<!-- \\DATABASE_CONFIG -->
<g id="node37" class="node"><title>\\DATABASE_CONFIG</title>
<polygon fill="none" stroke="black" points="671,-1654 547,-1654 547,-1618 671,-1618 671,-1654"/>
<text text-anchor="middle" x="609" y="-1633.2" font-family="Times,serif" font-size="11.00">DATABASE_CONFIG</text>
</g>
<!-- \\Appointment -->
<g id="node38" class="node"><title>\\Appointment</title>
<polygon fill="none" stroke="black" points="646,-1114 572,-1114 572,-1078 646,-1078 646,-1114"/>
<text text-anchor="middle" x="609" y="-1093.2" font-family="Times,serif" font-size="11.00">Appointment</text>
</g>
<!-- \\AppModel -->
<g id="node47" class="node"><title>\\AppModel</title>
<polygon fill="none" stroke="black" points="418,-412 354,-412 354,-376 418,-376 418,-412"/>
<text text-anchor="middle" x="386" y="-391.2" font-family="Times,serif" font-size="11.00">AppModel</text>
</g>
<!-- \\Appointment&#45;&gt;\\AppModel -->
<g id="edge36" class="edge"><title>\\Appointment&#45;&gt;\\AppModel</title>
<path fill="none" stroke="black" d="M571.578,-1093.97C553.345,-1090.96 532.54,-1084.14 520,-1069 335.13,-845.861 619.274,-654.738 448,-421 442.834,-413.95 435.412,-408.71 427.514,-404.826"/>
<polygon fill="none" stroke="black" points="428.704,-401.529 418.13,-400.862 425.98,-407.977 428.704,-401.529"/>
</g>
<!-- \\Protocol -->
<g id="node39" class="node"><title>\\Protocol</title>
<polygon fill="none" stroke="black" points="636,-1060 582,-1060 582,-1024 636,-1024 636,-1060"/>
<text text-anchor="middle" x="609" y="-1039.2" font-family="Times,serif" font-size="11.00">Protocol</text>
</g>
<!-- \\Protocol&#45;&gt;\\AppModel -->
<g id="edge37" class="edge"><title>\\Protocol&#45;&gt;\\AppModel</title>
<path fill="none" stroke="black" d="M581.925,-1041.28C561.855,-1039.24 535.077,-1033.01 520,-1015 349.321,-811.067 606.25,-634.722 448,-421 442.799,-413.976 435.363,-408.746 427.462,-404.864"/>
<polygon fill="none" stroke="black" points="428.653,-401.568 418.079,-400.899 425.928,-408.016 428.653,-401.568"/>
</g>
<!-- \\Teleop -->
<g id="node40" class="node"><title>\\Teleop</title>
<polygon fill="none" stroke="black" points="636,-1006 582,-1006 582,-970 636,-970 636,-1006"/>
<text text-anchor="middle" x="609" y="-985.2" font-family="Times,serif" font-size="11.00">Teleop</text>
</g>
<!-- \\Teleop&#45;&gt;\\AppModel -->
<g id="edge38" class="edge"><title>\\Teleop&#45;&gt;\\AppModel</title>
<path fill="none" stroke="black" d="M581.983,-987.232C561.946,-985.167 535.184,-978.925 520,-961 363.497,-776.255 593.24,-614.725 448,-421 442.757,-414.007 435.304,-408.79 427.4,-404.911"/>
<polygon fill="none" stroke="black" points="428.592,-401.615 418.019,-400.944 425.866,-408.062 428.592,-401.615"/>
</g>
<!-- \\Environment -->
<g id="node41" class="node"><title>\\Environment</title>
<polygon fill="none" stroke="black" points="645.5,-952 572.5,-952 572.5,-916 645.5,-916 645.5,-952"/>
<text text-anchor="middle" x="609" y="-931.2" font-family="Times,serif" font-size="11.00">Environment</text>
</g>
<!-- \\Environment&#45;&gt;\\AppModel -->
<g id="edge39" class="edge"><title>\\Environment&#45;&gt;\\AppModel</title>
<path fill="none" stroke="black" d="M572.242,-931.853C553.968,-928.831 532.918,-922.027 520,-907 377.653,-741.418 580.249,-594.753 448,-421 442.757,-414.111 435.375,-408.944 427.55,-405.079"/>
<polygon fill="none" stroke="black" points="428.834,-401.822 418.262,-401.116 426.086,-408.26 428.834,-401.822"/>
</g>
<!-- \\Im -->
<g id="node42" class="node"><title>\\Im</title>
<polygon fill="none" stroke="black" points="636,-898 582,-898 582,-862 636,-862 636,-898"/>
<text text-anchor="middle" x="609" y="-877.2" font-family="Times,serif" font-size="11.00">Im</text>
</g>
<!-- \\Im&#45;&gt;\\AppModel -->
<g id="edge40" class="edge"><title>\\Im&#45;&gt;\\AppModel</title>
<path fill="none" stroke="black" d="M581.733,-879.052C561.831,-876.868 535.369,-870.555 520,-853 391.78,-706.55 567.284,-574.816 448,-421 442.695,-414.159 435.287,-409.011 427.457,-405.151"/>
<polygon fill="none" stroke="black" points="428.742,-401.894 418.171,-401.186 425.994,-408.332 428.742,-401.894"/>
</g>
<!-- \\Log -->
<g id="node43" class="node"><title>\\Log</title>
<polygon fill="none" stroke="black" points="636,-844 582,-844 582,-808 636,-808 636,-844"/>
<text text-anchor="middle" x="609" y="-823.2" font-family="Times,serif" font-size="11.00">Log</text>
</g>
<!-- \\Log&#45;&gt;\\AppModel -->
<g id="edge41" class="edge"><title>\\Log&#45;&gt;\\AppModel</title>
<path fill="none" stroke="black" d="M581.845,-824.953C562.004,-822.714 535.571,-816.376 520,-799 405.868,-671.635 554.356,-554.926 448,-421 442.616,-414.221 435.176,-409.098 427.339,-405.243"/>
<polygon fill="none" stroke="black" points="428.627,-401.988 418.056,-401.277 425.876,-408.425 428.627,-401.988"/>
</g>
<!-- \\User -->
<g id="node44" class="node"><title>\\User</title>
<polygon fill="none" stroke="black" points="636,-790 582,-790 582,-754 636,-754 636,-790"/>
<text text-anchor="middle" x="609" y="-769.2" font-family="Times,serif" font-size="11.00">User</text>
</g>
<!-- \\User&#45;&gt;\\AppModel -->
<g id="edge42" class="edge"><title>\\User&#45;&gt;\\AppModel</title>
<path fill="none" stroke="black" d="M581.99,-770.821C562.229,-768.509 535.833,-762.137 520,-745 419.895,-636.653 541.485,-535.108 448,-421 442.566,-414.368 435.174,-409.314 427.41,-405.479"/>
<polygon fill="none" stroke="black" points="428.79,-402.262 418.221,-401.517 426.018,-408.69 428.79,-402.262"/>
</g>
<!-- \\Stream -->
<g id="node45" class="node"><title>\\Stream</title>
<polygon fill="none" stroke="black" points="636,-736 582,-736 582,-700 636,-700 636,-736"/>
<text text-anchor="middle" x="609" y="-715.2" font-family="Times,serif" font-size="11.00">Stream</text>
</g>
<!-- \\Stream&#45;&gt;\\AppModel -->
<g id="edge43" class="edge"><title>\\Stream&#45;&gt;\\AppModel</title>
<path fill="none" stroke="black" d="M581.782,-716.585C562.175,-714.132 536.078,-707.686 520,-691 433.826,-601.568 528.703,-515.398 448,-421 442.429,-414.483 434.978,-409.478 427.202,-405.654"/>
<polygon fill="none" stroke="black" points="428.584,-402.439 418.016,-401.689 425.81,-408.865 428.584,-402.439"/>
</g>
<!-- \\Email -->
<g id="node46" class="node"><title>\\Email</title>
<polygon fill="none" stroke="black" points="636,-682 582,-682 582,-646 636,-646 636,-682"/>
<text text-anchor="middle" x="609" y="-661.2" font-family="Times,serif" font-size="11.00">Email</text>
</g>
<!-- \\Email&#45;&gt;\\AppModel -->
<g id="edge44" class="edge"><title>\\Email&#45;&gt;\\AppModel</title>
<path fill="none" stroke="black" d="M581.662,-662.249C562.252,-659.609 536.467,-653.075 520,-637 447.591,-566.311 516.078,-495.869 448,-421 442.35,-414.786 435.006,-409.927 427.382,-406.152"/>
<polygon fill="none" stroke="black" points="428.602,-402.866 418.037,-402.068 425.799,-409.28 428.602,-402.866"/>
</g>
<!-- \\Model -->
<g id="node69" class="node"><title>\\Model</title>
<ellipse fill="none" stroke="black" cx="212" cy="-18" rx="36.2938" ry="18"/>
<text text-anchor="middle" x="212" y="-14.3" font-family="Times,serif" font-size="14.00" fill="gray">\Model</text>
</g>
<!-- \\AppModel&#45;&gt;\\Model -->
<g id="edge45" class="edge"><title>\\AppModel&#45;&gt;\\Model</title>
<path fill="none" stroke="black" d="M382.009,-375.815C372.188,-320.741 336.587,-152.944 252,-45 249.968,-42.4072 247.619,-39.9655 245.102,-37.6909"/>
<polygon fill="none" stroke="black" points="247.193,-34.8824 237.193,-31.3848 242.83,-40.3556 247.193,-34.8824"/>
</g>
<!-- \\Collada -->
<g id="node48" class="node"><title>\\Collada</title>
<polygon fill="none" stroke="black" points="636,-628 582,-628 582,-592 636,-592 636,-628"/>
<text text-anchor="middle" x="609" y="-607.2" font-family="Times,serif" font-size="11.00">Collada</text>
</g>
<!-- \\Collada&#45;&gt;\\AppModel -->
<g id="edge46" class="edge"><title>\\Collada&#45;&gt;\\AppModel</title>
<path fill="none" stroke="black" d="M581.696,-607.721C562.557,-604.805 537.103,-598.157 520,-583 461.032,-530.743 503.756,-476.671 448,-421 442.238,-415.246 435.039,-410.616 427.628,-406.927"/>
<polygon fill="none" stroke="black" points="428.778,-403.608 418.218,-402.743 425.934,-410.004 428.778,-403.608"/>
</g>
<!-- \\Slot -->
<g id="node49" class="node"><title>\\Slot</title>
<polygon fill="none" stroke="black" points="636,-574 582,-574 582,-538 636,-538 636,-574"/>
<text text-anchor="middle" x="609" y="-553.2" font-family="Times,serif" font-size="11.00">Slot</text>
</g>
<!-- \\Slot&#45;&gt;\\AppModel -->
<g id="edge47" class="edge"><title>\\Slot&#45;&gt;\\AppModel</title>
<path fill="none" stroke="black" d="M581.62,-552.699C562.931,-549.285 538.07,-542.461 520,-529 473.737,-494.537 492.132,-458.153 448,-421 441.895,-415.861 434.657,-411.532 427.339,-407.949"/>
<polygon fill="none" stroke="black" points="428.661,-404.706 418.104,-403.806 425.795,-411.093 428.661,-404.706"/>
</g>
<!-- \\Page -->
<g id="node50" class="node"><title>\\Page</title>
<polygon fill="none" stroke="black" points="636,-520 582,-520 582,-484 636,-484 636,-520"/>
<text text-anchor="middle" x="609" y="-499.2" font-family="Times,serif" font-size="11.00">Page</text>
</g>
<!-- \\Page&#45;&gt;\\AppModel -->
<g id="edge48" class="edge"><title>\\Page&#45;&gt;\\AppModel</title>
<path fill="none" stroke="black" d="M581.674,-496.452C563.692,-492.064 539.656,-484.999 520,-475 484.348,-456.863 482.51,-441.225 448,-421 441.543,-417.216 434.458,-413.621 427.475,-410.362"/>
<polygon fill="none" stroke="black" points="428.639,-407.048 418.083,-406.14 425.768,-413.433 428.639,-407.048"/>
</g>
<!-- \\Condition -->
<g id="node51" class="node"><title>\\Condition</title>
<polygon fill="none" stroke="black" points="638.5,-466 579.5,-466 579.5,-430 638.5,-430 638.5,-466"/>
<text text-anchor="middle" x="609" y="-445.2" font-family="Times,serif" font-size="11.00">Condition</text>
</g>
<!-- \\Condition&#45;&gt;\\AppModel -->
<g id="edge49" class="edge"><title>\\Condition&#45;&gt;\\AppModel</title>
<path fill="none" stroke="black" d="M579.108,-440.94C540.466,-431.498 471.739,-414.705 427.82,-403.974"/>
<polygon fill="none" stroke="black" points="428.58,-400.557 418.035,-401.583 426.918,-407.357 428.58,-400.557"/>
</g>
<!-- \\Subscription -->
<g id="node52" class="node"><title>\\Subscription</title>
<polygon fill="none" stroke="black" points="644.5,-412 573.5,-412 573.5,-376 644.5,-376 644.5,-412"/>
<text text-anchor="middle" x="609" y="-391.2" font-family="Times,serif" font-size="11.00">Subscription</text>
</g>
<!-- \\Subscription&#45;&gt;\\AppModel -->
<g id="edge50" class="edge"><title>\\Subscription&#45;&gt;\\AppModel</title>
<path fill="none" stroke="black" d="M573.469,-394C534.187,-394 470.079,-394 428.214,-394"/>
<polygon fill="none" stroke="black" points="428.078,-390.5 418.078,-394 428.078,-397.5 428.078,-390.5"/>
</g>
<!-- \\Urdf -->
<g id="node53" class="node"><title>\\Urdf</title>
<polygon fill="none" stroke="black" points="636,-358 582,-358 582,-322 636,-322 636,-358"/>
<text text-anchor="middle" x="609" y="-337.2" font-family="Times,serif" font-size="11.00">Urdf</text>
</g>
<!-- \\Urdf&#45;&gt;\\AppModel -->
<g id="edge51" class="edge"><title>\\Urdf&#45;&gt;\\AppModel</title>
<path fill="none" stroke="black" d="M581.781,-346.407C543.726,-355.705 472.838,-373.026 427.884,-384.01"/>
<polygon fill="none" stroke="black" points="427.038,-380.614 418.155,-386.387 428.7,-387.414 427.038,-380.614"/>
</g>
<!-- \\Tf -->
<g id="node54" class="node"><title>\\Tf</title>
<polygon fill="none" stroke="black" points="636,-304 582,-304 582,-268 636,-268 636,-304"/>
<text text-anchor="middle" x="609" y="-283.2" font-family="Times,serif" font-size="11.00">Tf</text>
</g>
<!-- \\Tf&#45;&gt;\\AppModel -->
<g id="edge52" class="edge"><title>\\Tf&#45;&gt;\\AppModel</title>
<path fill="none" stroke="black" d="M581.967,-292.159C564.116,-296.82 540.115,-303.96 520,-313 484.552,-328.931 446.978,-352.511 420.842,-370.126"/>
<polygon fill="none" stroke="black" points="418.731,-367.329 412.437,-375.852 422.672,-373.114 418.731,-367.329"/>
</g>
<!-- \\Resource -->
<g id="node55" class="node"><title>\\Resource</title>
<polygon fill="none" stroke="black" points="638.5,-250 579.5,-250 579.5,-214 638.5,-214 638.5,-250"/>
<text text-anchor="middle" x="609" y="-229.2" font-family="Times,serif" font-size="11.00">Resource</text>
</g>
<!-- \\Resource&#45;&gt;\\AppModel -->
<g id="edge53" class="edge"><title>\\Resource&#45;&gt;\\AppModel</title>
<path fill="none" stroke="black" d="M579.162,-237.075C561.215,-241.119 538.172,-247.976 520,-259 472.432,-287.856 429.675,-337.495 406.128,-367.869"/>
<polygon fill="none" stroke="black" points="403.29,-365.819 400.008,-375.892 408.855,-370.064 403.29,-365.819"/>
</g>
<!-- \\Article -->
<g id="node56" class="node"><title>\\Article</title>
<polygon fill="none" stroke="black" points="636,-1600 582,-1600 582,-1564 636,-1564 636,-1600"/>
<text text-anchor="middle" x="609" y="-1579.2" font-family="Times,serif" font-size="11.00">Article</text>
</g>
<!-- \\Article&#45;&gt;\\AppModel -->
<g id="edge54" class="edge"><title>\\Article&#45;&gt;\\AppModel</title>
<path fill="none" stroke="black" d="M581.641,-1581.51C561.411,-1579.6 534.556,-1573.44 520,-1555 363.543,-1356.81 592.395,-628.148 448,-421 442.954,-413.762 435.509,-408.44 427.54,-404.536"/>
<polygon fill="none" stroke="black" points="428.632,-401.199 418.055,-400.573 425.933,-407.658 428.632,-401.199"/>
</g>
<!-- \\Setting -->
<g id="node57" class="node"><title>\\Setting</title>
<polygon fill="none" stroke="black" points="636,-1546 582,-1546 582,-1510 636,-1510 636,-1546"/>
<text text-anchor="middle" x="609" y="-1525.2" font-family="Times,serif" font-size="11.00">Setting</text>
</g>
<!-- \\Setting&#45;&gt;\\AppModel -->
<g id="edge55" class="edge"><title>\\Setting&#45;&gt;\\AppModel</title>
<path fill="none" stroke="black" d="M581.657,-1527.5C561.436,-1525.58 534.585,-1519.42 520,-1501 370.664,-1312.44 585.859,-618.107 448,-421 442.943,-413.77 435.493,-408.451 427.523,-404.548"/>
<polygon fill="none" stroke="black" points="428.615,-401.211 418.039,-400.585 425.917,-407.67 428.615,-401.211"/>
</g>
<!-- \\Type -->
<g id="node58" class="node"><title>\\Type</title>
<polygon fill="none" stroke="black" points="636,-1492 582,-1492 582,-1456 636,-1456 636,-1492"/>
<text text-anchor="middle" x="609" y="-1471.2" font-family="Times,serif" font-size="11.00">Type</text>
</g>
<!-- \\Type&#45;&gt;\\AppModel -->
<g id="edge56" class="edge"><title>\\Type&#45;&gt;\\AppModel</title>
<path fill="none" stroke="black" d="M581.675,-1473.49C561.463,-1471.56 534.617,-1465.39 520,-1447 377.784,-1268.07 579.324,-608.067 448,-421 442.93,-413.778 435.475,-408.464 427.504,-404.561"/>
<polygon fill="none" stroke="black" points="428.597,-401.224 418.021,-400.598 425.898,-407.683 428.597,-401.224"/>
</g>
<!-- \\Role -->
<g id="node59" class="node"><title>\\Role</title>
<polygon fill="none" stroke="black" points="636,-1438 582,-1438 582,-1402 636,-1402 636,-1438"/>
<text text-anchor="middle" x="609" y="-1417.2" font-family="Times,serif" font-size="11.00">Role</text>
</g>
<!-- \\Role&#45;&gt;\\AppModel -->
<g id="edge57" class="edge"><title>\\Role&#45;&gt;\\AppModel</title>
<path fill="none" stroke="black" d="M581.694,-1419.47C561.494,-1417.54 534.653,-1411.36 520,-1393 384.903,-1223.7 572.79,-598.029 448,-421 442.916,-413.788 435.456,-408.478 427.483,-404.575"/>
<polygon fill="none" stroke="black" points="428.577,-401.239 418.001,-400.612 425.877,-407.698 428.577,-401.239"/>
</g>
<!-- \\Study -->
<g id="node60" class="node"><title>\\Study</title>
<polygon fill="none" stroke="black" points="636,-1384 582,-1384 582,-1348 636,-1348 636,-1384"/>
<text text-anchor="middle" x="609" y="-1363.2" font-family="Times,serif" font-size="11.00">Study</text>
</g>
<!-- \\Study&#45;&gt;\\AppModel -->
<g id="edge58" class="edge"><title>\\Study&#45;&gt;\\AppModel</title>
<path fill="none" stroke="black" d="M581.716,-1365.45C561.527,-1363.51 534.692,-1357.33 520,-1339 392.02,-1179.33 566.259,-587.994 448,-421 442.949,-413.867 435.574,-408.593 427.686,-404.702"/>
<polygon fill="none" stroke="black" points="428.871,-401.404 418.297,-400.741 426.15,-407.853 428.871,-401.404"/>
</g>
<!-- \\Marker -->
<g id="node61" class="node"><title>\\Marker</title>
<polygon fill="none" stroke="black" points="636,-1330 582,-1330 582,-1294 636,-1294 636,-1330"/>
<text text-anchor="middle" x="609" y="-1309.2" font-family="Times,serif" font-size="11.00">Marker</text>
</g>
<!-- \\Marker&#45;&gt;\\AppModel -->
<g id="edge59" class="edge"><title>\\Marker&#45;&gt;\\AppModel</title>
<path fill="none" stroke="black" d="M581.74,-1311.43C561.565,-1309.48 534.737,-1303.29 520,-1285 399.135,-1134.96 559.729,-577.961 448,-421 442.931,-413.879 435.55,-408.611 427.66,-404.721"/>
<polygon fill="none" stroke="black" points="428.846,-401.422 418.272,-400.759 426.124,-407.872 428.846,-401.422"/>
</g>
<!-- \\Iface -->
<g id="node62" class="node"><title>\\Iface</title>
<polygon fill="none" stroke="black" points="636,-1276 582,-1276 582,-1240 636,-1240 636,-1276"/>
<text text-anchor="middle" x="609" y="-1255.2" font-family="Times,serif" font-size="11.00">Iface</text>
</g>
<!-- \\Iface&#45;&gt;\\AppModel -->
<g id="edge60" class="edge"><title>\\Iface&#45;&gt;\\AppModel</title>
<path fill="none" stroke="black" d="M581.767,-1257.41C561.608,-1255.45 534.787,-1249.25 520,-1231 406.248,-1090.58 553.201,-567.931 448,-421 442.912,-413.893 435.522,-408.63 427.631,-404.742"/>
<polygon fill="none" stroke="black" points="428.817,-401.444 418.243,-400.78 426.095,-407.893 428.817,-401.444"/>
</g>
<!-- \\Rosbridge -->
<g id="node63" class="node"><title>\\Rosbridge</title>
<polygon fill="none" stroke="black" points="640,-1222 578,-1222 578,-1186 640,-1186 640,-1222"/>
<text text-anchor="middle" x="609" y="-1201.2" font-family="Times,serif" font-size="11.00">Rosbridge</text>
</g>
<!-- \\Rosbridge&#45;&gt;\\AppModel -->
<g id="edge61" class="edge"><title>\\Rosbridge&#45;&gt;\\AppModel</title>
<path fill="none" stroke="black" d="M577.601,-1202.92C558.065,-1200.51 533.835,-1193.97 520,-1177 413.358,-1046.2 546.676,-557.905 448,-421 442.889,-413.91 435.491,-408.653 427.597,-404.766"/>
<polygon fill="none" stroke="black" points="428.785,-401.468 418.211,-400.803 426.062,-407.917 428.785,-401.468"/>
</g>
<!-- \\Mjpeg -->
<g id="node64" class="node"><title>\\Mjpeg</title>
<polygon fill="none" stroke="black" points="636,-1168 582,-1168 582,-1132 636,-1132 636,-1168"/>
<text text-anchor="middle" x="609" y="-1147.2" font-family="Times,serif" font-size="11.00">Mjpeg</text>
</g>
<!-- \\Mjpeg&#45;&gt;\\AppModel -->
<g id="edge62" class="edge"><title>\\Mjpeg&#45;&gt;\\AppModel</title>
<path fill="none" stroke="black" d="M581.834,-1149.36C561.713,-1147.36 534.911,-1141.15 520,-1123 320.927,-880.641 632.308,-674.768 448,-421 442.864,-413.928 435.455,-408.679 427.559,-404.793"/>
<polygon fill="none" stroke="black" points="428.747,-401.496 418.174,-400.83 426.024,-407.945 428.747,-401.496"/>
</g>
<!-- \\RmsHelper -->
<g id="node65" class="node"><title>\\RmsHelper</title>
<polygon fill="none" stroke="black" points="643,-142 575,-142 575,-106 643,-106 643,-142"/>
<text text-anchor="middle" x="609" y="-121.2" font-family="Times,serif" font-size="11.00">RmsHelper</text>
</g>
<!-- \\Helper -->
<g id="node70" class="node"><title>\\Helper</title>
<ellipse fill="none" stroke="black" cx="386" cy="-72" rx="37.0935" ry="18"/>
<text text-anchor="middle" x="386" y="-68.3" font-family="Times,serif" font-size="14.00" fill="gray">\Helper</text>
</g>
<!-- \\RmsHelper&#45;&gt;\\Helper -->
<g id="edge63" class="edge"><title>\\RmsHelper&#45;&gt;\\Helper</title>
<path fill="none" stroke="black" d="M574.914,-116.215C536.12,-107.087 471.744,-91.9398 429.341,-81.9626"/>
<polygon fill="none" stroke="black" points="430.127,-78.5519 419.591,-79.6684 428.523,-85.3658 430.127,-78.5519"/>
</g>
<!-- \\AppHelper -->
<g id="node66" class="node"><title>\\AppHelper</title>
<polygon fill="none" stroke="black" points="642,-196 576,-196 576,-160 642,-160 642,-196"/>
<text text-anchor="start" x="586" y="-181.2" font-family="Times,serif" font-size="11.00">«abstract»</text>
<text text-anchor="start" x="584" y="-169.2" font-family="Times,serif" font-size="11.00">AppHelper</text>
</g>
<!-- \\AppHelper&#45;&gt;\\Helper -->
<g id="edge64" class="edge"><title>\\AppHelper&#45;&gt;\\Helper</title>
<path fill="none" stroke="black" d="M575.931,-171.217C558.738,-166.838 537.543,-160.215 520,-151 483.868,-132.02 483.662,-113.849 448,-94 441.643,-90.4617 434.608,-87.3078 427.643,-84.5698"/>
<polygon fill="none" stroke="black" points="428.851,-81.2851 418.258,-81.0968 426.422,-87.85 428.851,-81.2851"/>
</g>
</g>
</svg>
