<?xml version="1.0" encoding="UTF-8" standalone="no"?>
<!DOCTYPE svg PUBLIC "-//W3C//DTD SVG 1.1//EN"
 "http://www.w3.org/Graphics/SVG/1.1/DTD/svg11.dtd">
<!-- Generated by graphviz version 2.26.3 (20100126.1600)
 -->
<!-- Title: G Pages: 1 -->
<svg width="178pt" height="1232pt"
 viewBox="0.00 0.00 178.00 1232.00" xmlns="http://www.w3.org/2000/svg" xmlns:xlink="http://www.w3.org/1999/xlink">
<g id="graph1" class="graph" transform="scale(1 1) rotate(0) translate(4 1228)">
<title>G</title>
<polygon fill="white" stroke="white" points="-4,5 -4,-1228 175,-1228 175,5 -4,5"/>
<g id="graph2" class="cluster"><title>cluster_global</title>
<polyline fill="none" stroke="gray" points="20,-8 150,-8 "/>
<path fill="none" stroke="gray" d="M150,-8C156,-8 162,-14 162,-20"/>
<polyline fill="none" stroke="gray" points="162,-20 162,-1204 "/>
<path fill="none" stroke="gray" d="M162,-1204C162,-1210 156,-1216 150,-1216"/>
<polyline fill="none" stroke="gray" points="150,-1216 20,-1216 "/>
<path fill="none" stroke="gray" d="M20,-1216C14,-1216 8,-1210 8,-1204"/>
<polyline fill="none" stroke="gray" points="8,-1204 8,-20 "/>
<path fill="none" stroke="gray" d="M8,-20C8,-14 14,-8 20,-8"/>
<text text-anchor="middle" x="85" y="-1202.1" font-family="Times Roman,serif" font-size="11.00" fill="gray">global</text>
</g>
<!-- \\content_pages -->
<g id="node2" class="node"><title>\\content_pages</title>
<a xlink:href="api.content.content_pages.content_pages.inc.html" xlink:title="content_pages" target="_parent">
<polygon fill="none" stroke="black" points="137,-1186 33,-1186 33,-1150 137,-1150 137,-1186"/>
<text text-anchor="middle" x="85" y="-1165.1" font-family="Courier,monospace" font-size="11.00">content_pages</text>
</a>
</g>
<!-- \\slides -->
<g id="node3" class="node"><title>\\slides</title>
<a xlink:href="api.content.slides.slides.inc.html" xlink:title="slides" target="_parent">
<polygon fill="none" stroke="black" points="113,-1132 57,-1132 57,-1096 113,-1096 113,-1132"/>
<text text-anchor="middle" x="85" y="-1111.1" font-family="Courier,monospace" font-size="11.00">slides</text>
</a>
</g>
<!-- \\articles -->
<g id="node4" class="node"><title>\\articles</title>
<a xlink:href="api.content.articles.articles.inc.html" xlink:title="articles" target="_parent">
<polygon fill="none" stroke="black" points="120,-1078 50,-1078 50,-1042 120,-1042 120,-1078"/>
<text text-anchor="middle" x="85" y="-1057.1" font-family="Courier,monospace" font-size="11.00">articles</text>
</a>
</g>
<!-- \\api -->
<g id="node5" class="node"><title>\\api</title>
<a xlink:href="api.api.inc.html" xlink:title="api" target="_parent">
<polygon fill="none" stroke="black" points="112,-1024 58,-1024 58,-988 112,-988 112,-1024"/>
<text text-anchor="middle" x="85" y="-1003.1" font-family="Courier,monospace" font-size="11.00">api</text>
</a>
</g>
<!-- \\logs -->
<g id="node6" class="node"><title>\\logs</title>
<a xlink:href="api.config.logs.logs.inc.html" xlink:title="logs" target="_parent">
<polygon fill="none" stroke="black" points="112,-970 58,-970 58,-934 112,-934 112,-970"/>
<text text-anchor="middle" x="85" y="-949.1" font-family="Courier,monospace" font-size="11.00">logs</text>
</a>
</g>
<!-- \\update -->
<g id="node7" class="node"><title>\\update</title>
<a xlink:href="api.config.update.inc.html" xlink:title="update" target="_parent">
<polygon fill="none" stroke="black" points="113,-916 57,-916 57,-880 113,-880 113,-916"/>
<text text-anchor="middle" x="85" y="-895.1" font-family="Courier,monospace" font-size="11.00">update</text>
</a>
</g>
<!-- \\config -->
<g id="node8" class="node"><title>\\config</title>
<a xlink:href="api.config.config.inc.html" xlink:title="config" target="_parent">
<polygon fill="none" stroke="black" points="113,-862 57,-862 57,-826 113,-826 113,-862"/>
<text text-anchor="middle" x="85" y="-841.1" font-family="Courier,monospace" font-size="11.00">config</text>
</a>
</g>
<!-- \\study_logs -->
<g id="node9" class="node"><title>\\study_logs</title>
<a xlink:href="api.user_studies.study_logs.study_logs.inc.html" xlink:title="study_logs" target="_parent">
<polygon fill="none" stroke="black" points="127,-808 43,-808 43,-772 127,-772 127,-808"/>
<text text-anchor="middle" x="85" y="-787.1" font-family="Courier,monospace" font-size="11.00">study_logs</text>
</a>
</g>
<!-- \\conditions -->
<g id="node10" class="node"><title>\\conditions</title>
<a xlink:href="api.user_studies.conditions.conditions.inc.html" xlink:title="conditions" target="_parent">
<polygon fill="none" stroke="black" points="127,-754 43,-754 43,-718 127,-718 127,-754"/>
<text text-anchor="middle" x="85" y="-733.1" font-family="Courier,monospace" font-size="11.00">conditions</text>
</a>
</g>
<!-- \\studies -->
<g id="node11" class="node"><title>\\studies</title>
<a xlink:href="api.user_studies.studies.studies.inc.html" xlink:title="studies" target="_parent">
<polygon fill="none" stroke="black" points="117,-700 53,-700 53,-664 117,-664 117,-700"/>
<text text-anchor="middle" x="85" y="-679.1" font-family="Courier,monospace" font-size="11.00">studies</text>
</a>
</g>
<!-- \\experiments -->
<g id="node12" class="node"><title>\\experiments</title>
<a xlink:href="api.user_studies.experiments.experiments.inc.html" xlink:title="experiments" target="_parent">
<polygon fill="none" stroke="black" points="130,-646 40,-646 40,-610 130,-610 130,-646"/>
<text text-anchor="middle" x="85" y="-625.1" font-family="Courier,monospace" font-size="11.00">experiments</text>
</a>
</g>
<!-- \\user_accounts -->
<g id="node13" class="node"><title>\\user_accounts</title>
<a xlink:href="api.users.user_accounts.user_accounts.inc.html" xlink:title="user_accounts" target="_parent">
<polygon fill="none" stroke="black" points="137,-592 33,-592 33,-556 137,-556 137,-592"/>
<text text-anchor="middle" x="85" y="-571.1" font-family="Courier,monospace" font-size="11.00">user_accounts</text>
</a>
</g>
<!-- \\widgets -->
<g id="node14" class="node"><title>\\widgets</title>
<a xlink:href="api.robot_environments.widgets.widgets.inc.html" xlink:title="widgets" target="_parent">
<polygon fill="none" stroke="black" points="117,-538 53,-538 53,-502 117,-502 117,-538"/>
<text text-anchor="middle" x="85" y="-517.1" font-family="Courier,monospace" font-size="11.00">widgets</text>
</a>
</g>
<!-- \\interfaces -->
<g id="node15" class="node"><title>\\interfaces</title>
<a xlink:href="api.robot_environments.interfaces.interfaces.inc.html" xlink:title="interfaces" target="_parent">
<polygon fill="none" stroke="black" points="127,-484 43,-484 43,-448 127,-448 127,-484"/>
<text text-anchor="middle" x="85" y="-463.1" font-family="Courier,monospace" font-size="11.00">interfaces</text>
</a>
</g>
<!-- \\basic -->
<g id="node16" class="node"><title>\\basic</title>
<a xlink:href="api.robot_environments.interfaces.basic.index.html" xlink:title="basic" target="_parent">
<polygon fill="none" stroke="black" points="112,-430 58,-430 58,-394 112,-394 112,-430"/>
<text text-anchor="middle" x="85" y="-409.1" font-family="Courier,monospace" font-size="11.00">basic</text>
</a>
</g>
<!-- \\simple_nav2d -->
<g id="node17" class="node"><title>\\simple_nav2d</title>
<a xlink:href="api.robot_environments.interfaces.simple_nav2d.index.html" xlink:title="simple_nav2d" target="_parent">
<polygon fill="none" stroke="black" points="134,-376 36,-376 36,-340 134,-340 134,-376"/>
<text text-anchor="middle" x="85" y="-355.1" font-family="Courier,monospace" font-size="11.00">simple_nav2d</text>
</a>
</g>
<!-- \\markers -->
<g id="node18" class="node"><title>\\markers</title>
<a xlink:href="api.robot_environments.interfaces.markers.index.html" xlink:title="markers" target="_parent">
<polygon fill="none" stroke="black" points="117,-322 53,-322 53,-286 117,-286 117,-322"/>
<text text-anchor="middle" x="85" y="-301.1" font-family="Courier,monospace" font-size="11.00">markers</text>
</a>
</g>
<!-- \\environments -->
<g id="node19" class="node"><title>\\environments</title>
<a xlink:href="api.robot_environments.environments.environments.inc.html" xlink:title="environments" target="_parent">
<polygon fill="none" stroke="black" points="134,-268 36,-268 36,-232 134,-232 134,-268"/>
<text text-anchor="middle" x="85" y="-247.1" font-family="Courier,monospace" font-size="11.00">environments</text>
</a>
</g>
<!-- \\robot_environment -->
<g id="node20" class="node"><title>\\robot_environment</title>
<a xlink:href="api.robot_environments.robot_environment.html" xlink:title="robot_environment" target="_parent">
<polygon fill="none" stroke="black" points="150,-214 20,-214 20,-178 150,-178 150,-214"/>
<text text-anchor="middle" x="85" y="-193.1" font-family="Courier,monospace" font-size="11.00">robot_environment</text>
</a>
</g>
<!-- \\robot_environments -->
<g id="node21" class="node"><title>\\robot_environments</title>
<a xlink:href="api.robot_environments.robot_environments.inc.html" xlink:title="robot_environments" target="_parent">
<polygon fill="none" stroke="black" points="154,-160 16,-160 16,-124 154,-124 154,-160"/>
<text text-anchor="middle" x="85" y="-139.1" font-family="Courier,monospace" font-size="11.00">robot_environments</text>
</a>
</g>
<!-- \\content -->
<g id="node22" class="node"><title>\\content</title>
<a xlink:href="inc.content.inc.html" xlink:title="content" target="_parent">
<polygon fill="none" stroke="black" points="117,-106 53,-106 53,-70 117,-70 117,-106"/>
<text text-anchor="middle" x="85" y="-85.1" font-family="Courier,monospace" font-size="11.00">content</text>
</a>
</g>
<!-- \\head -->
<g id="node23" class="node"><title>\\head</title>
<a xlink:href="inc.head.inc.html" xlink:title="head" target="_parent">
<polygon fill="none" stroke="black" points="112,-52 58,-52 58,-16 112,-16 112,-52"/>
<text text-anchor="middle" x="85" y="-31.1" font-family="Courier,monospace" font-size="11.00">head</text>
</a>
</g>
</g>
</svg>
