<?xml version="1.0" encoding="UTF-8" standalone="no"?>
<!DOCTYPE svg PUBLIC "-//W3C//DTD SVG 1.1//EN"
 "http://www.w3.org/Graphics/SVG/1.1/DTD/svg11.dtd">
<!-- Generated by graphviz version 2.36.0 (20140111.2315)
 -->
<!-- Title: G Pages: 1 -->
<svg width="722pt" height="1968pt"
 viewBox="0.00 0.00 722.00 1968.00" xmlns="http://www.w3.org/2000/svg" xmlns:xlink="http://www.w3.org/1999/xlink">
<g id="graph0" class="graph" transform="scale(1 1) rotate(0) translate(4 1964)">
<title>G</title>
<polygon fill="white" stroke="none" points="-4,4 -4,-1964 718,-1964 718,4 -4,4"/>
<g id="clust1" class="cluster"><title>cluster_Global</title>
<path fill="none" stroke="gray" d="M176,-98C176,-98 694,-98 694,-98 700,-98 706,-104 706,-110 706,-110 706,-1940 706,-1940 706,-1946 700,-1952 694,-1952 694,-1952 176,-1952 176,-1952 170,-1952 164,-1946 164,-1940 164,-1940 164,-110 164,-110 164,-104 170,-98 176,-98"/>
<text text-anchor="middle" x="435" y="-1939.2" font-family="Times,serif" font-size="11.00" fill="gray">Global</text>
</g>
<!-- \\ReminderShell -->
<g id="node1" class="node"><title>\\ReminderShell</title>
<polygon fill="none" stroke="black" points="650.5,-1816 567.5,-1816 567.5,-1780 650.5,-1780 650.5,-1816"/>
<text text-anchor="middle" x="609" y="-1795.2" font-family="Times,serif" font-size="11.00">ReminderShell</text>
</g>
<!-- \\AppShell -->
<g id="node2" class="node"><title>\\AppShell</title>
<polygon fill="none" stroke="black" points="415,-412 357,-412 357,-376 415,-376 415,-412"/>
<text text-anchor="middle" x="386" y="-391.2" font-family="Times,serif" font-size="11.00">AppShell</text>
</g>
<!-- \\ReminderShell&#45;&gt;\\AppShell -->
<g id="edge1" class="edge"><title>\\ReminderShell&#45;&gt;\\AppShell</title>
<path fill="none" stroke="black" d="M567.162,-1795.55C549.893,-1792.28 531.216,-1785.36 520,-1771 335.047,-1534.25 618.547,-668.325 448,-421 442.389,-412.862 433.738,-407.15 424.699,-403.15"/>
<polygon fill="none" stroke="black" points="425.841,-399.84 415.25,-399.571 423.362,-406.386 425.841,-399.84"/>
</g>
<!-- \\Shell -->
<g id="node66" class="node"><title>\\Shell</title>
<ellipse fill="none" stroke="black" cx="212" cy="-72" rx="31.3957" ry="18"/>
<text text-anchor="middle" x="212" y="-68.3" font-family="Times,serif" font-size="14.00" fill="gray">\Shell</text>
</g>
<!-- \\AppShell&#45;&gt;\\Shell -->
<g id="edge2" class="edge"><title>\\AppShell&#45;&gt;\\Shell</title>
<path fill="none" stroke="black" d="M356.799,-387.351C345.143,-383.272 332.415,-376.871 324,-367 242.59,-271.511 328.69,-193.32 252,-94 250.379,-91.9003 248.497,-89.9694 246.452,-88.1997"/>
<polygon fill="none" stroke="black" points="248.145,-85.1085 237.97,-82.1566 244.083,-90.8096 248.145,-85.1085"/>
</g>
<!-- \\UpdateShell -->
<g id="node3" class="node"><title>\\UpdateShell</title>
<polygon fill="none" stroke="black" points="644.5,-1762 573.5,-1762 573.5,-1726 644.5,-1726 644.5,-1762"/>
<text text-anchor="middle" x="609" y="-1741.2" font-family="Times,serif" font-size="11.00">UpdateShell</text>
</g>
<!-- \\UpdateShell&#45;&gt;\\AppShell -->
<g id="edge3" class="edge"><title>\\UpdateShell&#45;&gt;\\AppShell</title>
<path fill="none" stroke="black" d="M573.458,-1742.58C554.611,-1739.86 532.611,-1733.11 520,-1717 342.172,-1489.89 612.008,-658.279 448,-421 442.38,-412.869 433.726,-407.158 424.687,-403.158"/>
<polygon fill="none" stroke="black" points="425.83,-399.848 415.239,-399.579 423.35,-406.394 425.83,-399.848"/>
</g>
<!-- \\TfsController -->
<g id="node4" class="node"><title>\\TfsController</title>
<polygon fill="none" stroke="black" points="424.5,-1816 347.5,-1816 347.5,-1780 424.5,-1780 424.5,-1816"/>
<text text-anchor="middle" x="386" y="-1795.2" font-family="Times,serif" font-size="11.00">TfsController</text>
</g>
<!-- \\AppController -->
<g id="node15" class="node"><title>\\AppController</title>
<polygon fill="none" stroke="black" points="252,-1195 172,-1195 172,-1159 252,-1159 252,-1195"/>
<text text-anchor="start" x="189" y="-1180.2" font-family="Times,serif" font-size="11.00">«abstract»</text>
<text text-anchor="start" x="180" y="-1168.2" font-family="Times,serif" font-size="11.00">AppController</text>
</g>
<!-- \\TfsController&#45;&gt;\\AppController -->
<g id="edge4" class="edge"><title>\\TfsController&#45;&gt;\\AppController</title>
<path fill="none" stroke="black" d="M347.251,-1788C338.474,-1784.03 329.965,-1778.54 324,-1771 252.795,-1681.02 222.229,-1311.07 214.843,-1205.34"/>
<polygon fill="none" stroke="black" points="218.319,-1204.87 214.145,-1195.13 211.335,-1205.35 218.319,-1204.87"/>
</g>
<!-- \\WidgetController -->
<g id="node5" class="node"><title>\\WidgetController</title>
<polygon fill="none" stroke="black" points="433,-1762 339,-1762 339,-1726 433,-1726 433,-1762"/>
<text text-anchor="middle" x="386" y="-1741.2" font-family="Times,serif" font-size="11.00">WidgetController</text>
</g>
<!-- \\WidgetController&#45;&gt;\\AppController -->
<g id="edge5" class="edge"><title>\\WidgetController&#45;&gt;\\AppController</title>
<path fill="none" stroke="black" d="M338.932,-1729.56C333.278,-1726.18 328.07,-1722.05 324,-1717 258.87,-1636.2 224.429,-1304.76 215.422,-1205.33"/>
<polygon fill="none" stroke="black" points="218.889,-1204.8 214.516,-1195.15 211.917,-1205.42 218.889,-1204.8"/>
</g>
<!-- \\AppointmentsController -->
<g id="node6" class="node"><title>\\AppointmentsController</title>
<polygon fill="none" stroke="black" points="447.5,-1708 324.5,-1708 324.5,-1672 447.5,-1672 447.5,-1708"/>
<text text-anchor="middle" x="386" y="-1687.2" font-family="Times,serif" font-size="11.00">AppointmentsController</text>
</g>
<!-- \\AppointmentsController&#45;&gt;\\AppController -->
<g id="edge6" class="edge"><title>\\AppointmentsController&#45;&gt;\\AppController</title>
<path fill="none" stroke="black" d="M333.722,-1672C330.111,-1669.38 326.799,-1666.4 324,-1663 264.896,-1591.29 226.843,-1297.9 216.114,-1205.21"/>
<polygon fill="none" stroke="black" points="219.579,-1204.71 214.968,-1195.17 212.625,-1205.5 219.579,-1204.71"/>
</g>
<!-- \\InteractiveWorldInterfaceController -->
<g id="node7" class="node"><title>\\InteractiveWorldInterfaceController</title>
<polygon fill="none" stroke="black" points="698,-1924 520,-1924 520,-1888 698,-1888 698,-1924"/>
<text text-anchor="middle" x="609" y="-1903.2" font-family="Times,serif" font-size="11.00">InteractiveWorldInterfaceController</text>
</g>
<!-- \\InterfaceController -->
<g id="node29" class="node"><title>\\InterfaceController</title>
<polygon fill="none" stroke="black" points="437,-1276 335,-1276 335,-1240 437,-1240 437,-1276"/>
<text text-anchor="start" x="363" y="-1261.2" font-family="Times,serif" font-size="11.00">«abstract»</text>
<text text-anchor="start" x="343" y="-1249.2" font-family="Times,serif" font-size="11.00">InterfaceController</text>
</g>
<!-- \\InteractiveWorldInterfaceController&#45;&gt;\\InterfaceController -->
<g id="edge7" class="edge"><title>\\InteractiveWorldInterfaceController&#45;&gt;\\InterfaceController</title>
<path fill="none" stroke="black" d="M529.378,-1887.78C525.933,-1885.22 522.769,-1882.31 520,-1879 349.321,-1675.07 606.25,-1498.72 448,-1285 447.074,-1283.75 446.077,-1282.56 445.019,-1281.42"/>
<polygon fill="none" stroke="black" points="447.1,-1278.59 437.261,-1274.66 442.503,-1283.87 447.1,-1278.59"/>
</g>
<!-- \\RosbridgesController -->
<g id="node8" class="node"><title>\\RosbridgesController</title>
<polygon fill="none" stroke="black" points="441.5,-1654 330.5,-1654 330.5,-1618 441.5,-1618 441.5,-1654"/>
<text text-anchor="middle" x="386" y="-1633.2" font-family="Times,serif" font-size="11.00">RosbridgesController</text>
</g>
<!-- \\RosbridgesController&#45;&gt;\\AppController -->
<g id="edge8" class="edge"><title>\\RosbridgesController&#45;&gt;\\AppController</title>
<path fill="none" stroke="black" d="M333.821,-1617.91C330.189,-1615.31 326.845,-1612.36 324,-1609 220.48,-1486.79 211.778,-1280.07 212.255,-1205.17"/>
<polygon fill="none" stroke="black" points="215.755,-1205.14 212.381,-1195.1 208.756,-1205.05 215.755,-1205.14"/>
</g>
<!-- \\ConditionsController -->
<g id="node9" class="node"><title>\\ConditionsController</title>
<polygon fill="none" stroke="black" points="440.5,-1600 331.5,-1600 331.5,-1564 440.5,-1564 440.5,-1600"/>
<text text-anchor="middle" x="386" y="-1579.2" font-family="Times,serif" font-size="11.00">ConditionsController</text>
</g>
<!-- \\ConditionsController&#45;&gt;\\AppController -->
<g id="edge9" class="edge"><title>\\ConditionsController&#45;&gt;\\AppController</title>
<path fill="none" stroke="black" d="M333.945,-1563.81C330.286,-1561.23 326.901,-1558.31 324,-1555 232.403,-1450.54 216.28,-1273.86 213.527,-1205.34"/>
<polygon fill="none" stroke="black" points="217.024,-1205.18 213.191,-1195.3 210.028,-1205.41 217.024,-1205.18"/>
</g>
<!-- \\ExperimentController -->
<g id="node10" class="node"><title>\\ExperimentController</title>
<polygon fill="none" stroke="black" points="442.5,-1546 329.5,-1546 329.5,-1510 442.5,-1510 442.5,-1546"/>
<text text-anchor="middle" x="386" y="-1525.2" font-family="Times,serif" font-size="11.00">ExperimentController</text>
</g>
<!-- \\ExperimentController&#45;&gt;\\AppController -->
<g id="edge10" class="edge"><title>\\ExperimentController&#45;&gt;\\AppController</title>
<path fill="none" stroke="black" d="M334.396,-1509.87C330.591,-1507.27 327.052,-1504.33 324,-1501 244.204,-1413.97 221.414,-1267.01 215.205,-1205.46"/>
<polygon fill="none" stroke="black" points="218.673,-1204.95 214.257,-1195.32 211.703,-1205.61 218.673,-1204.95"/>
</g>
<!-- \\EnvironmentsController -->
<g id="node11" class="node"><title>\\EnvironmentsController</title>
<polygon fill="none" stroke="black" points="447,-1492 325,-1492 325,-1456 447,-1456 447,-1492"/>
<text text-anchor="middle" x="386" y="-1471.2" font-family="Times,serif" font-size="11.00">EnvironmentsController</text>
</g>
<!-- \\EnvironmentsController&#45;&gt;\\AppController -->
<g id="edge11" class="edge"><title>\\EnvironmentsController&#45;&gt;\\AppController</title>
<path fill="none" stroke="black" d="M334.905,-1455.86C330.943,-1453.26 327.232,-1450.32 324,-1447 255.718,-1376.87 227.288,-1258.89 217.441,-1205.17"/>
<polygon fill="none" stroke="black" points="220.888,-1204.56 215.714,-1195.32 213.993,-1205.77 220.888,-1204.56"/>
</g>
<!-- \\PagesController -->
<g id="node12" class="node"><title>\\PagesController</title>
<polygon fill="none" stroke="black" points="430,-1438 342,-1438 342,-1402 430,-1402 430,-1438"/>
<text text-anchor="middle" x="386" y="-1417.2" font-family="Times,serif" font-size="11.00">PagesController</text>
</g>
<!-- \\PagesController&#45;&gt;\\AppController -->
<g id="edge12" class="edge"><title>\\PagesController&#45;&gt;\\AppController</title>
<path fill="none" stroke="black" d="M341.998,-1405.47C335.493,-1402.05 329.222,-1397.93 324,-1393 267.103,-1339.31 234.372,-1249.98 220.666,-1204.88"/>
<polygon fill="none" stroke="black" points="223.992,-1203.78 217.807,-1195.18 217.278,-1205.76 223.992,-1203.78"/>
</g>
<!-- \\GlobalController -->
<g id="node13" class="node"><title>\\GlobalController</title>
<polygon fill="none" stroke="black" points="432,-1384 340,-1384 340,-1348 432,-1348 432,-1384"/>
<text text-anchor="middle" x="386" y="-1363.2" font-family="Times,serif" font-size="11.00">GlobalController</text>
</g>
<!-- \\GlobalController&#45;&gt;\\AppController -->
<g id="edge13" class="edge"><title>\\GlobalController&#45;&gt;\\AppController</title>
<path fill="none" stroke="black" d="M339.981,-1349.56C334.305,-1346.51 328.81,-1343 324,-1339 278.342,-1301.06 243.441,-1239.78 225.788,-1204.47"/>
<polygon fill="none" stroke="black" points="228.81,-1202.68 221.271,-1195.24 222.522,-1205.76 228.81,-1202.68"/>
</g>
<!-- \\ContentController -->
<g id="node14" class="node"><title>\\ContentController</title>
<polygon fill="none" stroke="black" points="434,-1330 338,-1330 338,-1294 434,-1294 434,-1330"/>
<text text-anchor="middle" x="386" y="-1309.2" font-family="Times,serif" font-size="11.00">ContentController</text>
</g>
<!-- \\ContentController&#45;&gt;\\AppController -->
<g id="edge14" class="edge"><title>\\ContentController&#45;&gt;\\AppController</title>
<path fill="none" stroke="black" d="M339.393,-1293.99C334.049,-1291.25 328.798,-1288.24 324,-1285 289.172,-1261.47 255.488,-1226.4 234.538,-1202.66"/>
<polygon fill="none" stroke="black" points="237.143,-1200.33 227.938,-1195.08 231.863,-1204.92 237.143,-1200.33"/>
</g>
<!-- \\Controller -->
<g id="node67" class="node"><title>\\Controller</title>
<ellipse fill="none" stroke="black" cx="50" cy="-1177" rx="49.2915" ry="18"/>
<text text-anchor="middle" x="50" y="-1173.3" font-family="Times,serif" font-size="14.00" fill="gray">\Controller</text>
</g>
<!-- \\AppController&#45;&gt;\\Controller -->
<g id="edge15" class="edge"><title>\\AppController&#45;&gt;\\Controller</title>
<path fill="none" stroke="black" d="M171.86,-1177C153.096,-1177 130.234,-1177 109.464,-1177"/>
<polygon fill="none" stroke="black" points="109.463,-1173.5 99.4633,-1177 109.463,-1180.5 109.463,-1173.5"/>
</g>
<!-- \\BasicInterfaceController -->
<g id="node16" class="node"><title>\\BasicInterfaceController</title>
<polygon fill="none" stroke="black" points="673,-1870 545,-1870 545,-1834 673,-1834 673,-1870"/>
<text text-anchor="middle" x="609" y="-1849.2" font-family="Times,serif" font-size="11.00">BasicInterfaceController</text>
</g>
<!-- \\BasicInterfaceController&#45;&gt;\\InterfaceController -->
<g id="edge16" class="edge"><title>\\BasicInterfaceController&#45;&gt;\\InterfaceController</title>
<path fill="none" stroke="black" d="M544.906,-1842.39C535.416,-1838.39 526.611,-1832.8 520,-1825 363.497,-1640.25 593.24,-1478.73 448,-1285 447.066,-1283.75 446.063,-1282.57 444.999,-1281.43"/>
<polygon fill="none" stroke="black" points="447.064,-1278.59 437.211,-1274.7 442.485,-1283.88 447.064,-1278.59"/>
</g>
<!-- \\EmailsController -->
<g id="node17" class="node"><title>\\EmailsController</title>
<polygon fill="none" stroke="black" points="432,-1222 340,-1222 340,-1186 432,-1186 432,-1222"/>
<text text-anchor="middle" x="386" y="-1201.2" font-family="Times,serif" font-size="11.00">EmailsController</text>
</g>
<!-- \\EmailsController&#45;&gt;\\AppController -->
<g id="edge17" class="edge"><title>\\EmailsController&#45;&gt;\\AppController</title>
<path fill="none" stroke="black" d="M339.809,-1196.91C315.946,-1193.16 286.626,-1188.56 262.192,-1184.72"/>
<polygon fill="none" stroke="black" points="262.471,-1181.22 252.05,-1183.13 261.386,-1188.14 262.471,-1181.22"/>
</g>
<!-- \\RosController -->
<g id="node18" class="node"><title>\\RosController</title>
<polygon fill="none" stroke="black" points="425.5,-1168 346.5,-1168 346.5,-1132 425.5,-1132 425.5,-1168"/>
<text text-anchor="middle" x="386" y="-1147.2" font-family="Times,serif" font-size="11.00">RosController</text>
</g>
<!-- \\RosController&#45;&gt;\\AppController -->
<g id="edge18" class="edge"><title>\\RosController&#45;&gt;\\AppController</title>
<path fill="none" stroke="black" d="M346.4,-1156.06C321.457,-1159.97 288.779,-1165.1 262.009,-1169.31"/>
<polygon fill="none" stroke="black" points="261.403,-1165.86 252.066,-1170.87 262.488,-1172.77 261.403,-1165.86"/>
</g>
<!-- \\ResourcesController -->
<g id="node19" class="node"><title>\\ResourcesController</title>
<polygon fill="none" stroke="black" points="440,-1114 332,-1114 332,-1078 440,-1078 440,-1114"/>
<text text-anchor="middle" x="386" y="-1093.2" font-family="Times,serif" font-size="11.00">ResourcesController</text>
</g>
<!-- \\ResourcesController&#45;&gt;\\AppController -->
<g id="edge19" class="edge"><title>\\ResourcesController&#45;&gt;\\AppController</title>
<path fill="none" stroke="black" d="M343.565,-1114.1C337.001,-1117.04 330.302,-1120.07 324,-1123 302.355,-1133.05 278.536,-1144.58 258.531,-1154.39"/>
<polygon fill="none" stroke="black" points="256.766,-1151.36 249.337,-1158.91 259.855,-1157.64 256.766,-1151.36"/>
</g>
<!-- \\StudiesController -->
<g id="node20" class="node"><title>\\StudiesController</title>
<polygon fill="none" stroke="black" points="433,-1060 339,-1060 339,-1024 433,-1024 433,-1060"/>
<text text-anchor="middle" x="386" y="-1039.2" font-family="Times,serif" font-size="11.00">StudiesController</text>
</g>
<!-- \\StudiesController&#45;&gt;\\AppController -->
<g id="edge20" class="edge"><title>\\StudiesController&#45;&gt;\\AppController</title>
<path fill="none" stroke="black" d="M339.393,-1060.01C334.049,-1062.75 328.798,-1065.76 324,-1069 289.172,-1092.53 255.488,-1127.6 234.538,-1151.34"/>
<polygon fill="none" stroke="black" points="231.863,-1149.08 227.938,-1158.92 237.143,-1153.67 231.863,-1149.08"/>
</g>
<!-- \\TeleopsController -->
<g id="node21" class="node"><title>\\TeleopsController</title>
<polygon fill="none" stroke="black" points="434.5,-1006 337.5,-1006 337.5,-970 434.5,-970 434.5,-1006"/>
<text text-anchor="middle" x="386" y="-985.2" font-family="Times,serif" font-size="11.00">TeleopsController</text>
</g>
<!-- \\TeleopsController&#45;&gt;\\AppController -->
<g id="edge21" class="edge"><title>\\TeleopsController&#45;&gt;\\AppController</title>
<path fill="none" stroke="black" d="M337.472,-1005.82C332.692,-1008.54 328.097,-1011.59 324,-1015 278.342,-1052.94 243.441,-1114.22 225.788,-1149.53"/>
<polygon fill="none" stroke="black" points="222.522,-1148.24 221.271,-1158.76 228.81,-1151.32 222.522,-1148.24"/>
</g>
<!-- \\UsersController -->
<g id="node22" class="node"><title>\\UsersController</title>
<polygon fill="none" stroke="black" points="430,-952 342,-952 342,-916 430,-916 430,-952"/>
<text text-anchor="middle" x="386" y="-931.2" font-family="Times,serif" font-size="11.00">UsersController</text>
</g>
<!-- \\UsersController&#45;&gt;\\AppController -->
<g id="edge22" class="edge"><title>\\UsersController&#45;&gt;\\AppController</title>
<path fill="none" stroke="black" d="M341.998,-948.526C335.493,-951.947 329.222,-956.072 324,-961 267.103,-1014.69 234.372,-1104.02 220.666,-1149.12"/>
<polygon fill="none" stroke="black" points="217.278,-1148.24 217.807,-1158.82 223.992,-1150.22 217.278,-1148.24"/>
</g>
<!-- \\UrdfsController -->
<g id="node23" class="node"><title>\\UrdfsController</title>
<polygon fill="none" stroke="black" points="429.5,-898 342.5,-898 342.5,-862 429.5,-862 429.5,-898"/>
<text text-anchor="middle" x="386" y="-877.2" font-family="Times,serif" font-size="11.00">UrdfsController</text>
</g>
<!-- \\UrdfsController&#45;&gt;\\AppController -->
<g id="edge23" class="edge"><title>\\UrdfsController&#45;&gt;\\AppController</title>
<path fill="none" stroke="black" d="M342.257,-893.82C335.569,-897.347 329.171,-901.69 324,-907 255.718,-977.127 227.288,-1095.11 217.441,-1148.83"/>
<polygon fill="none" stroke="black" points="213.993,-1148.23 215.714,-1158.68 220.888,-1149.44 213.993,-1148.23"/>
</g>
<!-- \\LogsController -->
<g id="node24" class="node"><title>\\LogsController</title>
<polygon fill="none" stroke="black" points="427.5,-844 344.5,-844 344.5,-808 427.5,-808 427.5,-844"/>
<text text-anchor="middle" x="386" y="-823.2" font-family="Times,serif" font-size="11.00">LogsController</text>
</g>
<!-- \\LogsController&#45;&gt;\\AppController -->
<g id="edge24" class="edge"><title>\\LogsController&#45;&gt;\\AppController</title>
<path fill="none" stroke="black" d="M344.495,-838.269C336.926,-842.029 329.635,-846.854 324,-853 244.204,-940.028 221.414,-1086.99 215.205,-1148.54"/>
<polygon fill="none" stroke="black" points="211.703,-1148.39 214.257,-1158.68 218.673,-1149.05 211.703,-1148.39"/>
</g>
<!-- \\ImsController -->
<g id="node25" class="node"><title>\\ImsController</title>
<polygon fill="none" stroke="black" points="425,-790 347,-790 347,-754 425,-754 425,-790"/>
<text text-anchor="middle" x="386" y="-769.2" font-family="Times,serif" font-size="11.00">ImsController</text>
</g>
<!-- \\ImsController&#45;&gt;\\AppController -->
<g id="edge25" class="edge"><title>\\ImsController&#45;&gt;\\AppController</title>
<path fill="none" stroke="black" d="M346.809,-782.86C338.356,-786.785 330.108,-792.034 324,-799 232.403,-903.465 216.28,-1080.14 213.527,-1148.66"/>
<polygon fill="none" stroke="black" points="210.028,-1148.59 213.191,-1158.7 217.024,-1148.82 210.028,-1148.59"/>
</g>
<!-- \\SlotsController -->
<g id="node26" class="node"><title>\\SlotsController</title>
<polygon fill="none" stroke="black" points="427.5,-736 344.5,-736 344.5,-700 427.5,-700 427.5,-736"/>
<text text-anchor="middle" x="386" y="-715.2" font-family="Times,serif" font-size="11.00">SlotsController</text>
</g>
<!-- \\SlotsController&#45;&gt;\\AppController -->
<g id="edge26" class="edge"><title>\\SlotsController&#45;&gt;\\AppController</title>
<path fill="none" stroke="black" d="M344.429,-729.776C336.773,-733.582 329.465,-738.549 324,-745 220.48,-867.208 211.778,-1073.93 212.255,-1148.83"/>
<polygon fill="none" stroke="black" points="208.756,-1148.95 212.381,-1158.9 215.755,-1148.86 208.756,-1148.95"/>
</g>
<!-- \\SubscriptionsController -->
<g id="node27" class="node"><title>\\SubscriptionsController</title>
<polygon fill="none" stroke="black" points="446.5,-682 325.5,-682 325.5,-646 446.5,-646 446.5,-682"/>
<text text-anchor="middle" x="386" y="-661.2" font-family="Times,serif" font-size="11.00">SubscriptionsController</text>
</g>
<!-- \\SubscriptionsController&#45;&gt;\\AppController -->
<g id="edge27" class="edge"><title>\\SubscriptionsController&#45;&gt;\\AppController</title>
<path fill="none" stroke="black" d="M333.722,-682.004C330.111,-684.621 326.799,-687.604 324,-691 264.896,-762.712 226.843,-1056.1 216.114,-1148.79"/>
<polygon fill="none" stroke="black" points="212.625,-1148.5 214.968,-1158.83 219.579,-1149.29 212.625,-1148.5"/>
</g>
<!-- \\StreamsController -->
<g id="node28" class="node"><title>\\StreamsController</title>
<polygon fill="none" stroke="black" points="435,-628 337,-628 337,-592 435,-592 435,-628"/>
<text text-anchor="middle" x="386" y="-607.2" font-family="Times,serif" font-size="11.00">StreamsController</text>
</g>
<!-- \\StreamsController&#45;&gt;\\AppController -->
<g id="edge28" class="edge"><title>\\StreamsController&#45;&gt;\\AppController</title>
<path fill="none" stroke="black" d="M336.834,-625.745C331.994,-628.866 327.561,-632.582 324,-637 258.87,-717.803 224.429,-1049.24 215.422,-1148.67"/>
<polygon fill="none" stroke="black" points="211.917,-1148.58 214.516,-1158.85 218.889,-1149.2 211.917,-1148.58"/>
</g>
<!-- \\InterfaceController&#45;&gt;\\AppController -->
<g id="edge29" class="edge"><title>\\InterfaceController&#45;&gt;\\AppController</title>
<path fill="none" stroke="black" d="M343.565,-1239.9C337.001,-1236.96 330.302,-1233.93 324,-1231 302.355,-1220.95 278.536,-1209.42 258.531,-1199.61"/>
<polygon fill="none" stroke="black" points="259.855,-1196.36 249.337,-1195.09 256.766,-1202.64 259.855,-1196.36"/>
</g>
<!-- \\MjpegsController -->
<g id="node30" class="node"><title>\\MjpegsController</title>
<polygon fill="none" stroke="black" points="433.5,-574 338.5,-574 338.5,-538 433.5,-538 433.5,-574"/>
<text text-anchor="middle" x="386" y="-553.2" font-family="Times,serif" font-size="11.00">MjpegsController</text>
</g>
<!-- \\MjpegsController&#45;&gt;\\AppController -->
<g id="edge30" class="edge"><title>\\MjpegsController&#45;&gt;\\AppController</title>
<path fill="none" stroke="black" d="M338.246,-570.742C332.838,-574.059 327.881,-578.096 324,-583 252.795,-672.985 222.229,-1042.93 214.843,-1148.66"/>
<polygon fill="none" stroke="black" points="211.335,-1148.65 214.145,-1158.87 218.319,-1149.13 211.335,-1148.65"/>
</g>
<!-- \\ArticlesController -->
<g id="node31" class="node"><title>\\ArticlesController</title>
<polygon fill="none" stroke="black" points="435,-520 337,-520 337,-484 435,-484 435,-520"/>
<text text-anchor="middle" x="386" y="-499.2" font-family="Times,serif" font-size="11.00">ArticlesController</text>
</g>
<!-- \\ArticlesController&#45;&gt;\\AppController -->
<g id="edge31" class="edge"><title>\\ArticlesController&#45;&gt;\\AppController</title>
<path fill="none" stroke="black" d="M336.985,-517.439C332.055,-520.619 327.559,-524.432 324,-529 246.692,-628.226 220.223,-1036.94 214.357,-1148.66"/>
<polygon fill="none" stroke="black" points="210.853,-1148.65 213.838,-1158.81 217.844,-1149.01 210.853,-1148.65"/>
</g>
<!-- \\SettingsController -->
<g id="node32" class="node"><title>\\SettingsController</title>
<polygon fill="none" stroke="black" points="434.5,-466 337.5,-466 337.5,-430 434.5,-430 434.5,-466"/>
<text text-anchor="middle" x="386" y="-445.2" font-family="Times,serif" font-size="11.00">SettingsController</text>
</g>
<!-- \\SettingsController&#45;&gt;\\AppController -->
<g id="edge32" class="edge"><title>\\SettingsController&#45;&gt;\\AppController</title>
<path fill="none" stroke="black" d="M337.224,-463.204C332.187,-466.429 327.6,-470.318 324,-475 240.577,-583.503 218.383,-1031.12 213.945,-1148.64"/>
<polygon fill="none" stroke="black" points="210.436,-1148.84 213.57,-1158.96 217.431,-1149.09 210.436,-1148.84"/>
</g>
<!-- \\IfacesController -->
<g id="node33" class="node"><title>\\IfacesController</title>
<polygon fill="none" stroke="black" points="430.5,-1924 341.5,-1924 341.5,-1888 430.5,-1888 430.5,-1924"/>
<text text-anchor="middle" x="386" y="-1903.2" font-family="Times,serif" font-size="11.00">IfacesController</text>
</g>
<!-- \\IfacesController&#45;&gt;\\AppController -->
<g id="edge33" class="edge"><title>\\IfacesController&#45;&gt;\\AppController</title>
<path fill="none" stroke="black" d="M341.463,-1893.3C334.779,-1889.65 328.588,-1884.97 324,-1879 240.577,-1770.5 218.383,-1322.88 213.945,-1205.36"/>
<polygon fill="none" stroke="black" points="217.431,-1204.91 213.57,-1195.04 210.436,-1205.16 217.431,-1204.91"/>
</g>
<!-- \\MarkersController -->
<g id="node34" class="node"><title>\\MarkersController</title>
<polygon fill="none" stroke="black" points="435.5,-1870 336.5,-1870 336.5,-1834 435.5,-1834 435.5,-1870"/>
<text text-anchor="middle" x="386" y="-1849.2" font-family="Times,serif" font-size="11.00">MarkersController</text>
</g>
<!-- \\MarkersController&#45;&gt;\\AppController -->
<g id="edge34" class="edge"><title>\\MarkersController&#45;&gt;\\AppController</title>
<path fill="none" stroke="black" d="M336.396,-1836.18C331.696,-1833.08 327.417,-1829.39 324,-1825 246.692,-1725.77 220.223,-1317.06 214.357,-1205.34"/>
<polygon fill="none" stroke="black" points="217.844,-1204.99 213.838,-1195.19 210.853,-1205.35 217.844,-1204.99"/>
</g>
<!-- \\EmailConfig -->
<g id="node35" class="node"><title>\\EmailConfig</title>
<polygon fill="none" stroke="black" points="645.5,-1708 572.5,-1708 572.5,-1672 645.5,-1672 645.5,-1708"/>
<text text-anchor="middle" x="609" y="-1687.2" font-family="Times,serif" font-size="11.00">EmailConfig</text>
</g>
<!-- \\DATABASE_CONFIG -->
<g id="node36" class="node"><title>\\DATABASE_CONFIG</title>
<polygon fill="none" stroke="black" points="671,-1654 547,-1654 547,-1618 671,-1618 671,-1654"/>
<text text-anchor="middle" x="609" y="-1633.2" font-family="Times,serif" font-size="11.00">DATABASE_CONFIG</text>
</g>
<!-- \\Appointment -->
<g id="node37" class="node"><title>\\Appointment</title>
<polygon fill="none" stroke="black" points="646,-1168 572,-1168 572,-1132 646,-1132 646,-1168"/>
<text text-anchor="middle" x="609" y="-1147.2" font-family="Times,serif" font-size="11.00">Appointment</text>
</g>
<!-- \\AppModel -->
<g id="node46" class="node"><title>\\AppModel</title>
<polygon fill="none" stroke="black" points="418,-358 354,-358 354,-322 418,-322 418,-358"/>
<text text-anchor="middle" x="386" y="-337.2" font-family="Times,serif" font-size="11.00">AppModel</text>
</g>
<!-- \\Appointment&#45;&gt;\\AppModel -->
<g id="edge35" class="edge"><title>\\Appointment&#45;&gt;\\AppModel</title>
<path fill="none" stroke="black" d="M571.926,-1148.12C553.56,-1145.17 532.522,-1138.36 520,-1123 413.358,-992.205 546.676,-503.905 448,-367 442.889,-359.91 435.491,-354.653 427.597,-350.766"/>
<polygon fill="none" stroke="black" points="428.785,-347.468 418.211,-346.803 426.062,-353.917 428.785,-347.468"/>
</g>
<!-- \\Protocol -->
<g id="node38" class="node"><title>\\Protocol</title>
<polygon fill="none" stroke="black" points="636,-1114 582,-1114 582,-1078 636,-1078 636,-1114"/>
<text text-anchor="middle" x="609" y="-1093.2" font-family="Times,serif" font-size="11.00">Protocol</text>
</g>
<!-- \\Protocol&#45;&gt;\\AppModel -->
<g id="edge36" class="edge"><title>\\Protocol&#45;&gt;\\AppModel</title>
<path fill="none" stroke="black" d="M581.834,-1095.36C561.713,-1093.36 534.911,-1087.15 520,-1069 320.927,-826.641 632.308,-620.768 448,-367 442.864,-359.928 435.455,-354.679 427.559,-350.793"/>
<polygon fill="none" stroke="black" points="428.747,-347.496 418.174,-346.83 426.024,-353.945 428.747,-347.496"/>
</g>
<!-- \\Teleop -->
<g id="node39" class="node"><title>\\Teleop</title>
<polygon fill="none" stroke="black" points="636,-1060 582,-1060 582,-1024 636,-1024 636,-1060"/>
<text text-anchor="middle" x="609" y="-1039.2" font-family="Times,serif" font-size="11.00">Teleop</text>
</g>
<!-- \\Teleop&#45;&gt;\\AppModel -->
<g id="edge37" class="edge"><title>\\Teleop&#45;&gt;\\AppModel</title>
<path fill="none" stroke="black" d="M581.876,-1041.32C561.779,-1039.31 534.987,-1033.09 520,-1015 335.13,-791.861 619.274,-600.738 448,-367 442.834,-359.95 435.412,-354.71 427.514,-350.826"/>
<polygon fill="none" stroke="black" points="428.704,-347.529 418.13,-346.862 425.98,-353.977 428.704,-347.529"/>
</g>
<!-- \\Environment -->
<g id="node40" class="node"><title>\\Environment</title>
<polygon fill="none" stroke="black" points="645.5,-1006 572.5,-1006 572.5,-970 645.5,-970 645.5,-1006"/>
<text text-anchor="middle" x="609" y="-985.2" font-family="Times,serif" font-size="11.00">Environment</text>
</g>
<!-- \\Environment&#45;&gt;\\AppModel -->
<g id="edge38" class="edge"><title>\\Environment&#45;&gt;\\AppModel</title>
<path fill="none" stroke="black" d="M572.082,-985.988C553.762,-983.006 532.718,-976.196 520,-961 349.321,-757.067 606.25,-580.722 448,-367 442.799,-359.976 435.363,-354.746 427.462,-350.864"/>
<polygon fill="none" stroke="black" points="428.653,-347.568 418.079,-346.899 425.928,-354.016 428.653,-347.568"/>
</g>
<!-- \\Im -->
<g id="node41" class="node"><title>\\Im</title>
<polygon fill="none" stroke="black" points="636,-952 582,-952 582,-916 636,-916 636,-952"/>
<text text-anchor="middle" x="609" y="-931.2" font-family="Times,serif" font-size="11.00">Im</text>
</g>
<!-- \\Im&#45;&gt;\\AppModel -->
<g id="edge39" class="edge"><title>\\Im&#45;&gt;\\AppModel</title>
<path fill="none" stroke="black" d="M581.983,-933.232C561.946,-931.167 535.184,-924.925 520,-907 363.497,-722.255 593.24,-560.725 448,-367 442.757,-360.007 435.304,-354.79 427.4,-350.911"/>
<polygon fill="none" stroke="black" points="428.592,-347.615 418.019,-346.944 425.866,-354.062 428.592,-347.615"/>
</g>
<!-- \\Log -->
<g id="node42" class="node"><title>\\Log</title>
<polygon fill="none" stroke="black" points="636,-898 582,-898 582,-862 636,-862 636,-898"/>
<text text-anchor="middle" x="609" y="-877.2" font-family="Times,serif" font-size="11.00">Log</text>
</g>
<!-- \\Log&#45;&gt;\\AppModel -->
<g id="edge40" class="edge"><title>\\Log&#45;&gt;\\AppModel</title>
<path fill="none" stroke="black" d="M581.645,-879.129C561.694,-876.987 535.21,-870.693 520,-853 377.653,-687.418 580.249,-540.753 448,-367 442.757,-360.111 435.375,-354.944 427.55,-351.079"/>
<polygon fill="none" stroke="black" points="428.834,-347.822 418.262,-347.116 426.086,-354.26 428.834,-347.822"/>
</g>
<!-- \\User -->
<g id="node43" class="node"><title>\\User</title>
<polygon fill="none" stroke="black" points="636,-844 582,-844 582,-808 636,-808 636,-844"/>
<text text-anchor="middle" x="609" y="-823.2" font-family="Times,serif" font-size="11.00">User</text>
</g>
<!-- \\User&#45;&gt;\\AppModel -->
<g id="edge41" class="edge"><title>\\User&#45;&gt;\\AppModel</title>
<path fill="none" stroke="black" d="M581.733,-825.052C561.831,-822.868 535.369,-816.555 520,-799 391.78,-652.55 567.284,-520.816 448,-367 442.695,-360.159 435.287,-355.011 427.457,-351.151"/>
<polygon fill="none" stroke="black" points="428.742,-347.894 418.171,-347.186 425.994,-354.332 428.742,-347.894"/>
</g>
<!-- \\Stream -->
<g id="node44" class="node"><title>\\Stream</title>
<polygon fill="none" stroke="black" points="636,-790 582,-790 582,-754 636,-754 636,-790"/>
<text text-anchor="middle" x="609" y="-769.2" font-family="Times,serif" font-size="11.00">Stream</text>
</g>
<!-- \\Stream&#45;&gt;\\AppModel -->
<g id="edge42" class="edge"><title>\\Stream&#45;&gt;\\AppModel</title>
<path fill="none" stroke="black" d="M581.845,-770.953C562.004,-768.714 535.571,-762.376 520,-745 405.868,-617.635 554.356,-500.926 448,-367 442.616,-360.221 435.176,-355.098 427.339,-351.243"/>
<polygon fill="none" stroke="black" points="428.627,-347.988 418.056,-347.277 425.876,-354.425 428.627,-347.988"/>
</g>
<!-- \\Email -->
<g id="node45" class="node"><title>\\Email</title>
<polygon fill="none" stroke="black" points="636,-736 582,-736 582,-700 636,-700 636,-736"/>
<text text-anchor="middle" x="609" y="-715.2" font-family="Times,serif" font-size="11.00">Email</text>
</g>
<!-- \\Email&#45;&gt;\\AppModel -->
<g id="edge43" class="edge"><title>\\Email&#45;&gt;\\AppModel</title>
<path fill="none" stroke="black" d="M581.99,-716.821C562.229,-714.509 535.833,-708.137 520,-691 419.895,-582.653 541.485,-481.108 448,-367 442.566,-360.368 435.174,-355.314 427.41,-351.479"/>
<polygon fill="none" stroke="black" points="428.79,-348.262 418.221,-347.517 426.018,-354.69 428.79,-348.262"/>
</g>
<!-- \\Model -->
<g id="node68" class="node"><title>\\Model</title>
<ellipse fill="none" stroke="black" cx="212" cy="-18" rx="36.2938" ry="18"/>
<text text-anchor="middle" x="212" y="-14.3" font-family="Times,serif" font-size="14.00" fill="gray">\Model</text>
</g>
<!-- \\AppModel&#45;&gt;\\Model -->
<g id="edge44" class="edge"><title>\\AppModel&#45;&gt;\\Model</title>
<path fill="none" stroke="black" d="M380.52,-321.893C367.645,-272.753 326.598,-134.579 252,-45 249.892,-42.4687 247.491,-40.0693 244.939,-37.8223"/>
<polygon fill="none" stroke="black" points="247,-34.9907 236.977,-31.5593 242.673,-40.4927 247,-34.9907"/>
</g>
<!-- \\Collada -->
<g id="node47" class="node"><title>\\Collada</title>
<polygon fill="none" stroke="black" points="636,-682 582,-682 582,-646 636,-646 636,-682"/>
<text text-anchor="middle" x="609" y="-661.2" font-family="Times,serif" font-size="11.00">Collada</text>
</g>
<!-- \\Collada&#45;&gt;\\AppModel -->
<g id="edge45" class="edge"><title>\\Collada&#45;&gt;\\AppModel</title>
<path fill="none" stroke="black" d="M581.782,-662.585C562.175,-660.132 536.078,-653.686 520,-637 433.826,-547.568 528.703,-461.398 448,-367 442.429,-360.483 434.978,-355.478 427.202,-351.654"/>
<polygon fill="none" stroke="black" points="428.584,-348.439 418.016,-347.689 425.81,-354.865 428.584,-348.439"/>
</g>
<!-- \\Slot -->
<g id="node48" class="node"><title>\\Slot</title>
<polygon fill="none" stroke="black" points="636,-628 582,-628 582,-592 636,-592 636,-628"/>
<text text-anchor="middle" x="609" y="-607.2" font-family="Times,serif" font-size="11.00">Slot</text>
</g>
<!-- \\Slot&#45;&gt;\\AppModel -->
<g id="edge46" class="edge"><title>\\Slot&#45;&gt;\\AppModel</title>
<path fill="none" stroke="black" d="M581.662,-608.249C562.252,-605.609 536.467,-599.075 520,-583 447.591,-512.311 516.078,-441.869 448,-367 442.35,-360.786 435.006,-355.927 427.382,-352.152"/>
<polygon fill="none" stroke="black" points="428.602,-348.866 418.037,-348.068 425.799,-355.28 428.602,-348.866"/>
</g>
<!-- \\Page -->
<g id="node49" class="node"><title>\\Page</title>
<polygon fill="none" stroke="black" points="636,-574 582,-574 582,-538 636,-538 636,-574"/>
<text text-anchor="middle" x="609" y="-553.2" font-family="Times,serif" font-size="11.00">Page</text>
</g>
<!-- \\Page&#45;&gt;\\AppModel -->
<g id="edge47" class="edge"><title>\\Page&#45;&gt;\\AppModel</title>
<path fill="none" stroke="black" d="M581.696,-553.721C562.557,-550.805 537.103,-544.157 520,-529 461.032,-476.743 503.756,-422.671 448,-367 442.238,-361.246 435.039,-356.616 427.628,-352.927"/>
<polygon fill="none" stroke="black" points="428.778,-349.608 418.218,-348.743 425.934,-356.004 428.778,-349.608"/>
</g>
<!-- \\Condition -->
<g id="node50" class="node"><title>\\Condition</title>
<polygon fill="none" stroke="black" points="638.5,-520 579.5,-520 579.5,-484 638.5,-484 638.5,-520"/>
<text text-anchor="middle" x="609" y="-499.2" font-family="Times,serif" font-size="11.00">Condition</text>
</g>
<!-- \\Condition&#45;&gt;\\AppModel -->
<g id="edge48" class="edge"><title>\\Condition&#45;&gt;\\AppModel</title>
<path fill="none" stroke="black" d="M579.201,-498.244C560.827,-494.692 537.301,-487.888 520,-475 473.737,-440.537 492.132,-404.153 448,-367 441.895,-361.861 434.657,-357.532 427.339,-353.949"/>
<polygon fill="none" stroke="black" points="428.661,-350.706 418.104,-349.806 425.795,-357.093 428.661,-350.706"/>
</g>
<!-- \\Subscription -->
<g id="node51" class="node"><title>\\Subscription</title>
<polygon fill="none" stroke="black" points="644.5,-466 573.5,-466 573.5,-430 644.5,-430 644.5,-466"/>
<text text-anchor="middle" x="609" y="-445.2" font-family="Times,serif" font-size="11.00">Subscription</text>
</g>
<!-- \\Subscription&#45;&gt;\\AppModel -->
<g id="edge49" class="edge"><title>\\Subscription&#45;&gt;\\AppModel</title>
<path fill="none" stroke="black" d="M573.081,-440.262C556.478,-435.846 536.665,-429.478 520,-421 484.348,-402.863 482.51,-387.225 448,-367 441.543,-363.216 434.458,-359.621 427.475,-356.362"/>
<polygon fill="none" stroke="black" points="428.639,-353.048 418.083,-352.14 425.768,-359.433 428.639,-353.048"/>
</g>
<!-- \\Urdf -->
<g id="node52" class="node"><title>\\Urdf</title>
<polygon fill="none" stroke="black" points="636,-412 582,-412 582,-376 636,-376 636,-412"/>
<text text-anchor="middle" x="609" y="-391.2" font-family="Times,serif" font-size="11.00">Urdf</text>
</g>
<!-- \\Urdf&#45;&gt;\\AppModel -->
<g id="edge50" class="edge"><title>\\Urdf&#45;&gt;\\AppModel</title>
<path fill="none" stroke="black" d="M581.781,-387.593C543.726,-378.295 472.838,-360.974 427.884,-349.99"/>
<polygon fill="none" stroke="black" points="428.7,-346.586 418.155,-347.613 427.038,-353.386 428.7,-346.586"/>
</g>
<!-- \\Tf -->
<g id="node53" class="node"><title>\\Tf</title>
<polygon fill="none" stroke="black" points="636,-358 582,-358 582,-322 636,-322 636,-358"/>
<text text-anchor="middle" x="609" y="-337.2" font-family="Times,serif" font-size="11.00">Tf</text>
</g>
<!-- \\Tf&#45;&gt;\\AppModel -->
<g id="edge51" class="edge"><title>\\Tf&#45;&gt;\\AppModel</title>
<path fill="none" stroke="black" d="M581.781,-340C543.806,-340 473.136,-340 428.168,-340"/>
<polygon fill="none" stroke="black" points="428.155,-336.5 418.155,-340 428.155,-343.5 428.155,-336.5"/>
</g>
<!-- \\Resource -->
<g id="node54" class="node"><title>\\Resource</title>
<polygon fill="none" stroke="black" points="638.5,-304 579.5,-304 579.5,-268 638.5,-268 638.5,-304"/>
<text text-anchor="middle" x="609" y="-283.2" font-family="Times,serif" font-size="11.00">Resource</text>
</g>
<!-- \\Resource&#45;&gt;\\AppModel -->
<g id="edge52" class="edge"><title>\\Resource&#45;&gt;\\AppModel</title>
<path fill="none" stroke="black" d="M579.108,-293.06C540.466,-302.502 471.739,-319.295 427.82,-330.026"/>
<polygon fill="none" stroke="black" points="426.918,-326.643 418.035,-332.417 428.58,-333.443 426.918,-326.643"/>
</g>
<!-- \\Article -->
<g id="node55" class="node"><title>\\Article</title>
<polygon fill="none" stroke="black" points="636,-250 582,-250 582,-214 636,-214 636,-250"/>
<text text-anchor="middle" x="609" y="-229.2" font-family="Times,serif" font-size="11.00">Article</text>
</g>
<!-- \\Article&#45;&gt;\\AppModel -->
<g id="edge53" class="edge"><title>\\Article&#45;&gt;\\AppModel</title>
<path fill="none" stroke="black" d="M581.967,-238.159C564.116,-242.82 540.115,-249.96 520,-259 484.552,-274.931 446.978,-298.511 420.842,-316.126"/>
<polygon fill="none" stroke="black" points="418.731,-313.329 412.437,-321.852 422.672,-319.114 418.731,-313.329"/>
</g>
<!-- \\Setting -->
<g id="node56" class="node"><title>\\Setting</title>
<polygon fill="none" stroke="black" points="636,-1600 582,-1600 582,-1564 636,-1564 636,-1600"/>
<text text-anchor="middle" x="609" y="-1579.2" font-family="Times,serif" font-size="11.00">Setting</text>
</g>
<!-- \\Setting&#45;&gt;\\AppModel -->
<g id="edge54" class="edge"><title>\\Setting&#45;&gt;\\AppModel</title>
<path fill="none" stroke="black" d="M581.627,-1581.52C561.389,-1579.62 534.529,-1573.46 520,-1555 356.42,-1347.17 598.931,-584.19 448,-367 442.965,-359.754 435.524,-354.43 427.555,-350.525"/>
<polygon fill="none" stroke="black" points="428.647,-347.188 418.07,-346.563 425.949,-353.647 428.647,-347.188"/>
</g>
<!-- \\Type -->
<g id="node57" class="node"><title>\\Type</title>
<polygon fill="none" stroke="black" points="636,-1546 582,-1546 582,-1510 636,-1510 636,-1546"/>
<text text-anchor="middle" x="609" y="-1525.2" font-family="Times,serif" font-size="11.00">Type</text>
</g>
<!-- \\Type&#45;&gt;\\AppModel -->
<g id="edge55" class="edge"><title>\\Type&#45;&gt;\\AppModel</title>
<path fill="none" stroke="black" d="M581.641,-1527.51C561.411,-1525.6 534.556,-1519.44 520,-1501 363.543,-1302.81 592.395,-574.148 448,-367 442.954,-359.762 435.509,-354.44 427.54,-350.536"/>
<polygon fill="none" stroke="black" points="428.632,-347.199 418.055,-346.573 425.933,-353.658 428.632,-347.199"/>
</g>
<!-- \\Role -->
<g id="node58" class="node"><title>\\Role</title>
<polygon fill="none" stroke="black" points="636,-1492 582,-1492 582,-1456 636,-1456 636,-1492"/>
<text text-anchor="middle" x="609" y="-1471.2" font-family="Times,serif" font-size="11.00">Role</text>
</g>
<!-- \\Role&#45;&gt;\\AppModel -->
<g id="edge56" class="edge"><title>\\Role&#45;&gt;\\AppModel</title>
<path fill="none" stroke="black" d="M581.657,-1473.5C561.436,-1471.58 534.585,-1465.42 520,-1447 370.664,-1258.44 585.859,-564.107 448,-367 442.943,-359.77 435.493,-354.451 427.523,-350.548"/>
<polygon fill="none" stroke="black" points="428.615,-347.211 418.039,-346.585 425.917,-353.67 428.615,-347.211"/>
</g>
<!-- \\Study -->
<g id="node59" class="node"><title>\\Study</title>
<polygon fill="none" stroke="black" points="636,-1438 582,-1438 582,-1402 636,-1402 636,-1438"/>
<text text-anchor="middle" x="609" y="-1417.2" font-family="Times,serif" font-size="11.00">Study</text>
</g>
<!-- \\Study&#45;&gt;\\AppModel -->
<g id="edge57" class="edge"><title>\\Study&#45;&gt;\\AppModel</title>
<path fill="none" stroke="black" d="M581.675,-1419.49C561.463,-1417.56 534.617,-1411.39 520,-1393 377.784,-1214.07 579.324,-554.067 448,-367 442.93,-359.778 435.475,-354.464 427.504,-350.561"/>
<polygon fill="none" stroke="black" points="428.597,-347.224 418.021,-346.598 425.898,-353.683 428.597,-347.224"/>
</g>
<!-- \\Marker -->
<g id="node60" class="node"><title>\\Marker</title>
<polygon fill="none" stroke="black" points="636,-1384 582,-1384 582,-1348 636,-1348 636,-1384"/>
<text text-anchor="middle" x="609" y="-1363.2" font-family="Times,serif" font-size="11.00">Marker</text>
</g>
<!-- \\Marker&#45;&gt;\\AppModel -->
<g id="edge58" class="edge"><title>\\Marker&#45;&gt;\\AppModel</title>
<path fill="none" stroke="black" d="M581.694,-1365.47C561.494,-1363.54 534.653,-1357.36 520,-1339 384.903,-1169.7 572.79,-544.029 448,-367 442.916,-359.788 435.456,-354.478 427.483,-350.575"/>
<polygon fill="none" stroke="black" points="428.577,-347.239 418.001,-346.612 425.877,-353.698 428.577,-347.239"/>
</g>
<!-- \\Iface -->
<g id="node61" class="node"><title>\\Iface</title>
<polygon fill="none" stroke="black" points="636,-1330 582,-1330 582,-1294 636,-1294 636,-1330"/>
<text text-anchor="middle" x="609" y="-1309.2" font-family="Times,serif" font-size="11.00">Iface</text>
</g>
<!-- \\Iface&#45;&gt;\\AppModel -->
<g id="edge59" class="edge"><title>\\Iface&#45;&gt;\\AppModel</title>
<path fill="none" stroke="black" d="M581.716,-1311.45C561.527,-1309.51 534.692,-1303.33 520,-1285 392.02,-1125.33 566.259,-533.994 448,-367 442.949,-359.867 435.574,-354.593 427.686,-350.702"/>
<polygon fill="none" stroke="black" points="428.871,-347.404 418.297,-346.741 426.15,-353.853 428.871,-347.404"/>
</g>
<!-- \\Rosbridge -->
<g id="node62" class="node"><title>\\Rosbridge</title>
<polygon fill="none" stroke="black" points="640,-1276 578,-1276 578,-1240 640,-1240 640,-1276"/>
<text text-anchor="middle" x="609" y="-1255.2" font-family="Times,serif" font-size="11.00">Rosbridge</text>
</g>
<!-- \\Rosbridge&#45;&gt;\\AppModel -->
<g id="edge60" class="edge"><title>\\Rosbridge&#45;&gt;\\AppModel</title>
<path fill="none" stroke="black" d="M577.964,-1257.03C558.326,-1254.68 533.835,-1248.17 520,-1231 399.135,-1080.96 559.729,-523.961 448,-367 442.931,-359.879 435.55,-354.611 427.66,-350.721"/>
<polygon fill="none" stroke="black" points="428.846,-347.422 418.272,-346.759 426.124,-353.872 428.846,-347.422"/>
</g>
<!-- \\Mjpeg -->
<g id="node63" class="node"><title>\\Mjpeg</title>
<polygon fill="none" stroke="black" points="636,-1222 582,-1222 582,-1186 636,-1186 636,-1222"/>
<text text-anchor="middle" x="609" y="-1201.2" font-family="Times,serif" font-size="11.00">Mjpeg</text>
</g>
<!-- \\Mjpeg&#45;&gt;\\AppModel -->
<g id="edge61" class="edge"><title>\\Mjpeg&#45;&gt;\\AppModel</title>
<path fill="none" stroke="black" d="M581.767,-1203.41C561.608,-1201.45 534.787,-1195.25 520,-1177 406.248,-1036.58 553.201,-513.931 448,-367 442.912,-359.893 435.522,-354.63 427.631,-350.742"/>
<polygon fill="none" stroke="black" points="428.817,-347.444 418.243,-346.78 426.095,-353.893 428.817,-347.444"/>
</g>
<!-- \\RmsHelper -->
<g id="node64" class="node"><title>\\RmsHelper</title>
<polygon fill="none" stroke="black" points="643,-196 575,-196 575,-160 643,-160 643,-196"/>
<text text-anchor="middle" x="609" y="-175.2" font-family="Times,serif" font-size="11.00">RmsHelper</text>
</g>
<!-- \\Helper -->
<g id="node69" class="node"><title>\\Helper</title>
<ellipse fill="none" stroke="black" cx="386" cy="-72" rx="37.0935" ry="18"/>
<text text-anchor="middle" x="386" y="-68.3" font-family="Times,serif" font-size="14.00" fill="gray">\Helper</text>
</g>
<!-- \\RmsHelper&#45;&gt;\\Helper -->
<g id="edge62" class="edge"><title>\\RmsHelper&#45;&gt;\\Helper</title>
<path fill="none" stroke="black" d="M574.676,-170.896C557.714,-166.516 537.119,-159.992 520,-151 483.868,-132.02 483.662,-113.849 448,-94 441.643,-90.4617 434.608,-87.3078 427.643,-84.5698"/>
<polygon fill="none" stroke="black" points="428.851,-81.2851 418.258,-81.0968 426.422,-87.85 428.851,-81.2851"/>
</g>
<!-- \\AppHelper -->
<g id="node65" class="node"><title>\\AppHelper</title>
<polygon fill="none" stroke="black" points="642,-142 576,-142 576,-106 642,-106 642,-142"/>
<text text-anchor="start" x="586" y="-127.2" font-family="Times,serif" font-size="11.00">«abstract»</text>
<text text-anchor="start" x="584" y="-115.2" font-family="Times,serif" font-size="11.00">AppHelper</text>
</g>
<!-- \\AppHelper&#45;&gt;\\Helper -->
<g id="edge63" class="edge"><title>\\AppHelper&#45;&gt;\\Helper</title>
<path fill="none" stroke="black" d="M575.865,-116.439C537.185,-107.338 472.113,-92.0265 429.361,-81.9672"/>
<polygon fill="none" stroke="black" points="430.07,-78.5386 419.534,-79.6551 428.467,-85.3525 430.07,-78.5386"/>
</g>
</g>
</svg>
