<?xml version="1.0" encoding="UTF-8" standalone="no"?>
<!DOCTYPE svg PUBLIC "-//W3C//DTD SVG 1.1//EN"
 "http://www.w3.org/Graphics/SVG/1.1/DTD/svg11.dtd">
<!-- Generated by graphviz version 2.36.0 (20140111.2315)
 -->
<!-- Title: G Pages: 1 -->
<svg width="672pt" height="1860pt"
 viewBox="0.00 0.00 672.00 1860.00" xmlns="http://www.w3.org/2000/svg" xmlns:xlink="http://www.w3.org/1999/xlink">
<g id="graph0" class="graph" transform="scale(1 1) rotate(0) translate(4 1856)">
<title>G</title>
<polygon fill="white" stroke="none" points="-4,4 -4,-1856 668,-1856 668,4 -4,4"/>
<g id="clust1" class="cluster"><title>cluster_Global</title>
<path fill="none" stroke="gray" d="M176,-98C176,-98 644,-98 644,-98 650,-98 656,-104 656,-110 656,-110 656,-1832 656,-1832 656,-1838 650,-1844 644,-1844 644,-1844 176,-1844 176,-1844 170,-1844 164,-1838 164,-1832 164,-1832 164,-110 164,-110 164,-104 170,-98 176,-98"/>
<text text-anchor="middle" x="410" y="-1831.2" font-family="Times,serif" font-size="11.00" fill="gray">Global</text>
</g>
<!-- \\ReminderShell -->
<g id="node1" class="node"><title>\\ReminderShell</title>
<polygon fill="none" stroke="black" points="625.5,-1762 542.5,-1762 542.5,-1726 625.5,-1726 625.5,-1762"/>
<text text-anchor="middle" x="584" y="-1741.2" font-family="Times,serif" font-size="11.00">ReminderShell</text>
</g>
<!-- \\AppShell -->
<g id="node2" class="node"><title>\\AppShell</title>
<polygon fill="none" stroke="black" points="415,-304 357,-304 357,-268 415,-268 415,-304"/>
<text text-anchor="middle" x="386" y="-283.2" font-family="Times,serif" font-size="11.00">AppShell</text>
</g>
<!-- \\ReminderShell&#45;&gt;\\AppShell -->
<g id="edge1" class="edge"><title>\\ReminderShell&#45;&gt;\\AppShell</title>
<path fill="none" stroke="black" d="M542.329,-1734.34C533.636,-1730.38 525.442,-1724.81 520,-1717 341.397,-1460.68 625.087,-570.372 448,-313 442.397,-304.857 433.749,-299.142 424.71,-295.142"/>
<polygon fill="none" stroke="black" points="425.851,-291.832 415.26,-291.564 423.373,-298.378 425.851,-291.832"/>
</g>
<!-- \\Shell -->
<g id="node64" class="node"><title>\\Shell</title>
<ellipse fill="none" stroke="black" cx="212" cy="-72" rx="31.3957" ry="18"/>
<text text-anchor="middle" x="212" y="-68.3" font-family="Times,serif" font-size="14.00" fill="gray">\Shell</text>
</g>
<!-- \\AppShell&#45;&gt;\\Shell -->
<g id="edge2" class="edge"><title>\\AppShell&#45;&gt;\\Shell</title>
<path fill="none" stroke="black" d="M356.876,-278.484C345.51,-274.287 332.984,-268.032 324,-259 267.572,-202.275 305.614,-153.391 252,-94 250.222,-92.0309 248.226,-90.1958 246.1,-88.494"/>
<polygon fill="none" stroke="black" points="247.684,-85.3375 237.452,-82.5895 243.737,-91.1186 247.684,-85.3375"/>
</g>
<!-- \\TfsController -->
<g id="node3" class="node"><title>\\TfsController</title>
<polygon fill="none" stroke="black" points="424.5,-1708 347.5,-1708 347.5,-1672 424.5,-1672 424.5,-1708"/>
<text text-anchor="middle" x="386" y="-1687.2" font-family="Times,serif" font-size="11.00">TfsController</text>
</g>
<!-- \\AppController -->
<g id="node13" class="node"><title>\\AppController</title>
<polygon fill="none" stroke="black" points="252,-1087 172,-1087 172,-1051 252,-1051 252,-1087"/>
<text text-anchor="start" x="189" y="-1072.2" font-family="Times,serif" font-size="11.00">«abstract»</text>
<text text-anchor="start" x="180" y="-1060.2" font-family="Times,serif" font-size="11.00">AppController</text>
</g>
<!-- \\TfsController&#45;&gt;\\AppController -->
<g id="edge3" class="edge"><title>\\TfsController&#45;&gt;\\AppController</title>
<path fill="none" stroke="black" d="M347.251,-1680C338.474,-1676.03 329.965,-1670.54 324,-1663 252.795,-1573.02 222.229,-1203.07 214.843,-1097.34"/>
<polygon fill="none" stroke="black" points="218.319,-1096.87 214.145,-1087.13 211.335,-1097.35 218.319,-1096.87"/>
</g>
<!-- \\WidgetController -->
<g id="node4" class="node"><title>\\WidgetController</title>
<polygon fill="none" stroke="black" points="433,-1654 339,-1654 339,-1618 433,-1618 433,-1654"/>
<text text-anchor="middle" x="386" y="-1633.2" font-family="Times,serif" font-size="11.00">WidgetController</text>
</g>
<!-- \\WidgetController&#45;&gt;\\AppController -->
<g id="edge4" class="edge"><title>\\WidgetController&#45;&gt;\\AppController</title>
<path fill="none" stroke="black" d="M338.932,-1621.56C333.278,-1618.18 328.07,-1614.05 324,-1609 258.87,-1528.2 224.429,-1196.76 215.422,-1097.33"/>
<polygon fill="none" stroke="black" points="218.889,-1096.8 214.516,-1087.15 211.917,-1097.42 218.889,-1096.8"/>
</g>
<!-- \\AppointmentsController -->
<g id="node5" class="node"><title>\\AppointmentsController</title>
<polygon fill="none" stroke="black" points="447.5,-1600 324.5,-1600 324.5,-1564 447.5,-1564 447.5,-1600"/>
<text text-anchor="middle" x="386" y="-1579.2" font-family="Times,serif" font-size="11.00">AppointmentsController</text>
</g>
<!-- \\AppointmentsController&#45;&gt;\\AppController -->
<g id="edge5" class="edge"><title>\\AppointmentsController&#45;&gt;\\AppController</title>
<path fill="none" stroke="black" d="M333.722,-1564C330.111,-1561.38 326.799,-1558.4 324,-1555 264.896,-1483.29 226.843,-1189.9 216.114,-1097.21"/>
<polygon fill="none" stroke="black" points="219.579,-1096.71 214.968,-1087.17 212.625,-1097.5 219.579,-1096.71"/>
</g>
<!-- \\RosbridgesController -->
<g id="node6" class="node"><title>\\RosbridgesController</title>
<polygon fill="none" stroke="black" points="441.5,-1546 330.5,-1546 330.5,-1510 441.5,-1510 441.5,-1546"/>
<text text-anchor="middle" x="386" y="-1525.2" font-family="Times,serif" font-size="11.00">RosbridgesController</text>
</g>
<!-- \\RosbridgesController&#45;&gt;\\AppController -->
<g id="edge6" class="edge"><title>\\RosbridgesController&#45;&gt;\\AppController</title>
<path fill="none" stroke="black" d="M333.821,-1509.91C330.189,-1507.31 326.845,-1504.36 324,-1501 220.48,-1378.79 211.778,-1172.07 212.255,-1097.17"/>
<polygon fill="none" stroke="black" points="215.755,-1097.14 212.381,-1087.1 208.756,-1097.05 215.755,-1097.14"/>
</g>
<!-- \\ConditionsController -->
<g id="node7" class="node"><title>\\ConditionsController</title>
<polygon fill="none" stroke="black" points="440.5,-1492 331.5,-1492 331.5,-1456 440.5,-1456 440.5,-1492"/>
<text text-anchor="middle" x="386" y="-1471.2" font-family="Times,serif" font-size="11.00">ConditionsController</text>
</g>
<!-- \\ConditionsController&#45;&gt;\\AppController -->
<g id="edge7" class="edge"><title>\\ConditionsController&#45;&gt;\\AppController</title>
<path fill="none" stroke="black" d="M333.945,-1455.81C330.286,-1453.23 326.901,-1450.31 324,-1447 232.403,-1342.54 216.28,-1165.86 213.527,-1097.34"/>
<polygon fill="none" stroke="black" points="217.024,-1097.18 213.191,-1087.3 210.028,-1097.41 217.024,-1097.18"/>
</g>
<!-- \\ExperimentController -->
<g id="node8" class="node"><title>\\ExperimentController</title>
<polygon fill="none" stroke="black" points="442.5,-1438 329.5,-1438 329.5,-1402 442.5,-1402 442.5,-1438"/>
<text text-anchor="middle" x="386" y="-1417.2" font-family="Times,serif" font-size="11.00">ExperimentController</text>
</g>
<!-- \\ExperimentController&#45;&gt;\\AppController -->
<g id="edge8" class="edge"><title>\\ExperimentController&#45;&gt;\\AppController</title>
<path fill="none" stroke="black" d="M334.396,-1401.87C330.591,-1399.27 327.052,-1396.33 324,-1393 244.204,-1305.97 221.414,-1159.01 215.205,-1097.46"/>
<polygon fill="none" stroke="black" points="218.673,-1096.95 214.257,-1087.32 211.703,-1097.61 218.673,-1096.95"/>
</g>
<!-- \\EnvironmentsController -->
<g id="node9" class="node"><title>\\EnvironmentsController</title>
<polygon fill="none" stroke="black" points="447,-1384 325,-1384 325,-1348 447,-1348 447,-1384"/>
<text text-anchor="middle" x="386" y="-1363.2" font-family="Times,serif" font-size="11.00">EnvironmentsController</text>
</g>
<!-- \\EnvironmentsController&#45;&gt;\\AppController -->
<g id="edge9" class="edge"><title>\\EnvironmentsController&#45;&gt;\\AppController</title>
<path fill="none" stroke="black" d="M334.905,-1347.86C330.943,-1345.26 327.232,-1342.32 324,-1339 255.718,-1268.87 227.288,-1150.89 217.441,-1097.17"/>
<polygon fill="none" stroke="black" points="220.888,-1096.56 215.714,-1087.32 213.993,-1097.77 220.888,-1096.56"/>
</g>
<!-- \\PagesController -->
<g id="node10" class="node"><title>\\PagesController</title>
<polygon fill="none" stroke="black" points="430,-1330 342,-1330 342,-1294 430,-1294 430,-1330"/>
<text text-anchor="middle" x="386" y="-1309.2" font-family="Times,serif" font-size="11.00">PagesController</text>
</g>
<!-- \\PagesController&#45;&gt;\\AppController -->
<g id="edge10" class="edge"><title>\\PagesController&#45;&gt;\\AppController</title>
<path fill="none" stroke="black" d="M341.998,-1297.47C335.493,-1294.05 329.222,-1289.93 324,-1285 267.103,-1231.31 234.372,-1141.98 220.666,-1096.88"/>
<polygon fill="none" stroke="black" points="223.992,-1095.78 217.807,-1087.18 217.278,-1097.76 223.992,-1095.78"/>
</g>
<!-- \\GlobalController -->
<g id="node11" class="node"><title>\\GlobalController</title>
<polygon fill="none" stroke="black" points="432,-1276 340,-1276 340,-1240 432,-1240 432,-1276"/>
<text text-anchor="middle" x="386" y="-1255.2" font-family="Times,serif" font-size="11.00">GlobalController</text>
</g>
<!-- \\GlobalController&#45;&gt;\\AppController -->
<g id="edge11" class="edge"><title>\\GlobalController&#45;&gt;\\AppController</title>
<path fill="none" stroke="black" d="M339.981,-1241.56C334.305,-1238.51 328.81,-1235 324,-1231 278.342,-1193.06 243.441,-1131.78 225.788,-1096.47"/>
<polygon fill="none" stroke="black" points="228.81,-1094.68 221.271,-1087.24 222.522,-1097.76 228.81,-1094.68"/>
</g>
<!-- \\ContentController -->
<g id="node12" class="node"><title>\\ContentController</title>
<polygon fill="none" stroke="black" points="434,-1222 338,-1222 338,-1186 434,-1186 434,-1222"/>
<text text-anchor="middle" x="386" y="-1201.2" font-family="Times,serif" font-size="11.00">ContentController</text>
</g>
<!-- \\ContentController&#45;&gt;\\AppController -->
<g id="edge12" class="edge"><title>\\ContentController&#45;&gt;\\AppController</title>
<path fill="none" stroke="black" d="M339.393,-1185.99C334.049,-1183.25 328.798,-1180.24 324,-1177 289.172,-1153.47 255.488,-1118.4 234.538,-1094.66"/>
<polygon fill="none" stroke="black" points="237.143,-1092.33 227.938,-1087.08 231.863,-1096.92 237.143,-1092.33"/>
</g>
<!-- \\Controller -->
<g id="node65" class="node"><title>\\Controller</title>
<ellipse fill="none" stroke="black" cx="50" cy="-1069" rx="49.2915" ry="18"/>
<text text-anchor="middle" x="50" y="-1065.3" font-family="Times,serif" font-size="14.00" fill="gray">\Controller</text>
</g>
<!-- \\AppController&#45;&gt;\\Controller -->
<g id="edge13" class="edge"><title>\\AppController&#45;&gt;\\Controller</title>
<path fill="none" stroke="black" d="M171.86,-1069C153.096,-1069 130.234,-1069 109.464,-1069"/>
<polygon fill="none" stroke="black" points="109.463,-1065.5 99.4633,-1069 109.463,-1072.5 109.463,-1065.5"/>
</g>
<!-- \\BasicInterfaceController -->
<g id="node14" class="node"><title>\\BasicInterfaceController</title>
<polygon fill="none" stroke="black" points="648,-1816 520,-1816 520,-1780 648,-1780 648,-1816"/>
<text text-anchor="middle" x="584" y="-1795.2" font-family="Times,serif" font-size="11.00">BasicInterfaceController</text>
</g>
<!-- \\InterfaceController -->
<g id="node27" class="node"><title>\\InterfaceController</title>
<polygon fill="none" stroke="black" points="437,-1168 335,-1168 335,-1132 437,-1132 437,-1168"/>
<text text-anchor="start" x="363" y="-1153.2" font-family="Times,serif" font-size="11.00">«abstract»</text>
<text text-anchor="start" x="343" y="-1141.2" font-family="Times,serif" font-size="11.00">InterfaceController</text>
</g>
<!-- \\BasicInterfaceController&#45;&gt;\\InterfaceController -->
<g id="edge14" class="edge"><title>\\BasicInterfaceController&#45;&gt;\\InterfaceController</title>
<path fill="none" stroke="black" d="M528.796,-1779.83C525.491,-1777.26 522.498,-1774.33 520,-1771 360.491,-1558.22 606.25,-1390.72 448,-1177 447.074,-1175.75 446.077,-1174.56 445.019,-1173.42"/>
<polygon fill="none" stroke="black" points="447.1,-1170.59 437.261,-1166.66 442.503,-1175.87 447.1,-1170.59"/>
</g>
<!-- \\EmailsController -->
<g id="node15" class="node"><title>\\EmailsController</title>
<polygon fill="none" stroke="black" points="432,-1114 340,-1114 340,-1078 432,-1078 432,-1114"/>
<text text-anchor="middle" x="386" y="-1093.2" font-family="Times,serif" font-size="11.00">EmailsController</text>
</g>
<!-- \\EmailsController&#45;&gt;\\AppController -->
<g id="edge15" class="edge"><title>\\EmailsController&#45;&gt;\\AppController</title>
<path fill="none" stroke="black" d="M339.809,-1088.91C315.946,-1085.16 286.626,-1080.56 262.192,-1076.72"/>
<polygon fill="none" stroke="black" points="262.471,-1073.22 252.05,-1075.13 261.386,-1080.14 262.471,-1073.22"/>
</g>
<!-- \\RosController -->
<g id="node16" class="node"><title>\\RosController</title>
<polygon fill="none" stroke="black" points="425.5,-1060 346.5,-1060 346.5,-1024 425.5,-1024 425.5,-1060"/>
<text text-anchor="middle" x="386" y="-1039.2" font-family="Times,serif" font-size="11.00">RosController</text>
</g>
<!-- \\RosController&#45;&gt;\\AppController -->
<g id="edge16" class="edge"><title>\\RosController&#45;&gt;\\AppController</title>
<path fill="none" stroke="black" d="M346.4,-1048.06C321.457,-1051.97 288.779,-1057.1 262.009,-1061.31"/>
<polygon fill="none" stroke="black" points="261.403,-1057.86 252.066,-1062.87 262.488,-1064.77 261.403,-1057.86"/>
</g>
<!-- \\ResourcesController -->
<g id="node17" class="node"><title>\\ResourcesController</title>
<polygon fill="none" stroke="black" points="440,-1006 332,-1006 332,-970 440,-970 440,-1006"/>
<text text-anchor="middle" x="386" y="-985.2" font-family="Times,serif" font-size="11.00">ResourcesController</text>
</g>
<!-- \\ResourcesController&#45;&gt;\\AppController -->
<g id="edge17" class="edge"><title>\\ResourcesController&#45;&gt;\\AppController</title>
<path fill="none" stroke="black" d="M343.565,-1006.1C337.001,-1009.04 330.302,-1012.07 324,-1015 302.355,-1025.05 278.536,-1036.58 258.531,-1046.39"/>
<polygon fill="none" stroke="black" points="256.766,-1043.36 249.337,-1050.91 259.855,-1049.64 256.766,-1043.36"/>
</g>
<!-- \\StudiesController -->
<g id="node18" class="node"><title>\\StudiesController</title>
<polygon fill="none" stroke="black" points="433,-952 339,-952 339,-916 433,-916 433,-952"/>
<text text-anchor="middle" x="386" y="-931.2" font-family="Times,serif" font-size="11.00">StudiesController</text>
</g>
<!-- \\StudiesController&#45;&gt;\\AppController -->
<g id="edge18" class="edge"><title>\\StudiesController&#45;&gt;\\AppController</title>
<path fill="none" stroke="black" d="M339.393,-952.015C334.049,-954.753 328.798,-957.758 324,-961 289.172,-984.532 255.488,-1019.6 234.538,-1043.34"/>
<polygon fill="none" stroke="black" points="231.863,-1041.08 227.938,-1050.92 237.143,-1045.67 231.863,-1041.08"/>
</g>
<!-- \\TeleopsController -->
<g id="node19" class="node"><title>\\TeleopsController</title>
<polygon fill="none" stroke="black" points="434.5,-898 337.5,-898 337.5,-862 434.5,-862 434.5,-898"/>
<text text-anchor="middle" x="386" y="-877.2" font-family="Times,serif" font-size="11.00">TeleopsController</text>
</g>
<!-- \\TeleopsController&#45;&gt;\\AppController -->
<g id="edge19" class="edge"><title>\\TeleopsController&#45;&gt;\\AppController</title>
<path fill="none" stroke="black" d="M337.472,-897.824C332.692,-900.542 328.097,-903.595 324,-907 278.342,-944.944 243.441,-1006.22 225.788,-1041.53"/>
<polygon fill="none" stroke="black" points="222.522,-1040.24 221.271,-1050.76 228.81,-1043.32 222.522,-1040.24"/>
</g>
<!-- \\UsersController -->
<g id="node20" class="node"><title>\\UsersController</title>
<polygon fill="none" stroke="black" points="430,-844 342,-844 342,-808 430,-808 430,-844"/>
<text text-anchor="middle" x="386" y="-823.2" font-family="Times,serif" font-size="11.00">UsersController</text>
</g>
<!-- \\UsersController&#45;&gt;\\AppController -->
<g id="edge20" class="edge"><title>\\UsersController&#45;&gt;\\AppController</title>
<path fill="none" stroke="black" d="M341.998,-840.526C335.493,-843.947 329.222,-848.072 324,-853 267.103,-906.69 234.372,-996.022 220.666,-1041.12"/>
<polygon fill="none" stroke="black" points="217.278,-1040.24 217.807,-1050.82 223.992,-1042.22 217.278,-1040.24"/>
</g>
<!-- \\UrdfsController -->
<g id="node21" class="node"><title>\\UrdfsController</title>
<polygon fill="none" stroke="black" points="429.5,-790 342.5,-790 342.5,-754 429.5,-754 429.5,-790"/>
<text text-anchor="middle" x="386" y="-769.2" font-family="Times,serif" font-size="11.00">UrdfsController</text>
</g>
<!-- \\UrdfsController&#45;&gt;\\AppController -->
<g id="edge21" class="edge"><title>\\UrdfsController&#45;&gt;\\AppController</title>
<path fill="none" stroke="black" d="M342.257,-785.82C335.569,-789.347 329.171,-793.69 324,-799 255.718,-869.127 227.288,-987.107 217.441,-1040.83"/>
<polygon fill="none" stroke="black" points="213.993,-1040.23 215.714,-1050.68 220.888,-1041.44 213.993,-1040.23"/>
</g>
<!-- \\LogsController -->
<g id="node22" class="node"><title>\\LogsController</title>
<polygon fill="none" stroke="black" points="427.5,-736 344.5,-736 344.5,-700 427.5,-700 427.5,-736"/>
<text text-anchor="middle" x="386" y="-715.2" font-family="Times,serif" font-size="11.00">LogsController</text>
</g>
<!-- \\LogsController&#45;&gt;\\AppController -->
<g id="edge22" class="edge"><title>\\LogsController&#45;&gt;\\AppController</title>
<path fill="none" stroke="black" d="M344.495,-730.269C336.926,-734.029 329.635,-738.854 324,-745 244.204,-832.028 221.414,-978.992 215.205,-1040.54"/>
<polygon fill="none" stroke="black" points="211.703,-1040.39 214.257,-1050.68 218.673,-1041.05 211.703,-1040.39"/>
</g>
<!-- \\ImsController -->
<g id="node23" class="node"><title>\\ImsController</title>
<polygon fill="none" stroke="black" points="425,-682 347,-682 347,-646 425,-646 425,-682"/>
<text text-anchor="middle" x="386" y="-661.2" font-family="Times,serif" font-size="11.00">ImsController</text>
</g>
<!-- \\ImsController&#45;&gt;\\AppController -->
<g id="edge23" class="edge"><title>\\ImsController&#45;&gt;\\AppController</title>
<path fill="none" stroke="black" d="M346.809,-674.86C338.356,-678.785 330.108,-684.034 324,-691 232.403,-795.465 216.28,-972.144 213.527,-1040.66"/>
<polygon fill="none" stroke="black" points="210.028,-1040.59 213.191,-1050.7 217.024,-1040.82 210.028,-1040.59"/>
</g>
<!-- \\SlotsController -->
<g id="node24" class="node"><title>\\SlotsController</title>
<polygon fill="none" stroke="black" points="427.5,-628 344.5,-628 344.5,-592 427.5,-592 427.5,-628"/>
<text text-anchor="middle" x="386" y="-607.2" font-family="Times,serif" font-size="11.00">SlotsController</text>
</g>
<!-- \\SlotsController&#45;&gt;\\AppController -->
<g id="edge24" class="edge"><title>\\SlotsController&#45;&gt;\\AppController</title>
<path fill="none" stroke="black" d="M344.429,-621.776C336.773,-625.582 329.465,-630.549 324,-637 220.48,-759.208 211.778,-965.93 212.255,-1040.83"/>
<polygon fill="none" stroke="black" points="208.756,-1040.95 212.381,-1050.9 215.755,-1040.86 208.756,-1040.95"/>
</g>
<!-- \\SubscriptionsController -->
<g id="node25" class="node"><title>\\SubscriptionsController</title>
<polygon fill="none" stroke="black" points="446.5,-574 325.5,-574 325.5,-538 446.5,-538 446.5,-574"/>
<text text-anchor="middle" x="386" y="-553.2" font-family="Times,serif" font-size="11.00">SubscriptionsController</text>
</g>
<!-- \\SubscriptionsController&#45;&gt;\\AppController -->
<g id="edge25" class="edge"><title>\\SubscriptionsController&#45;&gt;\\AppController</title>
<path fill="none" stroke="black" d="M333.722,-574.004C330.111,-576.621 326.799,-579.604 324,-583 264.896,-654.712 226.843,-948.1 216.114,-1040.79"/>
<polygon fill="none" stroke="black" points="212.625,-1040.5 214.968,-1050.83 219.579,-1041.29 212.625,-1040.5"/>
</g>
<!-- \\StreamsController -->
<g id="node26" class="node"><title>\\StreamsController</title>
<polygon fill="none" stroke="black" points="435,-520 337,-520 337,-484 435,-484 435,-520"/>
<text text-anchor="middle" x="386" y="-499.2" font-family="Times,serif" font-size="11.00">StreamsController</text>
</g>
<!-- \\StreamsController&#45;&gt;\\AppController -->
<g id="edge26" class="edge"><title>\\StreamsController&#45;&gt;\\AppController</title>
<path fill="none" stroke="black" d="M336.834,-517.745C331.994,-520.866 327.561,-524.582 324,-529 258.87,-609.803 224.429,-941.239 215.422,-1040.67"/>
<polygon fill="none" stroke="black" points="211.917,-1040.58 214.516,-1050.85 218.889,-1041.2 211.917,-1040.58"/>
</g>
<!-- \\InterfaceController&#45;&gt;\\AppController -->
<g id="edge27" class="edge"><title>\\InterfaceController&#45;&gt;\\AppController</title>
<path fill="none" stroke="black" d="M343.565,-1131.9C337.001,-1128.96 330.302,-1125.93 324,-1123 302.355,-1112.95 278.536,-1101.42 258.531,-1091.61"/>
<polygon fill="none" stroke="black" points="259.855,-1088.36 249.337,-1087.09 256.766,-1094.64 259.855,-1088.36"/>
</g>
<!-- \\MjpegsController -->
<g id="node28" class="node"><title>\\MjpegsController</title>
<polygon fill="none" stroke="black" points="433.5,-466 338.5,-466 338.5,-430 433.5,-430 433.5,-466"/>
<text text-anchor="middle" x="386" y="-445.2" font-family="Times,serif" font-size="11.00">MjpegsController</text>
</g>
<!-- \\MjpegsController&#45;&gt;\\AppController -->
<g id="edge28" class="edge"><title>\\MjpegsController&#45;&gt;\\AppController</title>
<path fill="none" stroke="black" d="M338.246,-462.742C332.838,-466.059 327.881,-470.096 324,-475 252.795,-564.985 222.229,-934.927 214.843,-1040.66"/>
<polygon fill="none" stroke="black" points="211.335,-1040.65 214.145,-1050.87 218.319,-1041.13 211.335,-1040.65"/>
</g>
<!-- \\ArticlesController -->
<g id="node29" class="node"><title>\\ArticlesController</title>
<polygon fill="none" stroke="black" points="435,-412 337,-412 337,-376 435,-376 435,-412"/>
<text text-anchor="middle" x="386" y="-391.2" font-family="Times,serif" font-size="11.00">ArticlesController</text>
</g>
<!-- \\ArticlesController&#45;&gt;\\AppController -->
<g id="edge29" class="edge"><title>\\ArticlesController&#45;&gt;\\AppController</title>
<path fill="none" stroke="black" d="M336.985,-409.439C332.055,-412.619 327.559,-416.432 324,-421 246.692,-520.226 220.223,-928.941 214.357,-1040.66"/>
<polygon fill="none" stroke="black" points="210.853,-1040.65 213.838,-1050.81 217.844,-1041.01 210.853,-1040.65"/>
</g>
<!-- \\SettingsController -->
<g id="node30" class="node"><title>\\SettingsController</title>
<polygon fill="none" stroke="black" points="434.5,-358 337.5,-358 337.5,-322 434.5,-322 434.5,-358"/>
<text text-anchor="middle" x="386" y="-337.2" font-family="Times,serif" font-size="11.00">SettingsController</text>
</g>
<!-- \\SettingsController&#45;&gt;\\AppController -->
<g id="edge30" class="edge"><title>\\SettingsController&#45;&gt;\\AppController</title>
<path fill="none" stroke="black" d="M337.224,-355.204C332.187,-358.429 327.6,-362.318 324,-367 240.577,-475.503 218.383,-923.125 213.945,-1040.64"/>
<polygon fill="none" stroke="black" points="210.436,-1040.84 213.57,-1050.96 217.431,-1041.09 210.436,-1040.84"/>
</g>
<!-- \\IfacesController -->
<g id="node31" class="node"><title>\\IfacesController</title>
<polygon fill="none" stroke="black" points="430.5,-1816 341.5,-1816 341.5,-1780 430.5,-1780 430.5,-1816"/>
<text text-anchor="middle" x="386" y="-1795.2" font-family="Times,serif" font-size="11.00">IfacesController</text>
</g>
<!-- \\IfacesController&#45;&gt;\\AppController -->
<g id="edge31" class="edge"><title>\\IfacesController&#45;&gt;\\AppController</title>
<path fill="none" stroke="black" d="M341.463,-1785.3C334.779,-1781.65 328.588,-1776.97 324,-1771 240.577,-1662.5 218.383,-1214.88 213.945,-1097.36"/>
<polygon fill="none" stroke="black" points="217.431,-1096.91 213.57,-1087.04 210.436,-1097.16 217.431,-1096.91"/>
</g>
<!-- \\MarkersController -->
<g id="node32" class="node"><title>\\MarkersController</title>
<polygon fill="none" stroke="black" points="435.5,-1762 336.5,-1762 336.5,-1726 435.5,-1726 435.5,-1762"/>
<text text-anchor="middle" x="386" y="-1741.2" font-family="Times,serif" font-size="11.00">MarkersController</text>
</g>
<!-- \\MarkersController&#45;&gt;\\AppController -->
<g id="edge32" class="edge"><title>\\MarkersController&#45;&gt;\\AppController</title>
<path fill="none" stroke="black" d="M336.396,-1728.18C331.696,-1725.08 327.417,-1721.39 324,-1717 246.692,-1617.77 220.223,-1209.06 214.357,-1097.34"/>
<polygon fill="none" stroke="black" points="217.844,-1096.99 213.838,-1087.19 210.853,-1097.35 217.844,-1096.99"/>
</g>
<!-- \\EmailConfig -->
<g id="node33" class="node"><title>\\EmailConfig</title>
<polygon fill="none" stroke="black" points="620.5,-1708 547.5,-1708 547.5,-1672 620.5,-1672 620.5,-1708"/>
<text text-anchor="middle" x="584" y="-1687.2" font-family="Times,serif" font-size="11.00">EmailConfig</text>
</g>
<!-- \\DATABASE_CONFIG -->
<g id="node34" class="node"><title>\\DATABASE_CONFIG</title>
<polygon fill="none" stroke="black" points="646,-1654 522,-1654 522,-1618 646,-1618 646,-1654"/>
<text text-anchor="middle" x="584" y="-1633.2" font-family="Times,serif" font-size="11.00">DATABASE_CONFIG</text>
</g>
<!-- \\Appointment -->
<g id="node35" class="node"><title>\\Appointment</title>
<polygon fill="none" stroke="black" points="621,-1276 547,-1276 547,-1240 621,-1240 621,-1276"/>
<text text-anchor="middle" x="584" y="-1255.2" font-family="Times,serif" font-size="11.00">Appointment</text>
</g>
<!-- \\AppModel -->
<g id="node44" class="node"><title>\\AppModel</title>
<polygon fill="none" stroke="black" points="418,-250 354,-250 354,-214 418,-214 418,-250"/>
<text text-anchor="middle" x="386" y="-229.2" font-family="Times,serif" font-size="11.00">AppModel</text>
</g>
<!-- \\Appointment&#45;&gt;\\AppModel -->
<g id="edge33" class="edge"><title>\\Appointment&#45;&gt;\\AppModel</title>
<path fill="none" stroke="black" d="M546.722,-1250.06C536.502,-1246.03 526.429,-1240.01 520,-1231 394.166,-1054.71 572.79,-436.029 448,-259 442.916,-251.788 435.456,-246.478 427.483,-242.575"/>
<polygon fill="none" stroke="black" points="428.577,-239.239 418.001,-238.612 425.877,-245.698 428.577,-239.239"/>
</g>
<!-- \\Protocol -->
<g id="node36" class="node"><title>\\Protocol</title>
<polygon fill="none" stroke="black" points="611,-1222 557,-1222 557,-1186 611,-1186 611,-1222"/>
<text text-anchor="middle" x="584" y="-1201.2" font-family="Times,serif" font-size="11.00">Protocol</text>
</g>
<!-- \\Protocol&#45;&gt;\\AppModel -->
<g id="edge34" class="edge"><title>\\Protocol&#45;&gt;\\AppModel</title>
<path fill="none" stroke="black" d="M556.882,-1199.43C543.648,-1195.7 528.599,-1188.99 520,-1177 400.757,-1010.71 566.259,-425.994 448,-259 442.949,-251.867 435.574,-246.593 427.686,-242.702"/>
<polygon fill="none" stroke="black" points="428.871,-239.404 418.297,-238.741 426.15,-245.853 428.871,-239.404"/>
</g>
<!-- \\Teleop -->
<g id="node37" class="node"><title>\\Teleop</title>
<polygon fill="none" stroke="black" points="611,-1168 557,-1168 557,-1132 611,-1132 611,-1168"/>
<text text-anchor="middle" x="584" y="-1147.2" font-family="Times,serif" font-size="11.00">Teleop</text>
</g>
<!-- \\Teleop&#45;&gt;\\AppModel -->
<g id="edge35" class="edge"><title>\\Teleop&#45;&gt;\\AppModel</title>
<path fill="none" stroke="black" d="M556.905,-1145.42C543.678,-1141.68 528.628,-1134.97 520,-1123 407.346,-966.702 559.729,-415.961 448,-259 442.931,-251.879 435.55,-246.611 427.66,-242.721"/>
<polygon fill="none" stroke="black" points="428.846,-239.422 418.272,-238.759 426.124,-245.872 428.846,-239.422"/>
</g>
<!-- \\Environment -->
<g id="node38" class="node"><title>\\Environment</title>
<polygon fill="none" stroke="black" points="620.5,-1114 547.5,-1114 547.5,-1078 620.5,-1078 620.5,-1114"/>
<text text-anchor="middle" x="584" y="-1093.2" font-family="Times,serif" font-size="11.00">Environment</text>
</g>
<!-- \\Environment&#45;&gt;\\AppModel -->
<g id="edge36" class="edge"><title>\\Environment&#45;&gt;\\AppModel</title>
<path fill="none" stroke="black" d="M547.461,-1088.26C537.022,-1084.23 526.635,-1078.15 520,-1069 307.867,-776.385 658.402,-552.862 448,-259 442.912,-251.893 435.522,-246.63 427.631,-242.742"/>
<polygon fill="none" stroke="black" points="428.817,-239.444 418.243,-238.78 426.095,-245.893 428.817,-239.444"/>
</g>
<!-- \\Im -->
<g id="node39" class="node"><title>\\Im</title>
<polygon fill="none" stroke="black" points="611,-1060 557,-1060 557,-1024 611,-1024 611,-1060"/>
<text text-anchor="middle" x="584" y="-1039.2" font-family="Times,serif" font-size="11.00">Im</text>
</g>
<!-- \\Im&#45;&gt;\\AppModel -->
<g id="edge37" class="edge"><title>\\Im&#45;&gt;\\AppModel</title>
<path fill="none" stroke="black" d="M556.962,-1037.37C543.751,-1033.63 528.698,-1026.92 520,-1015 321.035,-742.359 645.352,-532.811 448,-259 442.889,-251.91 435.491,-246.653 427.597,-242.766"/>
<polygon fill="none" stroke="black" points="428.785,-239.468 418.211,-238.803 426.062,-245.917 428.785,-239.468"/>
</g>
<!-- \\Log -->
<g id="node40" class="node"><title>\\Log</title>
<polygon fill="none" stroke="black" points="611,-1006 557,-1006 557,-970 611,-970 611,-1006"/>
<text text-anchor="middle" x="584" y="-985.2" font-family="Times,serif" font-size="11.00">Log</text>
</g>
<!-- \\Log&#45;&gt;\\AppModel -->
<g id="edge38" class="edge"><title>\\Log&#45;&gt;\\AppModel</title>
<path fill="none" stroke="black" d="M556.996,-983.349C543.796,-979.594 528.741,-972.888 520,-961 334.196,-708.324 632.308,-512.768 448,-259 442.864,-251.928 435.455,-246.679 427.559,-242.793"/>
<polygon fill="none" stroke="black" points="428.747,-239.496 418.174,-238.83 426.024,-245.945 428.747,-239.496"/>
</g>
<!-- \\User -->
<g id="node41" class="node"><title>\\User</title>
<polygon fill="none" stroke="black" points="611,-952 557,-952 557,-916 611,-916 611,-952"/>
<text text-anchor="middle" x="584" y="-931.2" font-family="Times,serif" font-size="11.00">User</text>
</g>
<!-- \\User&#45;&gt;\\AppModel -->
<g id="edge39" class="edge"><title>\\User&#45;&gt;\\AppModel</title>
<path fill="none" stroke="black" d="M556.717,-929.228C543.605,-925.447 528.721,-918.755 520,-907 347.349,-674.278 619.274,-492.738 448,-259 442.834,-251.95 435.412,-246.71 427.514,-242.826"/>
<polygon fill="none" stroke="black" points="428.704,-239.529 418.13,-238.862 425.98,-245.977 428.704,-239.529"/>
</g>
<!-- \\Stream -->
<g id="node42" class="node"><title>\\Stream</title>
<polygon fill="none" stroke="black" points="611,-898 557,-898 557,-862 611,-862 611,-898"/>
<text text-anchor="middle" x="584" y="-877.2" font-family="Times,serif" font-size="11.00">Stream</text>
</g>
<!-- \\Stream&#45;&gt;\\AppModel -->
<g id="edge40" class="edge"><title>\\Stream&#45;&gt;\\AppModel</title>
<path fill="none" stroke="black" d="M556.764,-875.192C543.666,-871.402 528.779,-864.711 520,-853 360.491,-640.216 606.25,-472.722 448,-259 442.799,-251.976 435.363,-246.746 427.462,-242.864"/>
<polygon fill="none" stroke="black" points="428.653,-239.568 418.079,-238.899 425.928,-246.016 428.653,-239.568"/>
</g>
<!-- \\Email -->
<g id="node43" class="node"><title>\\Email</title>
<polygon fill="none" stroke="black" points="611,-844 557,-844 557,-808 611,-808 611,-844"/>
<text text-anchor="middle" x="584" y="-823.2" font-family="Times,serif" font-size="11.00">Email</text>
</g>
<!-- \\Email&#45;&gt;\\AppModel -->
<g id="edge41" class="edge"><title>\\Email&#45;&gt;\\AppModel</title>
<path fill="none" stroke="black" d="M556.82,-821.15C543.738,-817.347 528.849,-810.659 520,-799 373.619,-606.136 593.24,-452.725 448,-259 442.757,-252.007 435.304,-246.79 427.4,-242.911"/>
<polygon fill="none" stroke="black" points="428.592,-239.615 418.019,-238.944 425.866,-246.062 428.592,-239.615"/>
</g>
<!-- \\Model -->
<g id="node66" class="node"><title>\\Model</title>
<ellipse fill="none" stroke="black" cx="212" cy="-18" rx="36.2938" ry="18"/>
<text text-anchor="middle" x="212" y="-14.3" font-family="Times,serif" font-size="14.00" fill="gray">\Model</text>
</g>
<!-- \\AppModel&#45;&gt;\\Model -->
<g id="edge42" class="edge"><title>\\AppModel&#45;&gt;\\Model</title>
<path fill="none" stroke="black" d="M375.053,-213.963C355.018,-178.693 306.996,-99.3032 252,-45 249.522,-42.5536 246.799,-40.1788 243.979,-37.9186"/>
<polygon fill="none" stroke="black" points="246.007,-35.0647 235.9,-31.8884 241.82,-40.6746 246.007,-35.0647"/>
</g>
<!-- \\Collada -->
<g id="node45" class="node"><title>\\Collada</title>
<polygon fill="none" stroke="black" points="611,-790 557,-790 557,-754 611,-754 611,-790"/>
<text text-anchor="middle" x="584" y="-769.2" font-family="Times,serif" font-size="11.00">Collada</text>
</g>
<!-- \\Collada&#45;&gt;\\AppModel -->
<g id="edge43" class="edge"><title>\\Collada&#45;&gt;\\AppModel</title>
<path fill="none" stroke="black" d="M556.889,-767.098C543.826,-763.28 528.933,-756.594 520,-745 386.727,-572.031 580.249,-432.753 448,-259 442.757,-252.111 435.375,-246.944 427.55,-243.079"/>
<polygon fill="none" stroke="black" points="428.834,-239.822 418.262,-239.116 426.086,-246.26 428.834,-239.822"/>
</g>
<!-- \\Slot -->
<g id="node46" class="node"><title>\\Slot</title>
<polygon fill="none" stroke="black" points="611,-736 557,-736 557,-700 611,-700 611,-736"/>
<text text-anchor="middle" x="584" y="-715.2" font-family="Times,serif" font-size="11.00">Slot</text>
</g>
<!-- \\Slot&#45;&gt;\\AppModel -->
<g id="edge44" class="edge"><title>\\Slot&#45;&gt;\\AppModel</title>
<path fill="none" stroke="black" d="M556.973,-713.032C543.934,-709.196 529.038,-702.513 520,-691 399.81,-537.891 567.284,-412.816 448,-259 442.695,-252.159 435.287,-247.011 427.457,-243.151"/>
<polygon fill="none" stroke="black" points="428.742,-239.894 418.171,-239.186 425.994,-246.332 428.742,-239.894"/>
</g>
<!-- \\Page -->
<g id="node47" class="node"><title>\\Page</title>
<polygon fill="none" stroke="black" points="611,-682 557,-682 557,-646 611,-646 611,-682"/>
<text text-anchor="middle" x="584" y="-661.2" font-family="Times,serif" font-size="11.00">Page</text>
</g>
<!-- \\Page&#45;&gt;\\AppModel -->
<g id="edge45" class="edge"><title>\\Page&#45;&gt;\\AppModel</title>
<path fill="none" stroke="black" d="M556.763,-658.852C543.83,-654.978 529.095,-648.315 520,-637 412.855,-503.704 554.356,-392.926 448,-259 442.616,-252.221 435.176,-247.098 427.339,-243.243"/>
<polygon fill="none" stroke="black" points="428.627,-239.988 418.056,-239.277 425.876,-246.425 428.627,-239.988"/>
</g>
<!-- \\Condition -->
<g id="node48" class="node"><title>\\Condition</title>
<polygon fill="none" stroke="black" points="613.5,-628 554.5,-628 554.5,-592 613.5,-592 613.5,-628"/>
<text text-anchor="middle" x="584" y="-607.2" font-family="Times,serif" font-size="11.00">Condition</text>
</g>
<!-- \\Condition&#45;&gt;\\AppModel -->
<g id="edge46" class="edge"><title>\\Condition&#45;&gt;\\AppModel</title>
<path fill="none" stroke="black" d="M554.345,-603.933C542.099,-599.939 528.659,-593.443 520,-583 425.843,-469.446 541.485,-373.108 448,-259 442.566,-252.368 435.174,-247.314 427.41,-243.479"/>
<polygon fill="none" stroke="black" points="428.79,-240.262 418.221,-239.517 426.018,-246.69 428.79,-240.262"/>
</g>
<!-- \\Subscription -->
<g id="node49" class="node"><title>\\Subscription</title>
<polygon fill="none" stroke="black" points="619.5,-574 548.5,-574 548.5,-538 619.5,-538 619.5,-574"/>
<text text-anchor="middle" x="584" y="-553.2" font-family="Times,serif" font-size="11.00">Subscription</text>
</g>
<!-- \\Subscription&#45;&gt;\\AppModel -->
<g id="edge47" class="edge"><title>\\Subscription&#45;&gt;\\AppModel</title>
<path fill="none" stroke="black" d="M548.365,-547.539C537.979,-543.471 527.397,-537.549 520,-529 438.741,-435.08 528.703,-353.398 448,-259 442.429,-252.483 434.978,-247.478 427.202,-243.654"/>
<polygon fill="none" stroke="black" points="428.584,-240.439 418.016,-239.689 425.81,-246.865 428.584,-240.439"/>
</g>
<!-- \\Urdf -->
<g id="node50" class="node"><title>\\Urdf</title>
<polygon fill="none" stroke="black" points="611,-520 557,-520 557,-484 611,-484 611,-520"/>
<text text-anchor="middle" x="584" y="-499.2" font-family="Times,serif" font-size="11.00">Urdf</text>
</g>
<!-- \\Urdf&#45;&gt;\\AppModel -->
<g id="edge48" class="edge"><title>\\Urdf&#45;&gt;\\AppModel</title>
<path fill="none" stroke="black" d="M556.737,-496.133C544.116,-492.097 529.669,-485.508 520,-475 451.481,-400.534 516.078,-333.869 448,-259 442.35,-252.786 435.006,-247.927 427.382,-244.152"/>
<polygon fill="none" stroke="black" points="428.602,-240.866 418.037,-240.068 425.799,-247.28 428.602,-240.866"/>
</g>
<!-- \\Tf -->
<g id="node51" class="node"><title>\\Tf</title>
<polygon fill="none" stroke="black" points="611,-466 557,-466 557,-430 611,-430 611,-466"/>
<text text-anchor="middle" x="584" y="-445.2" font-family="Times,serif" font-size="11.00">Tf</text>
</g>
<!-- \\Tf&#45;&gt;\\AppModel -->
<g id="edge49" class="edge"><title>\\Tf&#45;&gt;\\AppModel</title>
<path fill="none" stroke="black" d="M556.843,-441.624C544.401,-437.48 530.08,-430.946 520,-421 463.916,-365.659 503.756,-314.671 448,-259 442.238,-253.246 435.039,-248.616 427.628,-244.927"/>
<polygon fill="none" stroke="black" points="428.778,-241.608 418.218,-240.743 425.934,-248.004 428.778,-241.608"/>
</g>
<!-- \\Resource -->
<g id="node52" class="node"><title>\\Resource</title>
<polygon fill="none" stroke="black" points="613.5,-412 554.5,-412 554.5,-376 613.5,-376 613.5,-412"/>
<text text-anchor="middle" x="584" y="-391.2" font-family="Times,serif" font-size="11.00">Resource</text>
</g>
<!-- \\Resource&#45;&gt;\\AppModel -->
<g id="edge50" class="edge"><title>\\Resource&#45;&gt;\\AppModel</title>
<path fill="none" stroke="black" d="M554.402,-385.721C542.873,-381.421 529.972,-375.295 520,-367 475.649,-330.108 492.132,-296.153 448,-259 441.895,-253.861 434.657,-249.532 427.339,-245.949"/>
<polygon fill="none" stroke="black" points="428.661,-242.706 418.104,-241.806 425.795,-249.093 428.661,-242.706"/>
</g>
<!-- \\Article -->
<g id="node53" class="node"><title>\\Article</title>
<polygon fill="none" stroke="black" points="611,-358 557,-358 557,-322 611,-322 611,-358"/>
<text text-anchor="middle" x="584" y="-337.2" font-family="Times,serif" font-size="11.00">Article</text>
</g>
<!-- \\Article&#45;&gt;\\AppModel -->
<g id="edge51" class="edge"><title>\\Article&#45;&gt;\\AppModel</title>
<path fill="none" stroke="black" d="M556.885,-330.438C545.28,-325.78 531.641,-319.73 520,-313 485.371,-292.979 482.51,-279.225 448,-259 441.543,-255.216 434.458,-251.621 427.475,-248.362"/>
<polygon fill="none" stroke="black" points="428.639,-245.048 418.083,-244.14 425.768,-251.433 428.639,-245.048"/>
</g>
<!-- \\Setting -->
<g id="node54" class="node"><title>\\Setting</title>
<polygon fill="none" stroke="black" points="611,-304 557,-304 557,-268 611,-268 611,-304"/>
<text text-anchor="middle" x="584" y="-283.2" font-family="Times,serif" font-size="11.00">Setting</text>
</g>
<!-- \\Setting&#45;&gt;\\AppModel -->
<g id="edge52" class="edge"><title>\\Setting&#45;&gt;\\AppModel</title>
<path fill="none" stroke="black" d="M556.973,-278.829C524.09,-269.77 467.112,-254.072 428.27,-243.37"/>
<polygon fill="none" stroke="black" points="428.891,-239.911 418.321,-240.629 427.032,-246.66 428.891,-239.911"/>
</g>
<!-- \\Type -->
<g id="node55" class="node"><title>\\Type</title>
<polygon fill="none" stroke="black" points="611,-250 557,-250 557,-214 611,-214 611,-250"/>
<text text-anchor="middle" x="584" y="-229.2" font-family="Times,serif" font-size="11.00">Type</text>
</g>
<!-- \\Type&#45;&gt;\\AppModel -->
<g id="edge53" class="edge"><title>\\Type&#45;&gt;\\AppModel</title>
<path fill="none" stroke="black" d="M556.973,-232C524.23,-232 467.597,-232 428.766,-232"/>
<polygon fill="none" stroke="black" points="428.321,-228.5 418.321,-232 428.321,-235.5 428.321,-228.5"/>
</g>
<!-- \\Role -->
<g id="node56" class="node"><title>\\Role</title>
<polygon fill="none" stroke="black" points="611,-1600 557,-1600 557,-1564 611,-1564 611,-1600"/>
<text text-anchor="middle" x="584" y="-1579.2" font-family="Times,serif" font-size="11.00">Role</text>
</g>
<!-- \\Role&#45;&gt;\\AppModel -->
<g id="edge54" class="edge"><title>\\Role&#45;&gt;\\AppModel</title>
<path fill="none" stroke="black" d="M556.773,-1577.51C543.507,-1573.8 528.461,-1567.09 520,-1555 354.594,-1318.69 612.008,-496.279 448,-259 442.983,-251.742 435.549,-246.412 427.582,-242.506"/>
<polygon fill="none" stroke="black" points="428.673,-239.169 418.096,-238.545 425.975,-245.628 428.673,-239.169"/>
</g>
<!-- \\Study -->
<g id="node57" class="node"><title>\\Study</title>
<polygon fill="none" stroke="black" points="611,-1546 557,-1546 557,-1510 611,-1510 611,-1546"/>
<text text-anchor="middle" x="584" y="-1525.2" font-family="Times,serif" font-size="11.00">Study</text>
</g>
<!-- \\Study&#45;&gt;\\AppModel -->
<g id="edge55" class="edge"><title>\\Study&#45;&gt;\\AppModel</title>
<path fill="none" stroke="black" d="M556.784,-1523.5C543.522,-1519.79 528.476,-1513.08 520,-1501 361.192,-1274.7 605.469,-486.234 448,-259 442.974,-251.748 435.537,-246.421 427.569,-242.515"/>
<polygon fill="none" stroke="black" points="428.66,-239.178 418.084,-238.554 425.963,-245.637 428.66,-239.178"/>
</g>
<!-- \\Marker -->
<g id="node58" class="node"><title>\\Marker</title>
<polygon fill="none" stroke="black" points="611,-1492 557,-1492 557,-1456 611,-1456 611,-1492"/>
<text text-anchor="middle" x="584" y="-1471.2" font-family="Times,serif" font-size="11.00">Marker</text>
</g>
<!-- \\Marker&#45;&gt;\\AppModel -->
<g id="edge56" class="edge"><title>\\Marker&#45;&gt;\\AppModel</title>
<path fill="none" stroke="black" d="M556.797,-1469.49C543.538,-1465.78 528.492,-1459.07 520,-1447 367.789,-1230.7 598.931,-476.19 448,-259 442.965,-251.754 435.524,-246.43 427.555,-242.525"/>
<polygon fill="none" stroke="black" points="428.647,-239.188 418.07,-238.563 425.949,-245.647 428.647,-239.188"/>
</g>
<!-- \\Iface -->
<g id="node59" class="node"><title>\\Iface</title>
<polygon fill="none" stroke="black" points="611,-1438 557,-1438 557,-1402 611,-1402 611,-1438"/>
<text text-anchor="middle" x="584" y="-1417.2" font-family="Times,serif" font-size="11.00">Iface</text>
</g>
<!-- \\Iface&#45;&gt;\\AppModel -->
<g id="edge57" class="edge"><title>\\Iface&#45;&gt;\\AppModel</title>
<path fill="none" stroke="black" d="M556.811,-1415.48C543.556,-1411.77 528.509,-1405.05 520,-1393 374.385,-1186.71 592.395,-466.148 448,-259 442.954,-251.762 435.509,-246.44 427.54,-242.536"/>
<polygon fill="none" stroke="black" points="428.632,-239.199 418.055,-238.573 425.933,-245.658 428.632,-239.199"/>
</g>
<!-- \\Rosbridge -->
<g id="node60" class="node"><title>\\Rosbridge</title>
<polygon fill="none" stroke="black" points="615,-1384 553,-1384 553,-1348 615,-1348 615,-1384"/>
<text text-anchor="middle" x="584" y="-1363.2" font-family="Times,serif" font-size="11.00">Rosbridge</text>
</g>
<!-- \\Rosbridge&#45;&gt;\\AppModel -->
<g id="edge58" class="edge"><title>\\Rosbridge&#45;&gt;\\AppModel</title>
<path fill="none" stroke="black" d="M552.936,-1360.31C540.724,-1356.4 527.703,-1349.88 520,-1339 380.98,-1142.71 585.859,-456.107 448,-259 442.943,-251.77 435.493,-246.451 427.523,-242.548"/>
<polygon fill="none" stroke="black" points="428.615,-239.211 418.039,-238.585 425.917,-245.67 428.615,-239.211"/>
</g>
<!-- \\Mjpeg -->
<g id="node61" class="node"><title>\\Mjpeg</title>
<polygon fill="none" stroke="black" points="611,-1330 557,-1330 557,-1294 611,-1294 611,-1330"/>
<text text-anchor="middle" x="584" y="-1309.2" font-family="Times,serif" font-size="11.00">Mjpeg</text>
</g>
<!-- \\Mjpeg&#45;&gt;\\AppModel -->
<g id="edge59" class="edge"><title>\\Mjpeg&#45;&gt;\\AppModel</title>
<path fill="none" stroke="black" d="M556.843,-1307.46C543.597,-1303.74 528.549,-1297.03 520,-1285 387.574,-1098.71 579.324,-446.067 448,-259 442.93,-251.778 435.475,-246.464 427.504,-242.561"/>
<polygon fill="none" stroke="black" points="428.597,-239.224 418.021,-238.598 425.898,-245.683 428.597,-239.224"/>
</g>
<!-- \\RmsHelper -->
<g id="node62" class="node"><title>\\RmsHelper</title>
<polygon fill="none" stroke="black" points="618,-196 550,-196 550,-160 618,-160 618,-196"/>
<text text-anchor="middle" x="584" y="-175.2" font-family="Times,serif" font-size="11.00">RmsHelper</text>
</g>
<!-- \\Helper -->
<g id="node67" class="node"><title>\\Helper</title>
<ellipse fill="none" stroke="black" cx="386" cy="-72" rx="37.0935" ry="18"/>
<text text-anchor="middle" x="386" y="-68.3" font-family="Times,serif" font-size="14.00" fill="gray">\Helper</text>
</g>
<!-- \\RmsHelper&#45;&gt;\\Helper -->
<g id="edge60" class="edge"><title>\\RmsHelper&#45;&gt;\\Helper</title>
<path fill="none" stroke="black" d="M549.816,-165.716C539.953,-161.556 529.303,-156.542 520,-151 484.936,-130.112 483.662,-113.849 448,-94 441.643,-90.4617 434.608,-87.3078 427.643,-84.5698"/>
<polygon fill="none" stroke="black" points="428.851,-81.2851 418.258,-81.0968 426.422,-87.85 428.851,-81.2851"/>
</g>
<!-- \\AppHelper -->
<g id="node63" class="node"><title>\\AppHelper</title>
<polygon fill="none" stroke="black" points="617,-142 551,-142 551,-106 617,-106 617,-142"/>
<text text-anchor="start" x="561" y="-127.2" font-family="Times,serif" font-size="11.00">«abstract»</text>
<text text-anchor="start" x="559" y="-115.2" font-family="Times,serif" font-size="11.00">AppHelper</text>
</g>
<!-- \\AppHelper&#45;&gt;\\Helper -->
<g id="edge61" class="edge"><title>\\AppHelper&#45;&gt;\\Helper</title>
<path fill="none" stroke="black" d="M550.635,-115.413C517.241,-106.554 465.03,-92.7019 428.593,-83.0349"/>
<polygon fill="none" stroke="black" points="429.326,-79.6084 418.763,-80.427 427.531,-86.3743 429.326,-79.6084"/>
</g>
</g>
</svg>
